<?xml version="1.0" encoding="UTF-8"?>
<svg id="provider-logo" data-name="provider-logo" xmlns="http://www.w3.org/2000/svg" version="1.1" viewBox="0 0 150 90">
  <defs>
    <style>
      .cls-1 {
        fill: #fff;
        stroke-width: 0px;
      }
    </style>
  </defs>
  <path class="cls-1" d="M49.3,74.1v-4.3c0-1.6-1-2.7-2.6-2.7s-1.7.3-2.3,1.2c-.4-.7-1.2-1.2-2.2-1.2s-1.4.2-2,1v-.8h-1.4v6.8h1.4v-3.8c0-1.2.6-1.8,1.6-1.8s1.4.6,1.4,1.8v3.8h1.4v-3.8c0-1.2.6-1.8,1.6-1.8s1.4.6,1.4,1.8v3.8h1.6ZM70.9,67.4h-2.3v-2.1h-1.4v2.1h-1.3v1.3h1.3v3.1c0,1.6.6,2.5,2.3,2.5s1.3-.2,1.8-.5l-.4-1.3c-.4.3-.9.4-1.3.4-.7,0-1-.4-1-1.2v-3h2.3v-1.3ZM83.3,67.2c-.8,0-1.3.4-1.8,1v-.8h-1.4v6.8h1.4v-3.8c0-1.2.4-1.8,1.4-1.8s.6,0,.9.2l.4-1.4c-.4,0-.7-.2-1.1-.2h0ZM64.6,67.9c-.7-.4-1.7-.7-2.7-.7-1.7,0-2.8.8-2.8,2.1s.8,1.8,2.3,2h.7c.8.2,1.2.4,1.2.8s-.5.8-1.5.8-1.7-.4-2.2-.7l-.7,1.2c.8.6,1.8.9,2.9.9,1.9,0,3-.9,3-2.2s-.9-1.8-2.3-2.1h-.7c-.6-.2-1.2-.3-1.2-.8s.4-.8,1.3-.8,1.7.4,2.1.6l.6-1.2h0ZM103.4,67.2c-.8,0-1.3.4-1.8,1v-.8h-1.4v6.8h1.4v-3.8c0-1.2.4-1.8,1.4-1.8s.6,0,.9.2l.4-1.4c-.4,0-.7-.2-1.1-.2h0ZM84.8,70.7c0,2.1,1.4,3.6,3.6,3.6s1.7-.3,2.4-.8l-.7-1.2c-.5.4-1.1.6-1.7.6-1.2,0-2-.9-2-2.1s.8-2.1,2-2.1,1.2.2,1.7.6l.7-1.2c-.7-.6-1.4-.8-2.4-.8-2.1,0-3.6,1.5-3.6,3.6h0v-.2ZM98.3,70.7v-3.4h-1.4v.8c-.4-.6-1.2-1-2.1-1-1.9,0-3.3,1.5-3.3,3.6s1.4,3.6,3.3,3.6,1.6-.4,2.1-1v.8h1.4v-3.4ZM92.9,70.7c0-1.2.8-2.1,2.1-2.1s2,.9,2,2.1-.8,2.1-2,2.1-2.1-1-2.1-2.1h0ZM75.5,67.2c-2,0-3.3,1.4-3.3,3.6s1.4,3.6,3.4,3.6,1.9-.3,2.8-1l-.7-1.1c-.5.4-1.3.7-2,.7s-1.8-.4-2-1.7h4.9v-.5c0-2.1-1.3-3.6-3.1-3.6h0ZM75.4,68.5c.9,0,1.5.6,1.7,1.6h-3.5c.2-1,.7-1.6,1.8-1.6h0ZM111.7,70.7v-6.1h-1.4v3.6c-.4-.6-1.2-1-2.1-1-1.9,0-3.3,1.5-3.3,3.6s1.4,3.6,3.3,3.6,1.6-.4,2.1-1v.8h1.4v-3.4h0ZM106.3,70.7c0-1.2.8-2.1,2.1-2.1s2,.9,2,2.1-.8,2.1-2,2.1-2.1-1-2.1-2.1h0ZM57.5,70.7v-3.4h-1.4v.8c-.4-.6-1.2-1-2.1-1-1.9,0-3.3,1.5-3.3,3.6s1.4,3.6,3.3,3.6,1.6-.4,2.1-1v.8h1.4v-3.4ZM52.1,70.7c0-1.2.8-2.1,2.1-2.1s2,.9,2,2.1-.8,2.1-2,2.1-2.1-1-2.1-2.1ZM72.5,57.1s.4.4.6.4c-3.6,2.4-7.8,3.8-12.4,3.8-12.4,0-22.4-10.2-22.4-22.8s10-22.3,22.4-22.8,8.8,1.4,12.4,3.8c0,0-.4.4-.6.4-5.2,4.6-8.2,11.4-8.2,18.6s3,13.8,8.2,18.6ZM88.3,15.7c-4.6,0-8.8,1.4-12.4,3.8,0,0,.4.4.6.4,5.2,4.6,8.2,11.4,8.2,18.6s-3,13.8-8.2,18.6c0,0-.4.4-.6.4,3.6,2.4,7.8,3.8,12.4,3.8,12.4,0,22.4-10.2,22.4-22.8s-10-22.8-22.4-22.8ZM74.5,20.5c-.2.2-.6.4-.8.8-4.8,4.2-7.8,10.4-7.8,17.2s3,13,7.8,17.2c.2.2.6.4.8.8.2-.2.6-.4.8-.8,4.8-4.2,7.8-10.4,7.8-17.2s-3-13-7.8-17.2c-.2-.2-.6-.4-.8-.8"/>
</svg>