<?xml version="1.0" encoding="utf-8"?>
<!-- Generator: Adobe Illustrator 28.1.0, SVG Export Plug-In . SVG Version: 6.00 Build 0)  -->
<svg version="1.1" id="Слой_1" xmlns="http://www.w3.org/2000/svg" xmlns:xlink="http://www.w3.org/1999/xlink" x="0px" y="0px"
	 viewBox="0 0 150 90" style="enable-background:new 0 0 150 90;" xml:space="preserve">
<g>
	<path d="M123.1,66.4c-0.1,0-0.2-0.1-0.4-0.1c-0.8-0.1-1.6-0.2-2.5-0.4c-0.9-0.2-1.7-0.3-2.6-0.6c-1-0.4-2-0.8-3-1.3
		c-2.7-1.3-5.1-3.2-7.1-5.5c-1.4-1.6-2.6-3.3-3.4-5.3c-0.5-1.1-1-2.3-1.3-3.5s-0.5-2.4-0.7-3.7c-0.1-1.2-0.2-2.5-0.2-3.7
		c0.2-4,1.4-7.8,3.6-11.2c2-3.1,4.6-5.6,7.8-7.4c1.4-0.8,2.8-1.5,4.3-1.9c1.1-0.3,2.2-0.6,3.3-0.8c1.4-0.2,2.8-0.4,4.3-0.4
		c1.1,0,2.1,0.2,3.2,0.3c0.8,0.1,1.6,0.2,2.4,0.4c0.8,0.2,1.6,0.4,2.4,0.8c1.3,0.6,2.5,1.2,3.8,1.9c1.7,1,3.1,2.2,4.4,3.6
		c1.3,1.4,2.5,2.9,3.4,4.7c0.9,1.6,1.7,3.3,2.1,5.2c0.2,1,0.5,2,0.6,3.1c0.1,1.6,0.2,3.2,0.2,4.9c-0.1,1.3-0.4,2.6-0.7,3.9
		c-0.4,1.9-1.2,3.7-2.2,5.4c-1.3,2.3-2.9,4.2-4.8,5.9c-1.6,1.4-3.3,2.6-5.3,3.5c-1.3,0.6-2.8,1-4.2,1.5c-1.2,0.4-2.4,0.6-3.6,0.6
		c-0.1,0-0.1,0.1-0.2,0.1C125.6,66.4,124.3,66.4,123.1,66.4z M145.4,43.7c0-5.8-2.1-10.8-6.3-14.8s-9.2-5.8-15-5.6
		c-9.8,0.4-19.6,8.6-19.4,20.9c0.2,10.1,8.7,20.2,21.3,19.7C135.9,63.6,145.3,55.3,145.4,43.7z"/>
	<path d="M104,11c3.8,0.2,6.7,1.9,9,4.9c0,0,0.1,0,0.1-0.1c-0.1-0.7-0.3-1.4-0.4-2.1c-0.1-0.6-0.1-1.3-0.2-1.9
		c0-0.2-0.2-0.3-0.2-0.5c-0.1-1.7-0.3-3.4-0.4-5.1c-0.1-1.1-0.2-2.2-0.2-3.3c0-0.6,0.1-1.2,0.1-2c0.2,0.1,0.4,0.1,0.5,0.3
		c0.6,0.8,1.2,1.6,1.7,2.5c0.8,1.3,1.7,2.6,2.4,4c0.5,1,0.9,2,1.4,3c0.6,1.2,1.2,2.3,1.7,3.4c0.2-3.7,1.5-6.9,4.6-9.2
		c0.1,0,0.1,0,0.2,0.1c0,0.1,0,0.3,0,0.4c-0.5,1-0.8,2.1-1.2,3.2c-0.5,1.8-0.4,3.7-0.4,5.5c0,0.9,0.2,1.8,0.4,2.7
		c0.1,0.6,0.3,1.2,0.4,2c-0.4,0-0.7,0-1,0c-0.4-0.1-0.8,0-1.2,0.2c-0.4,0.2-0.8,0.2-1.2,0.2c-1,0.1-2,0.5-3,0.8
		c-0.7,0.2-1.3,0.5-1.9,0.7c-0.7,0.2-1.4,0.7-2,1.1c-0.2,0.1-0.4,0.3-0.7,0.3c-0.1,0-0.3-0.1-0.4-0.3c-0.1-0.3-0.1-0.6-0.2-0.8
		c-0.2-0.4-0.5-0.8-0.6-1.2c-0.5-1.2-1.2-2.2-1.9-3.2c-0.6-0.9-1.2-1.8-2.1-2.5s-1.9-1.5-2.8-2.2c-0.2-0.2-0.4-0.4-0.6-0.6
		C103.9,11.1,104,11.1,104,11z"/>
	<path d="M51.7,42c0,2.9,0,5.7,0,8.7c-0.7,0-1.3,0-2,0c0-4,0-8,0-12.1c0.8,0,1.5,0,2.3,0c0.1,0,0.3,0.3,0.4,0.4
		c1.2,2.9,2.4,5.7,3.6,8.6c0.1,0.2,0.1,0.3,0.2,0.5c0.6-1.3,1.1-2.6,1.6-3.9c0.7-1.8,1.4-3.5,2.2-5.3c0.1-0.2,0.2-0.4,0.4-0.4
		c0.7,0,1.4,0,2.1,0c0,4,0,8.1,0,12.1c-0.6,0-1.3,0-2,0c0-2.9,0-5.7,0-8.6h-0.1c-0.1,0.3-0.2,0.5-0.3,0.8c-1,2.5-1.9,4.9-2.9,7.4
		c-0.2,0.3-0.3,0.5-0.7,0.5s-0.9,0-1.3,0C54.1,47.7,52.9,44.8,51.7,42C51.8,42,51.7,42,51.7,42z"/>
	<path d="M42.3,44c2,0,4.1,0,6.1,0c0.5,3.1-1.2,6-4.4,6.7c-2.5,0.5-4.7,0-6.3-2.2c-1.9-2.5-1.6-7.1,1.2-9.1c2.4-1.7,7.1-1.6,8.8,1.7
		c0.2,0.4,0.3,0.8,0.5,1.3c-0.7,0-1.4,0-2,0c-0.1,0-0.2-0.1-0.3-0.2c-0.8-1.6-2.6-2.2-4.3-1.8c-1.6,0.4-2.8,1.8-3,3.5
		c-0.1,1.2,0,2.3,0.6,3.4c0.8,1.4,2.6,2.1,4.4,1.8c1.5-0.3,2.7-1.6,3-3.1c0-0.1,0-0.2,0-0.3c-1.5,0-2.9,0-4.4,0
		C42.3,45,42.3,44.5,42.3,44z"/>
	<path d="M15.3,38.4c1.8,0,3.7-0.2,5.5,0c3,0.3,3.7,3.3,2.9,5.3c-0.5,1.2-1.5,1.7-2.8,1.9c0.5,0.8,1.1,1.7,1.6,2.5s1,1.6,1.6,2.5
		c-0.8,0-1.5,0-2.1,0c-0.1,0-0.3-0.2-0.4-0.3c-0.8-1.3-1.7-2.6-2.5-4c-0.3-0.4-0.6-0.6-1.1-0.6c-0.2,0-0.4,0-0.6,0
		c0,1.6,0,3.2,0,4.9c-0.7,0-1.3,0-2,0C15.3,46.5,15.3,42.5,15.3,38.4z M17.4,44.3c0.7,0,1.4,0,2,0c0.3,0,0.6,0,0.8-0.1
		c1-0.1,1.6-0.8,1.7-1.7c0.1-1.1-0.3-2.1-1.3-2.3C19.5,40,18.4,40,17.3,40C17.4,41.5,17.4,42.9,17.4,44.3z"/>
	<path d="M100.2,42.5c-0.7,0-1.3,0-2,0c-0.1,0-0.3-0.3-0.4-0.4c-1.2-2.2-4.3-2.7-6-1c-1.2,1.2-1.4,2.6-1.2,4.2
		c0.2,1.4,0.8,2.5,2.1,3.2c1.9,0.9,4.1,0.2,5.1-1.6c0.2-0.3,0.3-0.4,0.7-0.4c0.5,0,1,0,1.6,0c-0.1,0.2-0.1,0.3-0.1,0.5
		c-0.8,2.2-2.7,3.7-5,3.8c-0.9,0-1.9,0-2.8-0.3c-1.6-0.6-2.7-1.7-3.3-3.3c-0.6-1.7-0.6-3.5,0-5.2c0.7-2,2.2-3.3,4.3-3.6
		c2.1-0.3,4,0,5.5,1.6C99.4,40.6,99.9,41.4,100.2,42.5z"/>
	<path d="M75.3,50.6c-0.7,0-1.3,0-1.9,0c-0.1,0-0.3-0.2-0.3-0.3c-0.3-0.7-0.5-1.3-0.7-2c-0.1-0.2-0.2-0.4-0.5-0.4c-1.5,0-3,0-4.5,0
		c-0.3,0-0.4,0.1-0.4,0.3c-0.2,0.7-0.5,1.3-0.7,2c-0.1,0.3-0.2,0.4-0.5,0.3c-0.6,0-1.1,0-1.8,0c0.2-0.5,0.3-0.9,0.5-1.3
		c1.3-3.5,2.6-7,3.9-10.5c0.1-0.3,0.2-0.4,0.6-0.4c0.5,0,1,0,1.5,0c0.3,0,0.4,0.1,0.5,0.4c1.3,3.5,2.6,6.9,3.9,10.3
		C74.9,49.7,75.1,50.1,75.3,50.6z M69.6,40.8c-0.7,1.9-1.3,3.8-2,5.6c1.3,0,2.6,0,4,0C70.9,44.5,70.3,42.7,69.6,40.8z"/>
	<path d="M36.2,50.6c-0.7,0-1.3,0-1.9,0c-0.1,0-0.3-0.2-0.3-0.3c-0.3-0.7-0.5-1.3-0.7-2c-0.1-0.3-0.2-0.4-0.5-0.4
		c-1.4,0-2.9,0-4.3,0c-0.3,0-0.5,0.1-0.6,0.4c-0.2,0.6-0.4,1.3-0.7,1.9c-0.1,0.2-0.2,0.4-0.5,0.4c-0.6,0-1.2,0-1.8,0
		c0.5-1.2,0.9-2.4,1.3-3.6c1-2.7,2-5.4,3-8.1c0.1-0.3,0.3-0.5,0.7-0.5c0.5,0,1,0,1.5,0c0.3,0,0.4,0.1,0.5,0.3
		c1.3,3.6,2.7,7.2,4,10.8C36,49.9,36.1,50.3,36.2,50.6z M28.5,46.4c1.3,0,2.6,0,4,0c-0.7-1.9-1.3-3.7-2-5.6
		C29.8,42.7,29.2,44.5,28.5,46.4z"/>
	<path d="M7.2,45.9c0,1.6,0,3.2,0,4.7c-0.7,0-1.3,0-2,0c0-4.1,0-8.2,0-12.2l0.1-0.1c1.8,0,3.6,0,5.3,0.1c1.5,0.1,2.7,1.2,3,2.6
		c0.4,1.7-0.1,3.3-1.3,4.1c-0.9,0.6-1.8,0.8-2.7,0.8C8.8,45.9,8,45.9,7.2,45.9z M7.2,44.3c1.1-0.1,2.1-0.1,3.1-0.3
		c0.9-0.2,1.3-0.9,1.3-2.1c0-0.9-0.5-1.6-1.4-1.8c-1-0.1-1.9-0.1-3-0.2C7.2,41.4,7.2,42.8,7.2,44.3z"/>
	<path d="M80.4,50.6c-0.7,0-1.4,0-2,0c0-3.5,0-7.1,0-10.6c-1.1,0-2.2,0-3.4,0c0-0.6,0-1.1,0-1.6c2.9,0,5.9,0,8.8,0c0,0.5,0,1,0,1.6
		c-1.1,0-2.2,0-3.4,0C80.4,43.5,80.4,47.1,80.4,50.6z"/>
	<path d="M86.8,50.6c-0.6,0-1.3,0-1.9,0c0-4.1,0-8.2,0-12.3c0.6,0,1.2,0,1.9,0C86.8,42.4,86.8,46.5,86.8,50.6z"/>
	<path d="M131.4,35.8c-1.8,0.1-3.4-0.4-4.7-1.4c-1.6-1.1-2.6-2.5-2.7-4.5c0-1.4,0.8-2.5,2.2-3c1.1-0.4,2.3-0.5,3.5-0.3
		c2.2,0.3,4,1.3,5.4,3c0.9,1.1,1.2,2.3,1,3.7c-0.2,0.9-0.8,1.6-1.6,2C133.4,35.7,132.4,35.8,131.4,35.8z"/>
	<path d="M135.8,50.7c-0.7,0-1.3,0-1.9,0c-0.1,0-0.3-0.2-0.4-0.3c-0.3-0.7-0.5-1.3-0.7-2c-0.1-0.1-0.3-0.3-0.4-0.3
		c-1.6,0-3.2,0-4.9,0c-0.3,0.8-0.6,1.5-0.8,2.3c-0.1,0.3-0.2,0.4-0.5,0.4c-0.6,0-1.1,0-1.8,0c0.5-1.3,1-2.6,1.4-3.8
		c1-2.6,2-5.3,3-7.9c0.1-0.3,0.3-0.4,0.6-0.4c0.5,0,1,0,1.5,0c0.1,0,0.4,0.1,0.4,0.3c1.5,3.9,2.9,7.7,4.3,11.6
		C135.8,50.5,135.8,50.5,135.8,50.7z M132.2,46.4c-0.7-1.9-1.3-3.7-2-5.6c-0.7,1.9-1.3,3.8-2,5.6C129.5,46.4,130.8,46.4,132.2,46.4z
		"/>
	<path d="M109.5,45.9c0,1.6,0,3.1,0,4.7c-0.7,0-1.3,0-2,0c0-4.1,0-8.1,0-12.2l0.1-0.1c1.7,0,3.5-0.1,5.2,0.1
		c2.1,0.2,3.2,1.7,3.2,3.8c0,2-1.3,3.4-3.3,3.6c-0.8,0.1-1.7,0.1-2.6,0.1C109.9,45.9,109.7,45.9,109.5,45.9z M109.5,44.3
		c1,0,1.9,0,2.8-0.1c1-0.1,1.6-0.8,1.6-1.9c0-1.1-0.5-1.9-1.5-2.1c-0.9-0.1-1.9-0.1-2.9-0.2C109.5,41.4,109.5,42.8,109.5,44.3z"/>
	<path d="M139.8,50.6c-0.7,0-1.4,0-2.1,0c0-0.6-0.1-1.1,0-1.6c0.2-2-0.3-3.7-1.3-5.4c-0.9-1.5-1.7-3.2-2.6-4.8
		c-0.1-0.1-0.1-0.3-0.2-0.5c0.8,0,1.4,0,2.1,0c0.1,0,0.3,0.2,0.4,0.4c0.8,1.6,1.6,3.3,2.5,4.9c0.1,0.1,0.1,0.2,0.2,0.3
		c0.9-1.8,1.8-3.5,2.6-5.3c0.1-0.3,0.3-0.4,0.6-0.4c0.6,0,1.2,0,1.9,0c-0.5,1-1.1,2-1.6,3c-0.8,1.5-1.6,3-2.4,4.5
		c-0.1,0.2-0.1,0.4-0.2,0.7c0,1.2,0,2.4,0,3.6C139.8,50.3,139.8,50.4,139.8,50.6z"/>
	<path d="M119.4,49.1c1.5,0,2.8,0,4.3,0c0,0.5,0,1,0,1.6c-2.1,0-4.2,0-6.2,0c0-4.1,0-8.2,0-12.3c0.6,0,1.3,0,2,0
		C119.4,41.9,119.4,45.5,119.4,49.1z"/>
</g>
</svg>
