<?xml version="1.0" encoding="UTF-8"?>
<svg id="provider-logo" data-name="provider-logo" xmlns="http://www.w3.org/2000/svg" version="1.1" viewBox="0 0 150 90">
  <defs>
    <style>
      .cls-1 {
        fill: #fff;
        stroke-width: 0px;
      }
    </style>
  </defs>
  <path class="cls-1" d="M144.4,53.6h-4.4c-1,0-1.6-.6-1.6-1.4s.7-1.3,1.6-1.3h7.9l1.8-4.1h-9.8c-4.1,0-6.3,2.4-6.3,5.6s2.1,5.4,5.7,5.4h4.4c1,0,1.6.6,1.6,1.4s-.6,1.4-1.6,1.4h-9.6v4.1h9.6c4.1,0,6.3-2.3,6.3-5.7s-2-5.4-5.7-5.4h.1ZM127,53.6h-4.4c-1,0-1.6-.6-1.6-1.4s.7-1.3,1.6-1.3h7.9l1.8-4.1h-9.8c-4.1,0-6.3,2.4-6.3,5.6s2.1,5.4,5.7,5.4h4.4c1,0,1.6.6,1.6,1.4s-.6,1.4-1.6,1.4h-9.6v4.1h9.6c4.1,0,6.3-2.3,6.3-5.7s-2-5.4-5.7-5.4h.1ZM99.1,64.6h15v-4.1h-10.3v-3h10v-4.1h-10v-2.9h10.3v-4.1h-15v18ZM89.7,54.3h-5v-3.6h5c1.4,0,2.1.8,2.1,1.8s-.8,1.7-2.1,1.7h0ZM96.6,52.5c0-3.5-2.4-5.7-6.3-5.7h-10.3v17.8h4.8v-6.2h1.7l5.4,6.2h5.9l-5.9-6.4c3-.6,4.8-2.9,4.8-5.6ZM70.9,54.7h-5.1v-3.9h5.1c1.4,0,2.1.8,2.1,1.9s-.8,1.9-2.1,1.9h0ZM71.5,46.8h-10.4v17.8h4.8v-5.9h5.5c4.1,0,6.4-2.6,6.4-6s-2.4-6-6.3-6ZM60.2,46.8h-6.1l-4.7,5.4-4.7-5.4h-6.2l7.8,8.8-7.9,9.1h6.1l4.8-5.6,4.9,5.6h6.2l-8.1-9.2,7.8-8.7h.1ZM22.7,64.6h15v-4.1h-10.3v-3h10v-4.1h-10v-2.9h10.3v-4.1h-15v18ZM142.5,36.2l-7.3-10.9h-6v17.8h4.8v-11.3l7.4,11.3h5.7v-17.8h-4.7v10.9h0ZM114.8,35.6l2.4-6,2.4,6h-4.9.1ZM114.3,25.3l-7.8,17.8h5.3l1.4-3.7h8.4l1.6,3.7h5.4l-8.1-17.8s-6.1,0-6.1,0ZM98.7,34.4v-.4c0-2.6,1.4-4.5,4.5-4.5h5.4v-4.2h-5.7c-5.9,0-9,3.8-9,8.7v.4c0,5.5,3.5,8.7,8.7,8.7h1.6l1.9-4.1h-2.9c-2.9.1-4.7-1.4-4.7-4.7h.1ZM86.7,25.3v17.8h4.8v-17.8s-4.8,0-4.8,0ZM77.2,32.8h-5v-3.6h5c1.4,0,2.1.8,2.1,1.8s-.7,1.7-2.1,1.7h0ZM84.1,31c0-3.5-2.4-5.7-6.3-5.7h-10.3v17.8h4.8v-6.2h1.7l5.4,6.2h6l-5.9-6.4c3-.6,4.7-2.9,4.7-5.6ZM49.3,43.1h15v-4.1h-10.3v-3h10v-4.1h-10v-2.9h10.3v-4.1h-15v18ZM34.2,36.5l-4.1-11.2h-7.4v17.8h4.7v-12.8l4.7,12.8h4.3l4.8-12.8v12.8h4.7v-17.8h-7.4l-4.1,11.2h-.1ZM8.3,35.6l2.4-6,2.4,6h-4.9.1ZM7.7,25.3L0,43.1h5.3l1.4-3.7h8.4l1.6,3.7h5.4l-7.9-17.8h-6.3Z"/>
</svg>