<?xml version="1.0" encoding="utf-8"?>
<!-- Generator: Adobe Illustrator 28.1.0, SVG Export Plug-In . SVG Version: 6.00 Build 0)  -->
<svg version="1.1" id="Layer_1" xmlns="http://www.w3.org/2000/svg" xmlns:xlink="http://www.w3.org/1999/xlink" x="0px" y="0px"
	 viewBox="0 0 150 90" style="enable-background:new 0 0 150 90;" xml:space="preserve">
<g>
	<path d="M26.3,27.1c-8.8,0-16,7.2-16,16.1c0,1.6,0.3,3.2,0.7,4.7c0.3-0.4,0.6-0.8,0.8-1.3c1.1-1.6,2.2-3.3,3.3-5l0.8-1.3
		c0.3-0.4,0.5-0.8,0.8-1.3c0.5-0.8,1-1.7,1.5-2.5c0.3-0.5,0.5-0.8,0.7-1.3c0.3-0.5,0.5-0.8,0.7-1.3c0.3-0.5,0.5-0.9,0.6-1.3l0.6-1.3
		l0.1-0.1c0.3-0.7,1.2-1,1.9-0.6c0.5,0.3,0.8,0.8,0.8,1.5c0,0.8-0.1,1.6-0.2,2.3c-0.1,0.8-0.1,1.6-0.1,2.3c-0.1,1.6-0.1,3.2-0.1,4.7
		c0,1.6,0.1,3.1,0.3,4.6c0.1,0.7,0.2,1.5,0.3,2.2c0.1,0.6,0.3,1.3,0.6,1.9c0.1,0.2,0.2,0.3,0.3,0.5c0.1,0.1,0,0,0.1,0H25l0.1-0.1
		c0.3-0.2,0.5-0.4,0.6-0.6c0.5-0.6,0.9-1.1,1.3-1.7c0.4-0.6,0.8-1.3,1.2-1.9c0.8-1.4,1.5-2.7,2.1-4.1c0.3-0.7,0.6-1.4,1-2.1
		c0.3-0.7,0.6-1.4,1-2.1c0.3-0.7,1.2-1.1,1.9-0.8c0.5,0.2,0.8,0.6,0.9,1.1c0,0.2,0,0.4,0.1,0.6l0.1,0.6c0.1,0.5,0.1,0.9,0.2,1.3
		c0.1,0.9,0.3,1.7,0.6,2.6c0.3,0.8,0.5,1.7,0.9,2.5c0.3,0.8,0.8,1.6,1.4,2.3c0.1,0.2,0.1,0.4-0.1,0.5c-0.1,0.1-0.3,0.1-0.5,0
		c-0.7-0.6-1.4-1.4-1.9-2.2c-0.6-0.8-1-1.6-1.5-2.5c-0.3-0.6-0.5-1.2-0.8-1.7c-0.2,0.3-0.3,0.7-0.5,1c-0.7,1.4-1.4,2.8-2.2,4.3
		c-0.4,0.8-0.8,1.5-1.3,2.2s-1,1.4-1.6,2.1c-0.3,0.4-0.7,0.7-1.1,1c-0.1,0.1-0.3,0.2-0.4,0.3l-0.4,0.2H26c-0.1,0-0.1,0.1-0.3,0.1
		c-0.2,0-0.3,0.1-0.5,0.1c-0.4,0-0.8,0-1.2-0.1c-0.3-0.1-0.6-0.3-1-0.6c-0.5-0.3-0.8-0.8-1.2-1.4c-0.4-0.8-0.7-1.7-0.9-2.6
		c-0.2-0.8-0.3-1.7-0.4-2.5c-0.2-1.6-0.3-3.2-0.3-4.9c0-0.8,0-1.6,0-2.3c-0.3,0.6-0.6,1.1-0.9,1.6s-0.5,0.9-0.7,1.3l-0.6,1
		c-1,1.7-2,3.5-3.1,5.2c-0.6,1.1-1.4,2.2-2.1,3.3c4.9,7.4,14.8,9.5,22.1,4.6c7.4-4.9,9.5-14.8,4.6-22.1
		C36.7,29.8,31.7,27.1,26.3,27.1z"/>
	<path d="M56.1,48.9V38.2h-0.3l-3.4,10.7h-0.8l-3.4-10.7h-0.3v10.6h-1.4V37.1H49l3,9.3l3-9.3h2.5v11.8
		C57.5,48.9,56.1,48.9,56.1,48.9z"/>
	<path d="M59.6,38.7v-1.6h1.6v1.6H59.6z M59.6,48.9v-9.1h1.5v9.1H59.6z"/>
	<path d="M70.2,45.9c0,1.7-0.6,3.1-3.6,3.1c-3.7,0-3.9-2.1-3.9-4.7c0-2.6,0.2-4.7,3.9-4.7c2.9,0,3.6,1.4,3.6,3.1h-1.4
		c0-1.4-0.5-2.1-2.2-2.1c-2.3,0-2.4,1.2-2.4,3.7s0.1,3.7,2.4,3.7c1.7,0,2.2-0.7,2.2-2.1H70.2z"/>
	<path d="M73.2,40.7c0.7-0.5,1.6-1,2.5-1h1.2l-0.1,1.1c-0.3,0-0.5,0-0.6,0c-0.2,0-0.3,0-0.6,0c-0.8,0-1.6,0.6-2.3,1v7.1h-1.5v-9.1
		H73L73.2,40.7z"/>
	<path d="M85.2,44.4c0,2.6-0.2,4.7-4,4.7s-4-2.1-4-4.7c0-2.6,0.2-4.7,4-4.7C85,39.6,85.2,41.8,85.2,44.4z M78.8,44.4
		c0,2.5,0.1,3.7,2.5,3.7c2.3,0,2.5-1.2,2.5-3.7s-0.1-3.7-2.5-3.7S78.8,41.8,78.8,44.4z"/>
	<path d="M88,51c0.6,0.1,1.3,0.1,2.1,0.1c2.3,0,2.6-0.6,2.6-3c-0.6,0.4-1.6,0.8-2.6,0.8c-3.3,0.1-3.5-1.7-3.5-4.5s0.2-4.7,3.4-4.7
		c1.1,0,2.1,0.5,2.8,1l0.1-0.8h1.2v8c0,3.2-0.7,4.3-3.8,4.3c-0.9,0-1.7-0.1-2.6-0.2L88,51z M92.7,41.5c-0.6-0.4-1.5-0.8-2.3-0.8
		c-2.2,0-2.3,1.2-2.3,3.7c0,2.4,0.1,3.6,2.3,3.6c0.8,0,1.6-0.5,2.3-0.8V41.5z"/>
	<path d="M102.3,48.9l-0.1-0.8c-0.7,0.5-1.7,1-2.8,1c-3.3,0.1-3.5-1.8-3.5-4.7s0.2-4.7,3.5-4.7c1.1,0,2.1,0.5,2.8,1l0.1-0.8h1.2V49
		L102.3,48.9L102.3,48.9z M102,41.4c-0.6-0.3-1.5-0.8-2.3-0.8c-2.2,0-2.3,1.2-2.3,3.7s0.1,3.7,2.3,3.7c0.8,0,1.6-0.5,2.3-0.8V41.4z"
		/>
	<path d="M106.6,40.6c0.6-0.4,1.6-0.9,2.5-1c1.6-0.1,2.3,0.3,2.7,1c0.7-0.5,1.6-1,2.7-1c3.1-0.1,3.3,1.5,3.3,3.7v5.5h-1.5v-5.4
		c0-1.9-0.1-2.8-2.1-2.8c-0.7,0-1.5,0.5-2.1,0.8c0.1,0.6,0.2,1.3,0.2,2v5.4H111v-5.4c0-1.9-0.1-2.8-2.1-2.8c-0.7,0-1.5,0.5-2.1,0.8
		v7.4h-1.5v-9.1h1.2L106.6,40.6z"/>
	<path d="M119.7,38.7v-1.6h1.6v1.6H119.7z M119.7,48.9v-9.1h1.5v9.1H119.7z"/>
	<path d="M124.4,40.6c0.7-0.4,1.7-0.9,2.8-1c3.3-0.1,3.5,1.5,3.5,3.7v5.5h-1.5v-5.4c0-1.9-0.1-2.8-2.3-2.8c-0.8,0-1.6,0.5-2.3,0.8
		v7.4h-1.5v-9.1h1.2L124.4,40.6z"/>
	<path d="M133.6,51c0.6,0.1,1.3,0.1,2.1,0.1c2.3,0,2.6-0.6,2.6-3c-0.6,0.4-1.6,0.8-2.6,0.8c-3.3,0.1-3.5-1.7-3.5-4.5
		s0.2-4.7,3.4-4.7c1.1,0,2.1,0.5,2.8,1l0.1-0.8h1.2v8c0,3.2-0.7,4.3-3.8,4.3c-0.9,0-1.7-0.1-2.6-0.2L133.6,51z M138.3,41.5
		c-0.6-0.4-1.5-0.8-2.3-0.8c-2.2,0-2.3,1.2-2.3,3.7c0,2.4,0.1,3.6,2.3,3.6c0.8,0,1.6-0.5,2.3-0.8V41.5z"/>
</g>
</svg>
