<?xml version="1.0" encoding="UTF-8"?>
<svg id="provider-logo" data-name="provider-logo" xmlns="http://www.w3.org/2000/svg" version="1.1" viewBox="0 0 150 90">
  <defs>
    <style>
      .cls-1 {
        fill: #fff;
        stroke-width: 0px;
      }
    </style>
  </defs>
  <path class="cls-1" d="M77.3,37c0,6.2,5.5,9.7,9.7,11.7,4.3,2.2,5.8,3.5,5.8,5.3,0,2.8-3.5,4.2-6.7,4.2-5.5,0-8.8-1.5-11.3-2.7l-2,9.3c2.7,1.2,7.3,2.2,12.3,2.3,11.7,0,19.3-5.8,19.3-14.7s-15.6-12-15.5-17c0-1.5,1.5-3.2,4.7-3.7,1.7-.2,6-.3,11,2l2-9.2c-2.7-1-6.2-1.8-10.3-1.8-11,0-18.6,5.8-18.6,14.2h-.3ZM125.1,23.7c-2.2,0-4,1.2-4.7,3.2l-16.6,39.6h11.7l2.3-6.3h14.2l1.3,6.3h10.3l-9-42.8h-9.5ZM126.8,35.2l3.3,16.1h-9.2l5.8-16.1ZM63.2,23.7l-9.2,42.8h11.2l9.2-42.8h-11.2M46.9,23.7l-11.5,29.1-4.7-24.8c-.5-2.8-2.7-4.3-5.2-4.3H6.7l-.3,1.2c3.8.8,8.3,2.2,11,3.7,1.7.8,2.2,1.7,2.7,3.8l8.8,34.1h11.7l18-42.8s-11.7,0-11.7,0Z"/>
</svg>