<?xml version="1.0" encoding="utf-8"?>
<!-- Generator: Adobe Illustrator 28.1.0, SVG Export Plug-In . SVG Version: 6.00 Build 0)  -->
<svg version="1.1" id="Layer_1" xmlns="http://www.w3.org/2000/svg" xmlns:xlink="http://www.w3.org/1999/xlink" x="0px" y="0px"
	 viewBox="0 0 150 90" style="enable-background:new 0 0 150 90;" xml:space="preserve">
<path d="M53.4,48.4c1.5,1.6,3.3,2.3,5.4,2.3c0.9,0,1.9-0.2,3.1-0.7l0.2-3.4L52,46.2C52.3,47,52.8,47.7,53.4,48.4z M36,45.6l-1.1,4.7
	h5.4l0.4-2.4h3.5l0.4,2.4H50l-1-4.2L36,45.6z M41.3,30.8l-3.5,14.3l13,0.5l-3.2-14.8H41.3z M43.2,43.4l0.5-3l0.4-2.3
	c0,0,0-0.2,0-0.4s0.1-0.6,0.1-1.1c0-0.3,0.1-0.5,0.1-0.7s0.1-0.4,0.1-0.6l0.2,1.8c0,0.4,0.1,0.7,0.1,0.9s0,0.4,0.1,0.6
	c0.2,1.2,0.2,2,0.3,2.2c0,0.1,0,0.2,0,0.3l0.3,2.2L43.2,43.4z M59.9,45c-0.4-0.2-0.8-0.6-1-1c-0.3-0.5-0.5-1-0.6-1.6
	c-0.2-0.7-0.2-1.4-0.2-2.1c0-1.6,0.3-2.8,0.9-3.7c0.6-0.9,1.4-1.4,2.5-1.4c0.8,0,1.6,0.4,2.4,1.1v-5.5c-0.8-0.3-1.7-0.5-2.5-0.5
	c-2.6,0-4.6,0.9-6.2,2.7c-1.5,1.8-2.3,4.2-2.3,7.2c0,2.1,0.3,3.8,1,5.3L64,45.9l0-1.9c-0.9,0.8-1.8,1.2-2.7,1.2
	C60.8,45.3,60.3,45.2,59.9,45z M82.6,39.6c0.3,0.5,0.6,0.9,1,1.3c0.4,0.5,0.9,0.9,1.4,1.2l0.8,0.6c0.6,0.5,0.9,1,0.9,1.5
	c0,0.3-0.2,0.7-0.4,0.9c-0.3,0.2-0.7,0.4-1.1,0.3c-1.2,0-2.3-0.7-3.3-2.1v3.3l9.2,0.3c0.5-1,0.8-2.1,0.8-3.4c0-1.1-0.2-2.1-0.7-2.9
	c-0.5-0.8-1.2-1.6-2.4-2.4L88,37.8c-0.7-0.5-1-1-1-1.5c0-0.3,0.2-0.6,0.4-0.8c0.3-0.2,0.6-0.4,1-0.3c0.5,0,1,0.2,1.6,0.6
	c0.6,0.4,1.1,0.9,1.4,1.5v-5.8c-1.2-0.6-2.5-1-3.7-1c-1.4,0-2.6,0.4-3.5,1.2c-0.3,0.3-0.7,0.6-0.9,1c-0.8,1.2-1.3,2.6-1.3,4
	c0,0.5,0.1,1,0.2,1.5C82.1,38.7,82.3,39.2,82.6,39.6z M20.6,50.4h5.2v-5.1l-5.2-0.2C20.6,45.1,20.6,50.4,20.6,50.4z M30.1,44.9
	l5.2,0.2V30.8h-5.2v6.7h-2.5v-6.7h-5.2v13.8l5.2,0.2v-2.6h2.5L30.1,44.9L30.1,44.9z M28.2,50.4h5.2v-4.8l-5.2-0.2V50.4z M74.6,30.8
	l-3,8.2l0.1-8.2h-5.2v15.4l5.1,0.2l-0.1-5.3l2.1,5.4l5.4,0.2L75.9,40l4.1-9.2H74.6z M97.2,30.8l-4,16.4l13.9,0.5l-3.6-16.9
	C103.5,30.8,97.2,30.8,97.2,30.8z M99.1,43.4l0.5-3l0.4-2.3c0,0,0-0.2,0-0.4s0.1-0.6,0.1-1.1c0-0.3,0.1-0.5,0.1-0.7s0.1-0.4,0.1-0.6
	l0.2,1.8c0,0.4,0.1,0.7,0.1,0.9s0,0.4,0.1,0.6c0.2,1.2,0.2,2,0.3,2.2c0,0.1,0,0.2,0,0.3l0.3,2.2L99.1,43.4z M110.2,50.4h5l0.3-1.8
	l-5.7-0.2L110.2,50.4z M64.6,46.7v3.7h5.2l-0.1-3.5L64.6,46.7z M124.4,30.8l-0.9,5.9c-0.1,0.8-0.3,1.7-0.4,2.8
	c-0.1,1-0.2,2.2-0.3,3.5c-0.3-2.9-0.7-5.4-1.1-7.6l-0.9-4.6h-4.4l-1,5.5c-0.3,1.6-0.5,3.2-0.7,5l-0.2,1.5l-0.2-1.7
	c-0.1-1.2-0.3-2.8-0.7-4.9l-0.8-5.3h-5.1l3.8,17.1l5.7,0.2L118,43c0.1-0.6,0.2-1.1,0.2-1.6c0.1-0.5,0.1-1,0.2-1.5
	c0.1-0.9,0.2-1.6,0.2-1.9c0,0.2,0,0.4,0.1,0.7c0,0.3,0.1,0.7,0.2,1.2c0.1,0.9,0.3,2.1,0.5,3.4l0.9,5l5.6,0.2l3.6-17.6L124.4,30.8z
	 M118.7,50.4h5l0.3-1.5l-5.6-0.2L118.7,50.4z M100,48l0.4,2.4h5.4l-0.5-2.2L100,48z M80.1,49.9c1.4,0.5,2.7,0.8,3.9,0.8
	c1.8,0,3.2-0.6,4.4-1.8c0.4-0.4,0.7-0.8,0.9-1.3l-9.2-0.3C80.1,47.3,80.1,49.9,80.1,49.9z M71.8,47l1.3,3.4h5.6l-1.5-3.2L71.8,47z
	 M90.8,50.4h5.4l0.4-2.4l-5.1-0.3L90.8,50.4z M29.1,56.7c0,0.3,0,0.6,0,0.9c0,0.3-0.1,0.5-0.2,0.8s-0.3,0.6-0.5,0.9
	c-0.2,0.3-0.5,0.5-0.7,0.6c-0.3,0.2-0.6,0.3-0.9,0.4c-0.3,0.1-0.7,0.2-1,0.2c-0.5,0-0.9-0.1-1.4-0.3c-0.4-0.2-0.8-0.4-1.1-0.7
	c-0.3-0.3-0.5-0.7-0.7-1.1c-0.2-0.5-0.3-0.9-0.3-1.4s0.1-0.9,0.2-1.4c0.2-0.4,0.4-0.8,0.7-1.1s0.7-0.5,1.1-0.7
	c0.5-0.2,0.9-0.3,1.4-0.3c0.6,0,1.2,0.2,1.8,0.4c0.5,0.3,1,0.8,1.2,1.4L27.1,56c-0.1-0.3-0.3-0.6-0.6-0.8C26.3,55,26,55,25.7,55
	c-0.2,0-0.5,0-0.7,0.2c-0.2,0.1-0.4,0.2-0.5,0.4c-0.2,0.2-0.3,0.4-0.3,0.6c-0.1,0.3-0.1,0.5-0.1,0.8s0,0.5,0.1,0.8
	c0.1,0.2,0.2,0.4,0.3,0.6c0.2,0.2,0.3,0.3,0.5,0.4c0.2,0.1,0.5,0.2,0.7,0.2s0.3,0,0.5-0.1c0.2,0,0.3-0.1,0.4-0.2
	c0.1-0.1,0.2-0.2,0.3-0.3c0.1-0.2,0.2-0.3,0.2-0.5h-1.4v-1.3L29.1,56.7L29.1,56.7z M46.4,59.2H44l-0.4,1.1h-1.8l2.5-6.5h1.9l2.5,6.5
	h-1.8L46.4,59.2z M45.9,57.9l-0.8-2.2l-0.8,2.2H45.9z M61.5,60.3l1.1-6.5h1.7l1.3,3.5l1.3-3.5h1.7l1.1,6.5H68l-0.6-3.7l-1.5,3.7
	h-0.7l-1.5-3.7l-0.6,3.7H61.5z M84.9,53.8v6.5h-1.7v-6.5H84.9z M98.8,60.3v-6.5h1.7l3.1,4v-4h1.7v6.5h-1.7l-3.1-4v4H98.8z
	 M122.5,56.7h3.4c0,0.3,0,0.7,0,0.9c0,0.3-0.1,0.5-0.2,0.8s-0.3,0.6-0.5,0.9c-0.2,0.3-0.5,0.5-0.7,0.6c-0.3,0.2-0.6,0.3-0.9,0.4
	c-0.3,0.1-0.7,0.2-1,0.2c-0.5,0-0.9-0.1-1.4-0.3c-0.4-0.2-0.8-0.4-1.1-0.7c-0.3-0.3-0.5-0.7-0.7-1.1c-0.3-0.9-0.3-1.9,0-2.8
	c0.2-0.4,0.4-0.8,0.7-1.1c0.3-0.3,0.7-0.5,1.1-0.7c0.5-0.2,0.9-0.3,1.4-0.3c0.6,0,1.2,0.2,1.8,0.4c0.5,0.3,1,0.8,1.2,1.4L124,56
	c-0.1-0.3-0.3-0.6-0.6-0.8c-0.2-0.2-0.5-0.2-0.8-0.2c-0.2,0-0.5,0-0.7,0.2c-0.2,0.1-0.4,0.2-0.5,0.4c-0.2,0.2-0.3,0.4-0.3,0.6
	c-0.1,0.3-0.1,0.5-0.1,0.8s0,0.5,0.1,0.8c0.1,0.2,0.2,0.4,0.3,0.6c0.2,0.2,0.3,0.3,0.5,0.4c0.2,0.1,0.5,0.2,0.7,0.2s0.3,0,0.5-0.1
	c0.2,0,0.3-0.1,0.4-0.2c0.1-0.1,0.2-0.2,0.3-0.3c0.1-0.2,0.2-0.3,0.2-0.5h-1.4L122.5,56.7z"/>
</svg>
