<?xml version="1.0" encoding="UTF-8"?>
<svg id="provider-logo" data-name="provider-logo" xmlns="http://www.w3.org/2000/svg" version="1.1" viewBox="0 0 150 90">
  <defs>
    <style>
      .cls-1 {
        fill: #fff;
        stroke-width: 0px;
      }
    </style>
  </defs>
  <path class="cls-1" d="M10.3,26.9h4.7l10.4,28.7h-5.4l-2.5-7.1H7.9l-2.5,7.1H-.1s10.4-28.7,10.4-28.7ZM16.3,44.5l-3.7-11.4-3.9,11.4h7.7-.1Z"/>
  <path class="cls-1" d="M34.7,55.6c-1.6,0-3-.2-4.5-.8s-2.8-1.3-3.7-2.4l1.7-3.4c1.1,1,2.2,1.6,3.3,2.1s2.1.7,3.1.7,1.7-.2,2.2-.6c.5-.4.8-1,.8-1.7s-.4-1.3-1-1.7c-.6-.4-1.7-.7-3-1.2-1.2-.4-2.2-.7-3-1.1-.8-.4-1.6-.7-2.1-1.2s-.8-1-1.1-1.6-.4-1.3-.4-2.1.2-2.1.5-2.9c.4-.8.8-1.6,1.6-2.2.6-.6,1.4-1.1,2.3-1.4s1.8-.5,2.9-.5,2.7.2,3.9.7c1.2.5,2.3,1.2,3.3,2.2l-1.9,3.3c-1-.8-1.8-1.4-2.7-1.8s-1.7-.6-2.5-.6-1.4.2-1.9.6c-.5.4-.8,1-.8,1.8s0,.7.2,1c.1.2.4.5.6.6.2.2.6.4,1.1.6.5.1,1,.4,1.7.6,1.2.4,2.3.7,3.3,1.1.8.4,1.6.8,2.2,1.3.6.5,1,1.1,1.2,1.7s.4,1.4.4,2.3c0,2.1-.7,3.7-1.9,5-1.3,1.2-3.1,1.8-5.4,1.8h-.1Z"/>
  <path class="cls-1" d="M56.7,54.2c-.7.4-1.6.6-2.7,1s-2.2.5-3.3.5-1.4,0-2.2-.2c-.6-.2-1.2-.5-1.7-1-.5-.4-.8-1-1.2-1.6-.2-.6-.5-1.4-.5-2.4v-12.2h-2.8v-4.2h2.8v-3.7l5.4-1.8v5.6h4.5v4.2h-4.5v10.4c0,.7.2,1.3.6,1.6.4.4.8.5,1.4.5s1.1,0,1.7-.2c.5-.2,1-.4,1.3-.5l1.1,4.3h-.1Z"/>
  <path class="cls-1" d="M79.6,55.6c-1.7,0-3.3-.2-4.7-.8-1.3-.6-2.5-1.4-3.5-2.4s-1.7-2.2-2.2-3.5c-.5-1.3-.7-2.8-.7-4.2s.2-2.9.7-4.2,1.2-2.5,2.2-3.5c1-1,2.2-1.8,3.5-2.4s2.9-.8,4.7-.8,3.3.2,4.6.8c1.3.6,2.5,1.4,3.5,2.4s1.7,2.2,2.2,3.5c.5,1.3.7,2.8.7,4.2s-.2,2.9-.7,4.2-1.2,2.5-2.2,3.5-2.1,1.8-3.5,2.4c-1.3.6-2.9.8-4.7.8h.1ZM74,44.7c0,1,.1,1.8.5,2.5.2.7.7,1.4,1.2,2.1s1.1,1,1.8,1.3,1.4.5,2.2.5,1.6-.1,2.2-.5c.7-.4,1.2-.7,1.8-1.3.5-.6.8-1.2,1.2-2.1.2-.7.5-1.7.5-2.5s-.1-1.8-.5-2.5c-.2-.7-.7-1.4-1.2-2.1s-1.1-1-1.8-1.3-1.4-.5-2.2-.5-1.6.1-2.2.5c-.7.4-1.2.7-1.8,1.3-.5.6-.8,1.2-1.2,2.1-.2.7-.5,1.7-.5,2.5Z"/>
  <path class="cls-1" d="M92.2,55.6v-28.7h10.9c1.2,0,2.3.2,3.3.8,1,.6,1.8,1.3,2.5,2.2.7,1,1.3,1.9,1.7,3.1.4,1.1.6,2.3.6,3.5s-.2,2.4-.6,3.5-1,2.2-1.6,3c-.7.8-1.6,1.6-2.5,2.2-1,.5-2.1.8-3.3.8h-6v9.7h-5ZM97.2,41.2h5.8c1,0,1.7-.4,2.3-1.2s1-1.9,1-3.4,0-1.3-.2-1.9-.5-1.1-.7-1.4c-.4-.4-.7-.7-1.1-1s-.8-.2-1.3-.2h-5.6v9.3h-.1Z"/>
  <path class="cls-1" d="M117.5,55.6c-.8,0-1.7-.1-2.5-.5-.7-.4-1.4-.8-2.1-1.4s-1-1.3-1.3-2.2c-.4-.8-.5-1.7-.5-2.7s.2-1.9.6-2.8,1-1.6,1.7-2.2,1.6-1.1,2.5-1.4c1-.4,2.1-.5,3.1-.5s1.7,0,2.4.2c.8.1,1.4.4,2.1.7v-1.2c0-1.4-.4-2.5-1.1-3.3-.7-.7-1.7-1.1-3.1-1.1s-1.9.2-2.9.6-1.9,1-2.9,1.8l-1.4-3.5c2.4-1.8,5-2.8,7.7-2.8s4.7.7,6.3,2.3c1.4,1.4,2.2,3.6,2.2,6.5v6.6c0,.6,0,1,.2,1.2s.5.4.8.4v4.6c-.8.2-1.4.2-2.1.2s-1.6-.2-2.1-.7c-.5-.5-.8-1.1-1-1.8v-1.2c-1,1.2-1.9,2.2-3.1,2.9-1.2.6-2.4,1-3.7,1h.1ZM119,51.7c.8,0,1.6-.1,2.3-.5.7-.4,1.3-.7,1.7-1.3.5-.5.7-1,.7-1.6v-2.4c-.6-.2-1.2-.5-1.8-.6s-1.3-.2-1.9-.2c-1.2,0-2.3.4-3,1s-1.2,1.4-1.2,2.4.4,1.7,1,2.3,1.3,1,2.3,1h0Z"/>
  <path class="cls-1" d="M131.3,59.4c.5.1,1,.2,1.3.2h1.1c.2,0,.7,0,1-.2.2-.1.6-.4.8-.7s.5-.8.7-1.4.5-1.3.7-2.2l-8.5-21.3h5.6l5.8,16.5,5.1-16.5h5.1l-8.9,25.5c-.5,1.4-1.4,2.7-2.7,3.6s-2.8,1.4-4.6,1.4-.8,0-1.3,0-1-.2-1.4-.4v-4.7h.2Z"/>
  <path class="cls-1" d="M69,34.2h0c-.6,0-1.2,0-1.8.4-.6.2-1.2.6-1.8,1-.6.5-1.1,1-1.7,1.6-.5.6-1,1.2-1.3,1.9v-4.6h-5v21.3h5.4v-12.8c.6-1.2,1.4-2.2,2.8-2.8,1-.5,2.2-.7,3.4-.8v-5.1h0Z"/>
  <path class="cls-1" d="M17.2,30.6l1.8,5.1s9.3-11,26.4-6.5l4-1.2s-17.8-7.1-32.2,2.7Z"/>
</svg>