<?xml version="1.0" encoding="utf-8"?>
<!-- Generator: Adobe Illustrator 28.1.0, SVG Export Plug-In . SVG Version: 6.00 Build 0)  -->
<svg version="1.1" id="Слой_1" xmlns="http://www.w3.org/2000/svg" xmlns:xlink="http://www.w3.org/1999/xlink" x="0px" y="0px"
	 viewBox="0 0 150 90" style="enable-background:new 0 0 150 90;" xml:space="preserve">
<g>
	<path d="M30.2,45c-1.2,1.6-2.6,3-4,4.3c-4.6,4.1-10,6.6-16.1,7.7c-0.7,0.1-0.7,0.1-1-0.6C7.4,51.7,6.7,46.9,7.2,42
		c0.3-2.9,0.9-5.8,2-8.6c0-0.1,0.1-0.3,0.2-0.4C17.8,34.4,24.7,38.4,30.2,45z"/>
	<path d="M73.2,44.6c0.3,0.1,0.5,0.2,0.7,0.3c2.1,1.1,2.5,4.2,0.8,5.7c-0.8,0.7-1.8,1.1-2.9,1.2C71.2,52,70.6,52,69.9,52
		c-2.3,0-4.6,0-6.8,0c-0.2,0-0.3,0-0.5,0c0-4.7,0-9.5,0-14.2c0.1,0,0.2,0,0.3,0c2.3,0,4.5,0,6.8,0c1,0,2,0.1,2.9,0.5
		c1.3,0.5,2.2,1.4,2.3,2.8c0.1,1.5-0.4,2.6-1.6,3.4C73.3,44.5,73.2,44.6,73.2,44.6z M65.9,49.5c1.5,0,2.9,0,4.4,0
		c0.4,0,0.8-0.1,1.2-0.3c0.6-0.2,0.8-0.7,0.9-1.3c0-0.7-0.2-1.2-0.8-1.5c-0.3-0.1-0.6-0.3-1-0.3c-1.5,0-3.1,0-4.6-0.1
		c0,0,0,0-0.1,0.1C65.9,47.2,65.9,48.4,65.9,49.5z M65.9,43.6c1.3,0,2.6,0,3.9,0c0.3,0,0.7-0.1,1-0.2c0.7-0.3,1.1-1,0.9-1.8
		c-0.2-0.7-0.7-1.1-1.6-1.2c-1.3-0.1-2.7,0-4-0.1c0,0,0,0-0.1,0C65.9,41.4,65.9,42.5,65.9,43.6z"/>
	<path d="M38.1,45.4c0.6,0,1.1,0,1.6,0c0.5-0.1,1.1-0.1,1.6-0.3c0.9-0.4,1.3-1.2,1.3-2.2s-0.5-1.8-1.4-2.2c-0.3-0.1-0.7-0.2-1-0.2
		c-1.1,0-2.1,0-3.2,0c0,3.8,0,7.6,0,11.5c-1.1,0-2.2,0-3.3,0c0-4.7,0-9.4,0-14.1c0.1,0,0.1,0,0.2,0c2.3,0,4.5,0,6.8,0.1
		c1.5,0.1,2.9,0.6,4.1,1.7c1.8,1.8,2,6.2-1.4,7.8c-0.1,0-0.2,0.1-0.3,0.1c0.5,0.8,1.1,1.5,1.6,2.3c0.5,0.7,1,1.5,1.6,2.3
		c-0.1,0-0.2,0-0.3,0c-1,0-2,0-3,0c-0.1,0-0.3-0.1-0.4-0.2c-1.5-2.1-2.9-4.2-4.3-6.2C38.1,45.6,38.1,45.5,38.1,45.4z"/>
	<path d="M57.5,37.8c1.1,0,2.2,0,3.2,0c0,0.1,0,0.1,0,0.2c0,2.8,0.1,5.6,0,8.4c-0.1,2.4-1.1,4.3-3.4,5.3c-1.1,0.5-2.3,0.6-3.5,0.6
		c-0.9,0-1.8-0.2-2.6-0.5c-1.9-0.8-2.9-2.3-3.3-4.3c-0.1-0.6-0.1-1.2-0.1-1.7c0-2.5,0-4.9,0-7.4c0-0.1,0-0.3,0-0.4
		c1.1,0,2.2,0,3.3,0c0,0.2,0,0.3,0,0.5c0,2.4,0,4.8,0,7.1c0,0.6,0.1,1.2,0.2,1.8c0.3,1.4,1.3,2.1,2.7,2.2c0.4,0,0.8,0,1.2-0.1
		c1.3-0.3,1.9-1.2,2.1-2.4c0.1-0.5,0.1-1,0.1-1.5c0-2.4,0-4.8,0-7.2C57.5,38.2,57.5,38,57.5,37.8z"/>
	<path d="M132.2,52c-1.1,0-2.2,0-3.3,0c-0.1,0-0.2-0.2-0.3-0.3c-0.4-0.8-0.7-1.6-1-2.5c-0.1-0.2-0.2-0.3-0.4-0.3c-2,0-4,0-6,0
		c-0.2,0-0.4,0.1-0.4,0.3c-0.3,0.8-0.7,1.6-1,2.4c-0.1,0.2-0.2,0.3-0.4,0.3c-1,0-2,0-3.1,0c0.1-0.2,0.1-0.3,0.1-0.4
		c2-4.5,4-9,6-13.5c0.1-0.3,0.3-0.4,0.6-0.4c0.9,0,1.7,0,2.6,0c0.1,0,0.3,0.1,0.4,0.2c2.1,4.6,4.1,9.2,6.2,13.7
		C132.1,51.8,132.2,51.9,132.2,52z M124.2,41.1c-0.8,1.8-1.5,3.6-2.2,5.4c1.5,0,3,0,4.5,0C125.7,44.7,124.9,42.9,124.2,41.1z"/>
	<path d="M95,40.5c0,3.9,0,7.7,0,11.5c-1.1,0-2.2,0-3.3,0c0-4.7,0-9.4,0-14.1c0.1,0,0.1,0,0.2,0c2.3,0,4.6,0,6.8,0
		c1.4,0,2.8,0.5,3.9,1.5c2.1,1.9,2.3,6.8-1.7,8.3c-1,0.4-2,0.5-3.1,0.5c-0.5,0-1,0-1.6,0c0-0.9,0-1.8,0-2.7c0.5,0,1,0,1.5,0
		c0.4,0,0.8,0,1.2-0.1c1.3-0.3,1.9-1.1,1.8-2.5c0-1.2-0.8-2-2-2.2C97.5,40.5,96.2,40.5,95,40.5z"/>
	<path d="M137.4,52c-1.1,0-2.2,0-3.3,0c0-0.2,0-0.5,0-0.7c0-1.3,0-2.7,0-4c0-0.2-0.1-0.5-0.2-0.6c-1.7-2.9-3.5-5.7-5.2-8.6
		c0-0.1-0.1-0.1-0.1-0.2c0.1,0,0.2,0,0.4,0c0.9,0,1.9,0,2.8,0c0.3,0,0.4,0.1,0.5,0.3c1.1,1.9,2.3,3.8,3.4,5.7
		c0.1,0.1,0.1,0.2,0.2,0.3c0.1-0.2,0.2-0.3,0.3-0.5c1.1-1.8,2.2-3.7,3.3-5.5c0.1-0.2,0.3-0.3,0.5-0.3c0.8,0,1.7,0,2.5,0
		c0.1,0,0.2,0,0.4,0c-0.1,0.2-0.2,0.3-0.2,0.4c-1.7,2.8-3.4,5.6-5.1,8.5c-0.1,0.2-0.2,0.4-0.2,0.6C137.4,48.9,137.4,50.4,137.4,52z"
		/>
	<path d="M75.4,37.8c0.9,0,1.6,0.1,2.4,0s1.3,0.2,1.7,1c0.9,1.7,2,3.3,3,5c0.1,0.1,0.1,0.2,0.2,0.3c0.1-0.1,0.2-0.2,0.2-0.3
		c1.1-1.9,2.3-3.7,3.4-5.6c0.1-0.2,0.3-0.3,0.5-0.3c0.9,0,1.9,0,2.9,0c-0.1,0.2-0.2,0.3-0.3,0.5c-1.7,2.8-3.4,5.6-5.1,8.4
		c-0.1,0.2-0.2,0.5-0.2,0.7c0,1.5,0,3,0,4.6c-1.1,0-2.2,0-3.3,0c0-0.2,0-0.3,0-0.5c0-1.4,0-2.8,0-4.2c0-0.2-0.1-0.5-0.2-0.7
		c-1.7-2.8-3.4-5.7-5.1-8.5C75.5,38.1,75.5,38,75.4,37.8z"/>
	<path d="M105.9,52c0-4.8,0-9.5,0-14.2c1.1,0,2.2,0,3.3,0c0,3.8,0,7.6,0,11.5c2.1,0,4.2,0,6.3,0c-0.3,0.6-0.6,1.1-0.7,1.6
		c-0.3,0.9-0.8,1.1-1.7,1.1c-2.2-0.1-4.5,0-6.7,0C106.3,52,106.1,52,105.9,52z"/>
</g>
</svg>
