<?xml version="1.0" encoding="UTF-8"?>
<svg id="provider-logo" data-name="provider-logo" xmlns="http://www.w3.org/2000/svg" version="1.1" viewBox="0 0 150 90">
  <defs>
    <style>
      .cls-1, .cls-2, .cls-3 {
        isolation: isolate;
      }

      .cls-1, .cls-2, .cls-3, .cls-4, .cls-5 {
        stroke-width: 0px;
      }

      .cls-1, .cls-4, .cls-5 {
        fill: #fff;
      }

      .cls-2 {
        fill: #9e9e9e;
      }

      .cls-2, .cls-3 {
        opacity: .2;
      }

      .cls-3 {
        fill: #383838;
      }

      .cls-4 {
        fill-rule: evenodd;
      }
    </style>
  </defs>
  <path class="cls-2" d="M55.1,34.5v7.8l6.6,3-6.6-10.8Z"/>
  <path class="cls-2" d="M55.1,50.3v5.3l6.6-9.2-6.6,3.8h0Z"/>
  <path class="cls-3" d="M55.1,49.1l6.6-3.8-6.6-3v6.8Z"/>
  <path class="cls-2" d="M48.5,45.2l6.6,3.8v-6.8l-6.6,3Z"/>
  <g>
    <path class="cls-5" d="M12.9,45.1l-.8,3.4c1.1.2,4.3,1.3,4.8-.6.5-2-2.9-2.5-4-2.8Z"/>
    <path class="cls-5" d="M14,40.5l-.7,3.1c.8.2,3.6,1.1,4-.6.5-1.8-2.4-2.3-3.2-2.4h0Z"/>
    <path class="cls-5" d="M17.6,31.2c-7.5-1.9-15.2,2.8-17.1,10.3s2.8,15.2,10.3,17.1c7.5,1.9,15.2-2.8,17.1-10.3,1.9-7.5-2.8-15.2-10.3-17.1ZM20.4,43h0c-.2,1.4-1,2-2,2.3,1.4.7,2.2,1.8,1.4,3.7-.8,2.4-2.9,2.6-5.5,2l-.6,2.5-1.6-.4.6-2.5c-.4,0-.8-.2-1.2-.4l-.6,2.5-1.6-.4.6-2.6c-.4,0-.7-.2-1.1-.2l-2-.5.7-1.8s1.2.4,1.1.2c.5,0,.6-.1.7-.4l1-4.1.7-2.9c0-.4,0-.7-.7-1l-1.1-.2.4-1.7,2.2.5h0c.4,0,.6.1,1,.2l.6-2.5,1.6.4-.6,2.5c.4,0,.8.2,1.2.2l.6-2.5,1.6.4-.6,2.5c1.9.7,3.4,1.7,3.1,3.6l.2.4Z"/>
  </g>
  <g>
    <path class="cls-5" d="M135.9,30.9c-7.8,0-14.1,6.4-14.1,14.1s6.4,14.1,14.1,14.1,14.1-6.4,14.1-14.1-6.4-14.1-14.1-14.1ZM137.7,46.9v6.7h-3.5v-6.7c-4-.2-6.8-1-6.8-1.9s3-1.7,6.8-1.9v-2.2h-4.8v-3.2h13.1v3.2h-4.8v2.2h0c4,.1,6.8,1,6.8,1.9s-2.9,1.7-6.8,1.9Z"/>
    <path class="cls-5" d="M137.7,43.3v2.4h-3.5v-2.4c-3.5.1-6,.7-6,1.4s2.6,1.3,6,1.4h3.5c3.5-.1,6-.7,6-1.4s-2.5-1.3-6-1.4Z"/>
  </g>
  <path class="cls-4" d="M95.2,30.9c-7.8,0-14.1,6.4-14.1,14.1s6.4,14.1,14.1,14.1,14.1-6.4,14.1-14.1-6.4-14.1-14.1-14.1ZM101.6,52.8h-12.8l1.2-4.9-1.8.6.6-2.4,1.8-.7,2.2-8.3h5l-1.6,6.2,2-.7-.6,2.3-2.2.8-1,3.7h7.8l-.7,3.1v.2Z"/>
  <path class="cls-5" d="M54.7,30.9c-7.8,0-14.1,6.4-14.1,14.1s6.4,14.1,14.1,14.1,14.1-6.4,14.1-14.1-6.4-14.1-14.1-14.1ZM55.1,34.3l6.6,10.8h0l-6.6,3.8h0l-6.6-3.8h0l6.6-10.8ZM55.1,55.5h0l-6.6-9.2,6.6,3.8,6.6-3.8-6.6,9.2Z"/>
  <polygon class="cls-1" points="40 45.2 40 45.2 40 45.2 40 45.2"/>
  <polygon class="cls-1" points="33.4 49.1 33.4 49.1 33.4 49.1 33.4 49.1"/>
</svg>