<?xml version="1.0" encoding="utf-8"?>
<!-- Generator: Adobe Illustrator 28.1.0, SVG Export Plug-In . SVG Version: 6.00 Build 0)  -->
<svg version="1.1" id="Слой_1" xmlns="http://www.w3.org/2000/svg" xmlns:xlink="http://www.w3.org/1999/xlink" x="0px" y="0px"
	 viewBox="0 0 150 90" style="enable-background:new 0 0 150 90;" xml:space="preserve">
<g>
	<path d="M65.7,46.5c1-2,2-3.9,2.9-5.9c0.4-0.7,0.9-0.5,1.4-0.5c0.5-0.1,0.8,0.1,1.1,0.5c0.9,1.9,1.9,3.8,2.9,5.7c0-3,0-6,0-9
		c1,0,1.9,0,2.9,0c0,5.1,0,10.1,0,15.3c-0.8,0-1.7,0-2.6,0c-0.2,0-0.5-0.4-0.6-0.5c-1.3-2.4-2.5-4.8-3.7-7.2
		c-0.1-0.2-0.2-0.3-0.4-0.5c-1.4,2.6-2.6,5.1-3.9,7.7c-0.3,0.5-0.5,0.6-1,0.6c-0.7-0.1-1.4,0-2.2,0c0-5.1,0-10.2,0-15.3
		c0.9,0,1.8,0,2.8,0c0,3,0,6.1,0,9.1C65.5,46.5,65.6,46.5,65.7,46.5z"/>
	<path d="M13.7,37.3c2.1,0,4.3,0,6.4,0c0.9,0,1.3,0.3,1.3,1.3c0,4.3,0,8.6,0,12.8c0,0.4-0.3,1-0.5,1.2c-0.2,0.1-0.8-0.2-1.1-0.4
		C15.3,47.8,11,43.4,6.6,39c-0.3-0.3-0.4-0.8-0.3-1.1s0.6-0.5,0.9-0.5C9.3,37.3,11.5,37.3,13.7,37.3z"/>
	<path d="M47.5,37.3c2.2,0,4.4,0,6.5,0c0.4,0,0.9,0.3,1.1,0.5c0.1,0.3-0.1,0.8-0.4,1.1c-4.4,4.4-8.7,8.8-13.2,13.2
		c-0.3,0.3-0.9,0.5-1.1,0.5c-0.3-0.2-0.5-0.7-0.5-1.2c0-4.3,0-8.6,0-12.8c0-1,0.3-1.3,1.3-1.3C43.3,37.3,45.4,37.3,47.5,37.3z"/>
	<path d="M23,44.9c0-2.2,0-4.3,0-6.5c0-0.9,0.3-1.2,1.2-1.2c4.3,0,8.7,0,12.9,0c0.4,0,0.9,0.3,1.1,0.5c0.1,0.2-0.2,0.8-0.5,1
		c-4.3,4.5-8.7,9-13.1,13.3c-0.3,0.3-0.8,0.5-1.1,0.5C23,52.4,23,51.9,23,51.3C23,49.2,23,47.1,23,44.9z"/>
	<path d="M143.7,52.7c-0.7,0-1.4,0.1-2,0c-0.3,0-0.6-0.2-0.8-0.5c-1.7-2.7-3.5-5.5-5.2-8.2c-0.1-0.2-0.2-0.3-0.5-0.6
		c0,3.2,0,6.2,0,9.3c-1,0-1.9,0-2.9,0c0-5.1,0-10.1,0-15.3c0.7,0,1.5,0,2.2,0c0.2,0,0.5,0.3,0.6,0.5c1.7,2.7,3.4,5.4,5.1,8.1
		c0.2,0.2,0.3,0.5,0.6,0.6c0-3,0-6.1,0-9.2c1,0,1.9,0,2.9,0C143.7,42.4,143.7,47.5,143.7,52.7z"/>
	<path d="M105.2,52.7c0-5.2,0-10.2,0-15.4c2.5,0.1,4.9,0,7.3,0.4c2.5,0.4,3.7,2.2,3.9,4.6c0.2,2.1,0.2,4.3-0.2,6.4
		c-0.4,2.6-2.2,4-4.7,4.2C109.4,52.7,107.3,52.7,105.2,52.7z M108.3,50c0.9,0,1.7,0,2.6,0c1.3-0.1,2.2-0.7,2.3-2
		c0.2-1.8,0.2-3.7,0.1-5.6c0-1.1-0.5-2.2-1.8-2.4c-1-0.2-2.1,0-3.2,0C108.3,43.3,108.3,46.6,108.3,50z"/>
	<path d="M122.4,37.4c0.1,0,0.2,0,0.3,0c0.9,0,2-0.3,2.6,0.1c0.5,0.4,0.7,1.5,1,2.4c1.5,4.1,2.9,8.2,4.3,12.3
		c0.1,0.2,0.1,0.4,0.1,0.5c-1,0-1.9,0-2.8,0c-0.2,0-0.5-0.3-0.6-0.5s-0.1-0.4-0.2-0.5c-0.6-1.9-0.6-1.9-2.6-1.9c-0.8,0-1.6,0-2.5,0
		c-0.5,0-0.8,0.2-0.9,0.7c-0.2,0.7-0.5,1.5-0.6,2.2c-1.1,0-2.1,0-3.4,0C118.8,47.5,120.6,42.4,122.4,37.4z M125.5,47
		c-0.5-1.7-1.1-3.5-1.7-5.3c-0.6,1.9-1.2,3.6-1.7,5.3C123.3,47,124.4,47,125.5,47z"/>
	<path d="M92,52.7c-0.9,0-1.8,0-2.7,0c-0.2,0-0.5-0.3-0.6-0.5c0,0-0.1-0.1-0.1-0.2c-0.3-0.7-0.4-1.7-0.9-2.2
		c-0.5-0.4-1.5-0.1-2.3-0.1c-0.6,0-1.4,0-2,0c-0.5,0-0.8,0.2-0.9,0.7c-0.2,0.7-0.5,1.5-0.7,2.2c-1.1,0-2.1,0-3.3,0
		c0.5-1.5,1-3,1.5-4.5c1.2-3.5,2.4-6.9,3.6-10.4c0.1-0.2,0.4-0.4,0.6-0.5c0.1,0,0.2,0,0.3,0c0.7,0,1.6-0.2,2.1,0.1s0.5,1.2,0.8,1.8
		c1.5,4.2,3,8.5,4.5,12.7C91.9,52.1,92,52.4,92,52.7z M87,47c-0.5-1.7-1.1-3.5-1.6-5.1c-0.1,0-0.1,0-0.2,0c-0.5,1.6-1.1,3.4-1.6,5.1
		C84.8,47,85.8,47,87,47z"/>
	<path d="M96.7,50c2.2,0,4.2,0,6.3,0c0,0.9,0,1.7,0,2.6c-3.4,0-6.8,0-10.2,0c-0.1-1.1-0.1-2.1,0.5-3.1c1.7-2.9,3.5-5.8,5.2-8.7
		c0.2-0.3,0.3-0.5,0.5-0.8c-2.1,0-4.1,0-6.1,0c0-0.9,0-1.7,0-2.6c3.3,0,6.7,0,10,0c0.1,1.1,0.1,2.1-0.5,3.1c-1.8,2.9-3.6,6-5.3,9
		C96.9,49.6,96.9,49.8,96.7,50z"/>
</g>
</svg>
