<?xml version="1.0" encoding="UTF-8"?>
<svg id="provider-logo" data-name="provider-logo" xmlns="http://www.w3.org/2000/svg" version="1.1" viewBox="0 0 150 90">
  <defs>
    <style>
      .cls-1 {
        fill: #fff;
        stroke-width: 0px;
      }
    </style>
  </defs>
  <path class="cls-1" d="M110.1,28.7l9.9-1.8v38.2h-9.9s0-36.4,0-36.4ZM124.7,28.7v36.4h9.9V26.9l-9.9,1.8ZM96.1,65.1h9.9v-27.8h-9.9v27.8ZM30.3,41c-1.2,0-4.1-.2-4.1-2.9s4.3-3.1,5.8-3.1c2.7,0,6.4.8,9,1.6,0,0,1.4.6,2.7,1h0v-8.6h0c-2.9-1.2-6.4-2.1-13-2.1-11.3,0-15.2,6.6-15.2,12.1s1.4,10.9,14.2,11.7c1.2,0,3.9.2,3.9,2.9s-2.3,3.5-6.4,3.5-8.6-1.2-11.1-2.1v9c3.9,1,8.2,1.6,13.2,1.6,10.9,0,16-6.2,16-12.3s-5.5-11.5-14.8-12.1h-.2ZM90.5,36.7c-9.1.4-13.8,4.5-13.8,12.7v15.8h10.1v-12.8c0-4.9.6-7,6.4-7.2v-8.2h-2.7v-.2ZM63.4,37.1c-.2.6-1.8,5.1-5.6,9.7v-19.9l-10.3,1.9v36.2h10.3v-11.1c2.9,4.5,4.5,11.1,4.5,11.1h12.3c-1.2-5.1-6.6-14.4-6.6-14.4,4.7-6,6.8-12.5,7.2-13.6h-11.7ZM101,34.3c2.7,0,4.9-2.1,4.9-4.9s-2.1-4.9-4.9-4.9-4.9,2.1-4.9,4.9,2.1,4.9,4.9,4.9Z"/>
</svg>