<?xml version="1.0" encoding="UTF-8"?>
<svg id="Layer_1" data-name="Layer 1" xmlns="http://www.w3.org/2000/svg" version="1.1" viewBox="0 0 150 90">
  <defs>
    <style>
      .cls-1, .cls-2 {
        fill: #000;
        stroke-width: 0px;
      }

      .cls-2 {
        fill-rule: evenodd;
      }
    </style>
  </defs>
  <g>
    <path class="cls-1" d="M19.9,40.1c0,.6,0,1.2.3,1.8.4-.7,1-1.3,1.6-1.8,0-1.8,1.1-3.3,2.7-4,.3.7,1.1,1,1.8.8.5-.2.9-.6,1-1.1.8-.2,1.2-1.1,1-1.9-.2-.8-1.1-1.2-1.9-1,0,0,0,0,0,0-.4-.4-.9-.5-1.5-.3-.7.2-1.1.9-1,1.7-2.4.9-4.1,3.2-4.1,5.8h0Z"/>
    <path class="cls-1" d="M8.6,40.1v-8.2h21.6v8.2c0,1.7-1,3.2-2.5,3.9-1.5.7-3.3.4-4.5-.7-.4.5-.7,1.2-.7,1.8,1.9,1.3,4.3,1.5,6.3.4,2-1.1,3.3-3.1,3.3-5.4v-10.1H6.7v10.1c0,.6.1,1.2.3,1.8.4-.7,1-1.3,1.6-1.8h0Z"/>
    <path class="cls-1" d="M25,52.9c.5.2,1.1,0,1.5-.3.8.2,1.6-.2,1.9-1,0,0,0,0,0,0,.2-.8-.2-1.6-1-1.9-.1-.5-.5-.9-1-1.1-.7-.2-1.5.1-1.8.8-1.6-.6-2.7-2.1-2.7-3.8,0-1.7.8-3.3,2.4-4,1.5-.7,3.3-.5,4.6.6.4-.5.7-1.2.7-1.8-1.9-1.3-4.3-1.5-6.3-.4-2,1.1-3.3,3.1-3.3,5.4,0,2.6,1.6,4.9,4.1,5.8-.1.7.3,1.4,1,1.7ZM18.9,45.4c0-.6,0-1.2-.3-1.8-.4.7-1,1.3-1.6,1.8,0,1.8-1.1,3.3-2.7,4-.3-.7-1.1-1-1.8-.8-.5.2-.9.6-1,1.1-.8.2-1.2,1.1-1,1.9.2.8,1.1,1.2,1.9,1,0,0,0,0,0,0,.4.4.9.5,1.5.3.7-.2,1.1-.9,1-1.7,2.4-.9,4.1-3.2,4.1-5.8ZM14.8,34.3c.1-.7-.3-1.5-1-1.7-.5-.2-1.1,0-1.5.3-.5-.2-1.1,0-1.4.3-.6.6-.6,1.5,0,2.1.2.2.4.3.6.4.2.8,1,1.3,1.8,1.1.4,0,.8-.4,1-.8,1.6.6,2.7,2.1,2.7,3.8,0,1.7-.8,3.3-2.4,4-1.5.7-3.3.5-4.6-.6-.4.5-.7,1.2-.7,1.8,1.9,1.4,4.5,1.5,6.6.3,2.1-1.2,3.2-3.5,3-5.9-.2-2.4-1.8-4.4-4-5.2h0Z"/>
    <path class="cls-2" d="M31.8,43.6c-.4.7-1,1.3-1.6,1.8v8.2H8.6v-8.2c0-1.7,1-3.2,2.5-3.9,1.5-.7,3.3-.4,4.5.7.4-.5.7-1.2.7-1.8-1.9-1.3-4.3-1.5-6.3-.4-2,1.1-3.3,3.2-3.3,5.4v14.6h25.4v-14.6c0-.6,0-1.2-.3-1.8h0ZM11.3,58.4v-1.8s-1,1.9-1,1.9h-.2l-1-1.8v1.8h-.6v-3.2h.3l1.3,2.3,1.3-2.3h.3v3.2c0,0-.5,0-.5,0h0ZM15.2,58.4h.5v-1.8c0-1-.5-1.4-1.3-1.4s-1.3.4-1.3,1.4v1.8h.6v-.8h1.5v.8ZM17.9,58.4c-.4,0-.7-.1-1-.3l.2-.5c.3.2.6.3.9.3.4,0,.6-.2.6-.4s-.1-.3-.7-.6c-.6-.2-.8-.5-.8-.9s.4-.9,1.1-.9c.3,0,.6,0,.9.2l-.2.5c-.2-.1-.5-.2-.7-.2-.3,0-.5.2-.5.4s.2.3.6.5c.7.3.9.6.9,1,0,.6-.4.9-1.2.9,0,0,0,0,0,0ZM19.9,56.8c0,.9.7,1.7,1.8,1.7h0c.4,0,.7,0,1.1-.3l-.2-.5c-.3.1-.6.2-.9.2-.3,0-.6-.1-.8-.3-.2-.2-.3-.5-.3-.8,0-.7.5-1.1,1.2-1.1.3,0,.6,0,.8.2l.2-.5c-.3-.2-.7-.3-1.1-.3-.9,0-1.7.7-1.7,1.7ZM25.2,58.4c-1,0-1.7-.7-1.7-1.7s.2-.9.5-1.2c.3-.3.8-.5,1.2-.5,1,0,1.7.7,1.7,1.7s-.7,1.7-1.7,1.7h0ZM29.2,55.7h1v-.5h-2.7v.5h1.1v2.7h.6v-2.7Z"/>
    <path class="cls-1" d="M14.5,55.7c-.4,0-.8.2-.8.9v.6h1.5v-.6c0-.7-.3-.9-.8-.9ZM25.2,55.6c-.3,0-.6.1-.8.3-.2.2-.3.5-.3.8,0,.4.2.8.5,1,.3.2.8.2,1.1,0,.3-.2.6-.6.5-1,0-.7-.5-1.2-1.1-1.2Z"/>
  </g>
  <g>
    <path class="cls-1" d="M45.7,49.2v-6s0,0,0,0l-2.2,6h-1.4l-2.1-6h0v6s-1.9,0-1.9,0v-8.5h2.9l1.9,5.4h0l1.9-5.4h3v8.5h-2Z"/>
    <path class="cls-1" d="M55.2,49.2l-.7-1.7h-3.3l-.6,1.7h-2.2l3.6-8.5h2l3.5,8.5h-2.3ZM52.9,43l-1.1,2.9h2.1l-1.1-2.9Z"/>
    <path class="cls-1" d="M62.7,43c-.2-.2-.4-.4-.7-.5-.3-.1-.6-.2-.8-.2s-.3,0-.4,0c-.1,0-.3,0-.4.1-.1,0-.2.2-.3.3s-.1.2-.1.4,0,.3,0,.4c0,0,.1.2.3.3.1,0,.3.1.4.2.2,0,.3.1.5.2.3,0,.6.2.9.3.3.1.6.3.9.5.3.2.5.4.6.7s.3.6.3,1.1,0,.9-.3,1.3c-.2.4-.4.6-.7.9-.3.2-.7.4-1,.5-.4.1-.8.2-1.2.2-.6,0-1.2-.1-1.8-.3-.6-.2-1-.5-1.4-.9l1.3-1.4c.2.3.5.5.8.6.3.2.7.3,1,.3s.3,0,.4,0c.1,0,.3,0,.4-.2.1,0,.2-.2.3-.3s0-.3,0-.4,0-.3-.1-.4c0-.1-.2-.2-.3-.3-.1,0-.3-.2-.6-.3-.2,0-.5-.2-.8-.2-.3,0-.5-.2-.8-.3-.3-.1-.5-.3-.7-.5-.2-.2-.4-.4-.5-.7-.1-.3-.2-.6-.2-1s0-.9.3-1.2c.2-.3.4-.6.8-.8s.7-.4,1.1-.5c.4-.1.8-.2,1.2-.2s1,0,1.5.3c.5.2.9.4,1.3.8l-1.3,1.4Z"/>
    <path class="cls-1" d="M71.4,49.1c-.6.3-1.2.4-1.9.4s-1.3-.1-1.8-.3c-.6-.2-1-.5-1.4-.9-.4-.4-.7-.9-1-1.4-.2-.6-.3-1.2-.3-1.8s.1-1.3.4-1.8c.2-.6.6-1,1-1.4.4-.4.9-.7,1.5-.9.6-.2,1.2-.3,1.8-.3s1.2.1,1.8.3c.6.2,1,.5,1.4.9l-1.4,1.4c-.2-.3-.4-.5-.8-.6-.3-.1-.6-.2-1-.2s-.7,0-1,.2-.6.3-.8.5c-.2.2-.4.5-.5.8-.1.3-.2.7-.2,1s0,.7.2,1.1c.1.3.3.6.5.8.2.2.5.4.8.5.3.1.6.2,1,.2s.8,0,1.1-.2c.3-.2.5-.4.7-.6l1.4,1.3c-.4.4-.8.8-1.4,1Z"/>
    <path class="cls-1" d="M82.3,45c0,.7-.1,1.3-.3,1.8-.2.6-.6,1-1,1.4-.4.4-.9.7-1.5.9-.6.2-1.2.3-1.8.3s-1.3-.1-1.8-.3c-.6-.2-1.1-.5-1.5-.9-.4-.4-.7-.9-1-1.4-.2-.6-.3-1.2-.3-1.8s.1-1.3.3-1.8c.2-.5.6-1,1-1.4.4-.4.9-.7,1.5-.9.6-.2,1.2-.3,1.8-.3s1.3.1,1.8.3c.6.2,1.1.5,1.5.9.4.4.7.9,1,1.4.2.5.3,1.2.3,1.8ZM80.1,45c0-.4,0-.7-.2-1-.1-.3-.3-.6-.5-.8-.2-.2-.5-.4-.8-.5s-.6-.2-1-.2-.7,0-1,.2-.6.3-.8.5c-.2.2-.4.5-.5.8-.1.3-.2.7-.2,1s0,.7.2,1.1c.1.3.3.6.5.8.2.2.5.4.8.5s.6.2,1,.2.7,0,1-.2.6-.3.8-.5c.2-.2.4-.5.5-.8.1-.3.2-.7.2-1.1Z"/>
    <path class="cls-1" d="M87,42.5v6.7h-2.1v-6.7h-2.4v-1.8h6.9v1.8h-2.4Z"/>
    <path class="cls-1" d="M99.1,49.3c-.6.1-1.2.2-1.8.2s-1.3-.1-1.9-.3c-.6-.2-1.1-.5-1.5-.9-.4-.4-.7-.9-1-1.4-.2-.5-.3-1.2-.3-1.8s.1-1.3.4-1.8c.2-.6.6-1,1-1.4.4-.4.9-.7,1.5-.9.6-.2,1.2-.3,1.8-.3s1.3.1,1.9.3,1,.5,1.4.8l-1.3,1.5c-.2-.2-.5-.4-.8-.6-.3-.1-.7-.2-1.1-.2s-.7,0-1,.2-.6.3-.8.6c-.2.2-.4.5-.5.8s-.2.7-.2,1.1,0,.8.2,1.1.3.6.5.8.5.4.8.6c.3.1.7.2,1.1.2s.5,0,.7,0c.2,0,.4,0,.6-.2v-1.5h-1.6v-1.7h3.5v4.5c-.4.2-.9.4-1.5.5Z"/>
    <path class="cls-1" d="M108,49.2l-.7-1.7h-3.3l-.6,1.7h-2.2l3.6-8.5h2l3.5,8.5h-2.3ZM105.7,43l-1.1,2.9h2.1l-1.1-2.9Z"/>
    <path class="cls-1" d="M118.7,49.2v-6s0,0,0,0l-2.2,6h-1.4l-2.1-6h0v6s-1.9,0-1.9,0v-8.5h2.9l1.9,5.4h0l1.8-5.4h3v8.5h-2Z"/>
    <path class="cls-1" d="M122.4,49.2v-8.5h2.1v8.5h-2.1Z"/>
    <path class="cls-1" d="M131.7,49.2l-3.4-5.6h0v5.6s-1.9,0-1.9,0v-8.5h2.3l3.4,5.5h0v-5.5s1.9,0,1.9,0v8.5h-2.3Z"/>
    <path class="cls-1" d="M141.8,49.3c-.6.1-1.2.2-1.8.2s-1.3-.1-1.9-.3c-.6-.2-1.1-.5-1.5-.9-.4-.4-.7-.9-1-1.4-.2-.5-.3-1.2-.3-1.8s.1-1.3.4-1.8c.2-.6.6-1,1-1.4.4-.4.9-.7,1.5-.9.6-.2,1.2-.3,1.8-.3s1.3.1,1.9.3,1,.5,1.4.8l-1.3,1.5c-.2-.2-.5-.4-.8-.6-.3-.1-.7-.2-1.1-.2s-.7,0-1,.2-.6.3-.8.6c-.2.2-.4.5-.5.8s-.2.7-.2,1.1,0,.8.2,1.1.3.6.5.8.5.4.8.6c.3.1.7.2,1.1.2s.5,0,.7,0c.2,0,.4,0,.6-.2v-1.5h-1.6v-1.7h3.5v4.5c-.4.2-.9.4-1.5.5Z"/>
  </g>
</svg>