<?xml version="1.0" encoding="UTF-8"?>
<svg id="provider-logo" data-name="provider-logo" xmlns="http://www.w3.org/2000/svg" version="1.1" viewBox="0 0 150 90">
  <defs>
    <style>
      .cls-1 {
        fill: #fff;
        stroke-width: 0px;
      }
    </style>
  </defs>
  <path class="cls-1" d="M141.5,38c-.2-1-.6-1.7-1.2-2.4-.9-.9-1.8-1.5-2.9-1.8-1.1-.5-2.3-.7-3.5-.9h-12.3c-.1,1-.4,1.8-.5,2.8-.4,2.3-.9,4.6-1.3,7.1-.4,2.1-.7,4.1-1.1,6.2-.1.9-.4,1.8-.5,2.7q0,.2-.4.2h-11.9c0-.2,0-.6.1-.9.2-1,.4-2.1.6-3q0-.2.2-.2h6.8q.4,0,.4-.4c.2-1.5.5-2.9.7-4.4q0-.2-.1-.2h-6.8q-.4,0-.2-.4c.2-1.2.5-2.4.6-3.6q0-.4.4-.4h6.9c2.3,0,.1,0,.2,0s.2,0,.2-.2c0-.7.2-1.3.4-2.1.2-1,.4-2.1.6-3v-.2h-15.6c0,.4,0,.7-.1,1.1-.2,1.2-.5,2.4-.6,3.6-.2,1.3-.5,2.8-.7,4.3-.4,1.7-.6,3.4-1,5-.2,1.2-.5,2.6-.7,3.8q0,.2-.2.2h-5.2q-.2,0-.2-.2c.4-1.7.6-3.5,1-5.2.4-1.7.6-3.4,1-5,.4-1.8.6-3.5,1-5.4.1-.6.2-1.3.4-1.9h0c0-.1-8.1-.1-8.1-.1-.4,2.1-.7,4.1-1.2,6.3-.4,1.9-.7,3.9-1.1,5.8-.4,1.8-.7,3.8-1.1,5.6q0,.2-.2.2h-5.1q-.2,0-.2-.2c.4-2.3.9-4.5,1.2-6.8.5-2.3.9-4.6,1.3-6.9.2-1.2.5-2.4.7-3.8v-.2h-8.1c0,.4,0,.7-.1,1.1-.2,1.1-.4,2.2-.6,3.3-.2,1.5-.5,2.8-.7,4.3s-.6,2.9-.9,4.5-.6,3.2-.9,4.6c0,.4-.1.7-.2,1.1q0,.1-.2.1h-11.8q-.4,0-.2-.4c.2-1.2.5-2.4.6-3.6,0-.2.1-.2.4-.2h7.1s.1,0,.2-.1c.2-1.6.6-3,.9-4.6h-7.2q-.4,0-.2-.4c.2-1.2.5-2.6.7-3.8,0-.1,0-.2.2-.2h7.4c.1,0,.2,0,.2-.2,0-.5.1-1,.2-1.5.2-1.2.5-2.4.6-3.6v-.2H21c0,.5-.1,1-.2,1.5-.4,1.7-.6,3.4-1,5.1-.2,1.5-.5,3-.9,4.5-.2,1.2-.5,2.4-.6,3.6v.2h0c-1-2.7-1.9-5.4-2.9-8-.7-2.2-1.6-4.3-2.3-6.4v-.2H4.7c0,.6-.2,1.2-.4,1.9-.4,2.1-.7,4.1-1.1,6.1-.4,2.1-.7,4.1-1.1,6.2-.4,1.9-.7,3.9-1.1,6-.2,1.3-.5,2.7-.7,4v.2s0,.2.1.1h7.9v-.4c.2-1.6.5-3,.9-4.6.2-1.7.6-3.3.9-5,.2-1.6.5-3,.9-4.6v-.7h0c.4,1.1.7,2.1,1.1,3.2.9,2.6,1.8,5.1,2.7,7.7.5,1.3,1,2.7,1.3,4v.4h28.8c0-.4,0-.7.2-1.1.2-1.6.6-3.2.9-4.7.2-1.6.6-3.2.9-4.7.2-1.3.5-2.8.7-4.1.2-1.3.5-2.7.7-4q0-.2.2-.2h4s.1,0,.1.1c0,.2,0,.5-.1.7-.4,2.1-.7,4.1-1.1,6.2-.4,2.1-.7,4.1-1.1,6.1-.2,1.3-.5,2.8-.7,4.1,0,.5-.1,1-.2,1.5h75.8c0-.4,0-.7.1-1.1.2-1.2.5-2.4.6-3.6.4-1.7.6-3.4,1-5,0-.6.2-1.3.4-1.9h0c.6,1.9,1.1,3.8,1.6,5.6.6,1.9,1.2,4,1.8,6h8c-.2-.7-.6-1.6-.9-2.3-.9-2.4-1.8-4.7-2.7-7.2q0-.2.2-.4c.7-.1,1.5-.4,2.2-.6,1.9-.9,3.2-2.3,3.8-4.4.2-.7.2-1.5.4-2.2,0-.7,0-1.5-.1-2.2h0ZM40.1,38.5c0,.4-.1.9-.2,1.2-.2,1.2-.5,2.4-.7,3.6-.2,1.3-.5,2.8-.7,4.1-.2,1.2-.5,2.6-.7,3.8q0,.2-.2.2h-12c.1-1,.4-1.9.5-2.9,0-.4.1-.7.2-1.1q0-.2.4-.2h7.1q.4,0,.5-.4c.2-1.3.5-2.7.7-4v-.4q0-.1-.1-.1h-7.1c-.2,0-.3-.1-.2-.4.2-1.2.4-2.4.6-3.6q0-.2.4-.2h11.7q.2,0,.2.2h-.1ZM133.5,42c-.4.7-.9,1.3-1.6,1.7-.6.2-1.1.4-1.7.5h-2.6c-.2,0-.2,0-.2-.2,0-.5.2-1.1.2-1.6.2-1.5.5-2.8.9-4.3,0-.2.2-.4.5-.4h1.7c.5,0,1.1.1,1.6.4,1,.4,1.6,1.3,1.6,2.3s0,1.1-.2,1.6h-.1Z"/>
  <path class="cls-1" d="M147.3,53.7h.2c.7-.2.9-1.2.4-1.7s-.5-.2-.7-.2h-1.7c-.2,0-.4.1-.4.4,0,.4,0,0,0,0v3q0,.4.4.2t.2-.2v-1.5h.4c.5,0,.9,0,1.1.4s.5.7.7,1c0,0,0,.1.1.1h.6c-.5-.6-.7-1.2-1.3-1.7v.2ZM147,53.3h-1q-.2,0-.2-.2v-.7q0-.2.2-.2h1.3c.2,0,.5.2.5.5s0,.5-.4.6h-.5Z"/>
  <path class="cls-1" d="M150,52.6c-.5-1.8-2.3-2.9-4.1-2.6-1.8.4-3.2,2.1-2.9,4,.2,1.5,1.1,2.4,2.4,2.9.1,0,.4,0,.5.1h1.2c.2,0,.6-.1.9-.2,1.1-.5,1.7-1.3,2.1-2.4v-1.8ZM146.6,56.6c-1.5,0-2.9-1.2-2.9-2.9s1.3-2.9,3-2.9,3,1.5,2.9,2.9c0,1.6-1.3,3-2.9,2.9h-.1Z"/>
</svg>