<?xml version="1.0" encoding="UTF-8"?>
<svg id="_Слой_1" data-name="Слой 1" xmlns="http://www.w3.org/2000/svg" version="1.1" viewBox="0 0 150 90">
  <defs>
    <style>
      .cls-1 {
        fill: #000;
        stroke-width: 0px;
      }
    </style>
  </defs>
  <path class="cls-1" d="M59.4,45.7c-1.3,0-2.2,1-2.2,2.2s1,2.3,2.2,2.3,2.2-1,2.2-2.3-.9-2.2-2.2-2.2Z"/>
  <path class="cls-1" d="M42.2,43.1h-1.5v3.1h1.5c.9,0,1.5-.7,1.5-1.6s-.6-1.5-1.5-1.5Z"/>
  <path class="cls-1" d="M86.1,45.7c-1.3,0-2.2,1-2.2,2.2s1,2.3,2.2,2.3,2.2-1,2.2-2.3-1-2.2-2.2-2.2Z"/>
  <path class="cls-1" d="M119.5,29.3l-4.8,5.2H32.3c-1.3,0-2.3,1-2.3,2.3v21.6c0,1.3,1,2.3,2.3,2.3h85.4c1.3,0,2.3-1.1,2.3-2.3v-29.1h-.5ZM42.6,49.3h-1.9v3.5h-3.5v-12.8h5.5c2.7,0,4.8,1.9,4.8,4.6s-2,4.7-4.8,4.7ZM52.2,52.8h-3.4v-13.5h3.4v13.5ZM64.8,52.8h-2.6l-.3-.7c-.8.7-1.8,1-3,1-3,0-5.2-2.2-5.2-5.3s2.2-5.3,5.2-5.3,2.2.4,3,1.1l.4-.8h2.5v9.9ZM73.6,52.8h-2.3c-2.2,0-3.5-1.3-3.5-3.5v-3.7h-1.8v-.8l4.4-4.8h.7v2.9h2.5v2.6h-2.4v3.2c0,.7.4,1.1,1.2,1.1h1.3v3ZM78.6,52.8h-3.4v-9.9h3.4v9.9ZM78.6,41.7h-3.4v-2.9h3.4v2.9ZM86.6,53.2c-.9,0-1.7-.3-2.4-.7v3.9h-3.4v-13.5h2.3l.5.8c.8-.7,1.8-1.1,3-1.1,3,0,5.2,2.2,5.2,5.3s-2.1,5.3-5.2,5.3ZM103,48.6c0,2.8-2,4.6-4.9,4.6-2.9,0-4.9-1.8-4.9-4.6v-5.6h3.4v5.5c0,1.1.6,1.7,1.5,1.7s1.5-.6,1.5-1.7v-5.5h3.4v5.6ZM108.8,53.1c-2.7,0-4.3-1.4-4.4-3.5h3.3c0,.7.5,1.1,1.2,1.1s1-.3,1-.8-.8-.8-1.7-.9c-1.5-.3-3.5-.7-3.5-3.1s1.7-3.3,4.2-3.3,4.1,1.4,4.1,3.3h-3.2c0-.6-.4-.9-1.1-.9s-.9.3-.9.7.8.7,1.7.9c1.6.3,3.6.6,3.6,3.1s-1.8,3.4-4.3,3.4Z"/>
</svg>