<?xml version="1.0" encoding="UTF-8"?>
<svg id="provider-logo" data-name="provider-logo" xmlns="http://www.w3.org/2000/svg" version="1.1" viewBox="0 0 150 90">
  <defs>
    <style>
      .cls-1 {
        fill: #fff;
        stroke-width: 0px;
      }
    </style>
  </defs>
  <path class="cls-1" d="M30.3,43.1v-.8c0-.4,0-.6-.2-1-.4-.8-1-1.3-1.8-1.6-.4,0-.6-.1-1-.1h-5.2c-.5,0-1,.4-1.4.6-.2.1-.4.4-.5.6s-.2.5-.4.8c-.1.5-.1,1-.1,1.4v14.5h3v-4.8h4.5c.4,0,.8-.1,1.2-.4.2-.1.5-.4.7-.6.6-.6.8-1.3.8-2.1v-6.5h.4ZM27,46.1v2.8c-.1.2-.4.5-.7.5h-2.8c-.2,0-.4-.2-.5-.6v-5.3c0-.4.2-.5.6-.6h3c.2,0,.5.2.5.5v2.8h-.1Z"/>
  <path class="cls-1" d="M13.7,38.4c0-.4,0-.8-.2-1.2-.6-2.3-2.4-4-4.6-4.6-.4,0-.7-.1-1.1-.2h-1.8c-1.6.4-2.8,1.1-3.9,2.3-.7.8-1.2,1.9-1.4,3.1v1.7h0c.2-.2.6-.4,1-.6.2,0,.5-.1.7-.2h0c0-.2,0-.5.2-.6.7-2.1,2.8-3.4,5-3.1.7,0,1.3.2,1.9.5,1.3.7,2.2,1.7,2.5,3.1q0,.2.2.2c.6.1,1.1.4,1.6.7h0v-1.2h-.1Z"/>
  <path class="cls-1" d="M88.3,38.5c0-.2.2-.5.5-.5h1.6q.2,0,.2-.2v-2.9q0-.2-.2-.2h-2.5c-.7,0-1.3.4-1.9.8-.5.4-.7.8-.8,1.3v15.7q0,.2.2.2h2.9v-9.4q0-.2.2-.2h1.8c.2,0,.2,0,.2-.2v-2.9h-2.1v-1.4Z"/>
  <path class="cls-1" d="M14.1,42.2c0-.4-.1-.7-.2-1.1-.4-.7-.8-1.2-1.6-1.4-.4-.1-.8-.1-1.2-.1H2.7c-.6,0-1.1.4-1.6.7l-.2.2c-.2.4-.4.7-.5,1.1,0,.2,0,.5-.1.7v8c0,.4.2.7.5,1.1,0,0,.1.2.2.4.6.5,1.3.8,2.2.8h7.9c2.7,0,.7,0,1.1,0,.5-.1,1-.4,1.3-.7.2-.4.5-.7.6-1.1.1-.5.2-1,.2-1.6v-7h-.2Z"/>
  <path class="cls-1" d="M43.4,41.6c-.1-.5-.4-1-.8-1.3-.4-.2-.7-.5-1.2-.6-.4,0-.8-.1-1.2-.1h-7.1q-.2,0-.2.2v2.8c0,.8,0,0,0,.1h0q0,.1.1.1h6.8c.1,0,.2.2.4.4v.4c0,.4,0,.2-.2.2h-4.3c-.4,0-.7,0-1.1.2-.8.2-1.3.8-1.6,1.6-.1.4-.2.8-.2,1.2v2.8c0,.4,0,.6.1,1,0,.5.4.8.7,1.2.4.2.7.5,1.1.6.5.1,1,.2,1.4.2h4.7c.4,0,.7-.1,1.1-.4.5-.4,1-.7,1.2-1.3.2-.5.4-1,.4-1.6v-6.9c0-2.3,0-.7-.1-1.1l.2.2ZM40.3,48.6v.2c0,.2-.1.4-.4.4h-3c-.2,0-.5,0-.7-.4,0,0-.1-.2-.1-.4v-1.1h0c0-.4.1-.5.5-.5h3c.4,0,.5.4.5.6v1h.2Z"/>
  <path class="cls-1" d="M102.9,41.4c-.2-1-.8-1.4-1.8-1.8-.4,0-.7-.1-1.1-.1h-4.8c-.4,0-.8,0-1.2.2-.6.2-1.1.7-1.3,1.3-.2.5-.2,1-.2,1.4v8c0,.4.4.7.6,1.1.4.5.8.7,1.4.8h8.1q.2,0,.2-.2v-2.9q0-.2-.2-.2h-6.4c-.1,0-.2,0-.4-.2h0c-.1-.4-.2-.6-.1-.8h0c1-.4,2.1-.8,3-1.2,1.3-.5,2.7-1.1,4-1.6h0v-2.5c0-.4,0-.8-.2-1.2h.5ZM99.7,43.6c-.1,0-.4.1-.5.2-1.1.4-2.2.8-3.3,1.2h-.2v-1.3c0-.2,0-.4.2-.5.2-.2.5-.4.8-.4h2.2c.7,0,.4,0,.5,0s.2.2.2.5h0v.2Z"/>
  <path class="cls-1" d="M63,43h6.2q.2,0,.2-.2v-2.9q0-.2-.2-.2h-6.8c-.4,0-.8,0-1.2.2-.7.2-1.2.7-1.4,1.4-.1.4-.2.7-.2,1.1v2.7c0,.5.1,1,.5,1.3.1.2.4.4.6.6.6.5,1.3.8,2.2.8h2.8c.2,0,.4,0,.5.2.2.2.1.6,0,1h0c0,.1-.2.2-.4.4h-5.9q-.2,0-.2.2v2.9q0,.2.2.2h6.6c2.3,0,.6,0,.8,0,.4,0,.6-.1.8-.4.6-.5,1-1,1.3-1.7,0-.2.1-.5.1-.8v-2.4c0-.7,0-.4,0-.6-.1-.7-.6-1.3-1.2-1.8-.5-.4-1.1-.5-1.6-.5h-3.5c-.2,0-.4-.2-.4-.5v-.4c0-.2,0-.4.4-.5l-.2-.2Z"/>
  <path class="cls-1" d="M56.6,39.6h-2.7c-.4,0-.2,0-.2.2v8.7c0,.1,0,.2-.1.4-.2.2-.5.5-.8.5h-2.4c-.4,0-.7-.2-.7-.6v-8.9q0-.2-.2-.2h-2.8q-.2,0-.2.2v10.4c0,.5.4,1,.7,1.3s1,.8,1.6,1h5v.7c0,.1,0,.4-.2.5-.1.2-.4.4-.6.4h-6.4q-.2,0-.2.2v2.9h8c.6,0,1.1-.4,1.4-.7.5-.4.7-1,.8-1.4.1-.5.2-1,.2-1.4v-14.1q0-.2-.2-.2l.2.4Z"/>
  <path class="cls-1" d="M136.8,39h-1.7c-.4,0-.7,0-1,.1-.7.1-1.2.5-1.7,1-.4.4-.6.8-.7,1.4,0,.5-.2,1-.2,1.6v10h1.1s.4,0,.5-.1c.2-.1.2-.4.2-.6v-10c0-.4,0-.6.2-.8.1-.4.4-.6.6-.7.1,0,.4-.1.5-.2h2.3v-1.7h-.1Z"/>
  <path class="cls-1" d="M128.6,43.2v-.7c0-.5-.2-1.1-.5-1.6-.2-.5-.6-1-.8-1.2-.4-.4-.8-.6-1.3-.6h-8.3c-.5,0-.5.4-.5.6v.6c0,.4.2.5.5.6h8c.2,0,.4.1.6.2.2.2.5.5.6.8s.2.6.2,1.1v.4h-6.4c-.5,0-1,0-1.4.2-.7.2-1.2.7-1.6,1.3-.2.4-.4.7-.4,1.1s-.1.8-.1,1.3v2.4c0,.5.1.7.2,1.1.4,1,1.1,1.6,2.1,1.9.5.2,1,.2,1.6.2h4.7c1.1-.2,1.8-.7,2.4-1.7.2-.4.4-.7.4-1.1v-7.1h.1ZM126.9,49.5c0,.4,0,.7-.1,1-.1.4-.5.7-.8.8-.2,0-.6.1-1,.1h-3.9c-.6,0-1.1-.2-1.6-.6-.1,0-.2-.2-.4-.4,0,0,0-.2-.1-.2v-3c0-.2,0-.6.1-.8.2-.6.7-1,1.3-1.2h6.6v4.3h-.2Z"/>
  <path class="cls-1" d="M149.3,34.6h-.5c-.4,0-.6.2-.6.6v3.7h-5.7c-.6,0-1.1,0-1.6.2-.6.2-1.2.5-1.6,1-.4.4-.6.8-.8,1.4-.1.5-.2,1.1-.2,1.7v5.9c0,.5,0,1,.1,1.3.2,1,.8,1.8,1.8,2.3.2.1.5.2.8.2s.8.1,1.3.1h3.9c.5,0,1-.1,1.3-.2,1-.4,1.7-1.1,2.1-2.1.2-.6.4-1.2.4-1.8v-13.8c0-.4-.2-.6-.6-.6h-.1ZM148.2,49v1c0,.2-.2.5-.4.7,0,0-.1.1-.2.2-.4.4-.8.5-1.4.6h-3.6c-.5,0-.8,0-1.3-.2-.1,0-.2,0-.4-.1-.4-.1-.5-.4-.6-.7,0-.2,0-.5-.1-.7v-6.8c0-.2,0-.5.1-.8,0-.1.1-.4.2-.5.1-.1.2-.4.5-.5.2-.1.4-.2.6-.4h6.8v8.2h-.1Z"/>
  <path class="cls-1" d="M82.2,41.6c-.1-.5-.4-1-.8-1.4-.4-.2-.7-.5-1.2-.6-.4,0-.8-.1-1.2-.1h-7.1q-.2,0-.2.2v2.9h0v.2h6.8c.2,0,.5.2.5.6v.2q0,.1-.1.1h-4.8c-.4,0-.7.1-1.1.2-.6.2-1,.7-1.2,1.2s-.2,1-.2,1.4v3.9c0,.5.4.8.7,1.2.4.2.7.5,1.1.6.5.1,1,.2,1.6.2h4.7c.4,0,.7-.1,1.1-.4.5-.2.8-.7,1.1-1.2.2-.5.4-1.1.4-1.7v-7.9h.2ZM79.1,48.8c0,.4-.2.6-.5.6h-2.8c-.2,0-.5,0-.7-.4,0,0-.1-.2-.1-.4v-1.3c0-.1.1-.2.4-.4h3.4c.4,0,.5.4.5.6v1.1h-.1Z"/>
  <path class="cls-1" d="M114.6,51.5h-5.7c-.4-.1-.6-.2-.8-.5s-.4-.5-.5-.8c0-.4-.1-.7-.1-1.2v-7c0-.2.2-.5.4-.7.1,0,.2-.2.5-.2.4-.1.7-.2,1.2-.2h5.6v-1.7h-6c-.2,0-.6,0-1,.1-.6.2-1.1.6-1.6,1.1-.4.4-.6.8-.7,1.4v7.5c0,.5,0,.8.2,1.3.2.8.7,1.4,1.3,1.9.4.2.7.5,1.1.5.5.1,1,.2,1.6.2h4.6c.2,0,.5-.2.5-.6v-.5c0-.5-.4-.6-.6-.6h.1Z"/>
</svg>