<?xml version="1.0" encoding="UTF-8"?>
<svg id="provider-logo" xmlns="http://www.w3.org/2000/svg" version="1.1" viewBox="0 0 150 90">
  <!-- Generator: Adobe Illustrator 29.2.1, SVG Export Plug-In . SVG Version: 2.1.0 Build 116)  -->
  <g>
    <g>
      <g>
        <path d="M42.4,29.1v5.1c.8-1,1.7-1.8,3-2.1,8.6-2.2,10.7,12.1,5.4,15.8-4.2,2.8-12.7.9-12.7-5.1v-15.2h2.7c.9,0,1.6.7,1.6,1.6h0ZM45.4,35.8c-3.2.4-3.3,4.8-2.6,7.2s2.2,2.8,4.1,2.2,2.6-4.1,2.4-6.2-1.8-3.6-3.8-3.3Z"/>
        <path d="M58.9,29.1v18.1c0,.9-.7,1.6-1.6,1.6h-1.2c-.9,0-1.6-.7-1.6-1.6v-18.1c0-.9.7-1.6,1.6-1.6h1.2c.9,0,1.6.7,1.6,1.6h0Z"/>
        <g>
          <path d="M90.1,41.7h-10.6c-.1,2.6,1.9,4.3,4.5,3.5s1.8-1.6,2.1-1.6h3.8c-.5,2.5-2.5,4.6-5,5.2-4.9,1.2-9-1.2-9.8-6.2-.8-4.9,1-10.3,6.6-10.7s6.9,1.4,8,5.1c.1.4.4,1.5.4,1.9v2.8ZM79.5,38.8h6.1c-.1-1.3-.5-2.5-1.8-3s-3.3,0-4,1.5-.5,1.4-.3,1.6Z"/>
          <path d="M64.3,32.3v11.3s.3.7.3.8c.8,1.6,3.8,1.6,4.8.2s.5-1.1.5-1.7c.2-2.9-.2-6,0-9,0-.4.6-1.1,1-1.3s.6-.3.7-.3h2.7v11.3c0,.4-.4,1.8-.6,2.2-1.2,2.8-5.3,3.7-8,3.3s-4-1.2-4.8-2.6-1-2.2-1-2.9v-11.3h4.4Z"/>
        </g>
      </g>
      <g>
        <path d="M90.7,37.9c.6-5.7,8.2-7.5,12.5-4.8s3.8,9.4,1.8,12.8c-2,3.4-6.1,4.4-9.3,1.9l-.7-.9v6.3c0,.3-.6,1-.8,1.2s-.9.5-1,.5h-2.5v-16.9ZM97.6,35.8c-1.4.2-2.1,1.5-2.4,2.8-.6,2.9,0,7.2,3.9,6.7s2.6-2.1,2.7-3.5c.3-3-.4-6.6-4.2-6Z"/>
        <g>
          <g>
            <path d="M142.7,29.5v2.9h2.5c.1,1.1-.2,2.5-1.4,2.9s-1,0-1,.1,0,.3,0,.5c0,2.9,0,5.9,0,9,0,.2.4.5.5.5h2v3.3s-.7,0-.9.1c-1.2,0-2.6,0-3.8-.2s-2.1-1.2-2.2-2.5v-18.7h2.8c.9,0,1.7.7,1.7,1.7v.3Z"/>
            <path d="M137.2,48.8h-2.8c-.5,0-1.5-1-1.5-1.6-.3-3.1.4-6.8-.2-9.8s-3.9-2.5-5.1-.7-.4.8-.4.8v11.3h-4.4v-11.3c0-.2.2-1.1.3-1.3,1.6-5.6,12.2-5.6,13.7,0s.3,1.2.3,1.4v11.2Z"/>
          </g>
          <g>
            <path d="M116.3,32.3v4.5h-2.5c-.1,0-1,.4-1.2.5-.6.3-1.1,1.1-1.2,1.7s-.2,1-.2,1.1v8.7h-4.4v-8.8c.1-.8.2-1.6.4-2.3,1.2-4.2,5-5.5,9-5.4Z"/>
            <g>
              <path d="M121.8,29v2h-4.4v-3.5h2.9c.8,0,1.5.7,1.5,1.5h0Z"/>
              <path d="M121.8,33.9v14.9h-4.4v-16.5h2.8c.9,0,1.6.7,1.6,1.6h0Z"/>
            </g>
          </g>
        </g>
      </g>
    </g>
    <g>
      <path d="M150.1,53.3c-.4,0-.3,0-.4-.3,0-.6,0-1.2,0-1.9l-.9,2.2c-.5,0-.3,0-.5-.4l-.8-1.8v2.2s-.5,0-.5,0v-3s.5,0,.7.1.6,1.6.7,1.9,0,.3.2.3.6-1.8.8-2.1.3-.2.6-.2v3Z"/>
      <path d="M146,50.7s-.5,0-.6,0,0-.3,0-.4c.2,0,1.4,0,1.5,0s0,.3,0,.4c0,0-.6,0-.6,0v2.6s-.4,0-.4,0c0-.4,0-2.5,0-2.6Z"/>
    </g>
    <g>
      <path d="M139.1,62.5c-2-.7-3.5-2.3-3.6-4.5s.9-3.6,2.5-4.6c2.5-1.4,5.9-.4,6.7,2.4h-2.2c0,0-.6-.6-.9-.7-1.5-.7-3.4,0-4,1.6-1,3.4,3.5,5.5,5.1,2.3h-3.6v-1.7h6c0,2.2-1.1,4.1-3.1,4.9s-.4.2-.6.2h-2.4Z"/>
      <path d="M100.4,62.5c-.3-.2-.7-.3-1-.5-3.7-2-3.3-7.7.7-9,2.4-.8,5.1.3,5.9,2.8h-2.3s-.5-.5-.6-.6c-1.7-1.1-4,0-4.2,2-.4,3.3,3.6,4.7,5.3,1.8h-3.6v-1.7h5.9c0,0,0,1,0,1.1-.1,1.3-1.1,2.7-2.2,3.4s-.9.4-1.4.6h-2.4Z"/>
      <polygon points="117.2 53.1 119.4 59.6 121.7 53.1 124.3 53.1 124.3 62.4 122.4 62.4 122.4 56.3 120.2 62.4 118.7 62.4 116.5 56.2 116.6 62.4 114.6 62.4 114.6 53.1 117.2 53.1"/>
      <path d="M135.2,62.4h-1.7l-3.8-5.9v5.9h-1.9v-9.3h1.7l3.8,5.6v-5.6c.5,0,.9,0,1.4,0s.1,0,.5,0v9.3Z"/>
      <path d="M105.5,62.4l3.6-9.3c.3,0,1.5,0,1.6,0s.2.4.2.6c1.1,2.5,2.3,5.6,3.1,8.2s.1.3.1.5h-2c-.1-.2-.6-1.9-.7-1.9-.3,0-3.2,0-3.4,0s-.5,1.3-.6,1.5,0,.4,0,.4h-2ZM110.9,58.6c-.3-.3-.9-2.6-1-2.6s-.8,2.4-1,2.6h2Z"/>
      <rect x="125" y="53.1" width="1.9" height="9.3"/>
    </g>
  </g>
  <path d="M27.5,46.3l7.6-4.6-8.2-.5,5-6.3-8,3.3,1.7-6.9-4.6,3.9-.5-6.4-4.1,6.9-4.3-5.8.5,7.3-6.9-4.7,2.9,6.8-6.4-1.3,5.8,5.4L-.1,44.9l7.1,2.4-5.8,3.4,7.9-.8-5,6.2,7.6-3.4-1.3,8.1,4.7-5.4,2,5.6,2-5.6,4.9,5.8-.8-8.6,6.9,4.2-3.1-7.5,7.1-.3-6.7-2.6h0ZM17.7,53.7c-5,0-9-3.8-9-8.4s4-8.4,9-8.4,9,3.8,9,8.4-4,8.4-9,8.4h0Z"/>
  <path d="M11.4,41c.5-.2,1.2-.2,1.7,0,.4.3.7.8.7,1.3,0,.5,0,1,0,1.6h-.2c.2-.8,0-1.6-.3-2.2-.2-.3-.5-.5-.9-.5-.6,0-1.2.3-1.5.9-.2.2-.2.5-.3.7v-.5c0-.6.5-1,.9-1.3h0ZM16.7,41.3c.4-.2.8-.3,1.2-.3,0,.2-.2.2-.3.2-.6.2-1.2.5-1.7.9s-.9,1-.9,1.7.2.8.5,1c.2.2.5.2.7.2h1.5c.2.2.2.5,0,.6,0,.2-.2,0-.3,0,0-.2,0-.3,0-.5h-1.5c-.5,0-.9-.2-1.3-.6-.2-.4-.3-.8-.2-1.3.4-.9,1.3-1.7,2.1-2h0ZM21.2,41.8c.4-.4,1-.5,1.6-.4.6.2,1.1.6,1.3,1.2.2.5.2,1.2.2,1.7,0,0,0,.2-.2.2,0-.7,0-1.4-.4-2s-1.3-1-2-.7c-.6.3-.9,1-1.2,1.7h-.2c.2-.5.5-1.2.9-1.6h0ZM11.8,42.4c.2,0,.5,0,.7.2.2.4.2.9.2,1.3,0,.5-.3.9-.6,1.1-.2.2-.5,0-.8-.2-.2-.5-.3-1.1,0-1.6,0-.4.3-.7.6-.9h0ZM22.2,42.7c.2,0,.5.2.6.4.2.7.2,1.4-.2,2-.2.2-.4.5-.7.5s-.5-.2-.5-.4c-.2-.5-.2-1.2,0-1.7.2-.3.3-.7.7-.8h0ZM24.5,47.9c-.5-.4-.8-.9-.9-1.4,0-.2,0-.4-.3-.3,0,.3.2.6.2.9-3.8.7-7.6.7-11.4,0h-.2c.2-.3.3-.6.4-.9,0,0,0,0-.2,0-.3.6-.9,1.2-1.5,1.6,0,0,0,.2.2.2.3-.2.5-.3.8-.5.5.9,1.1,1.6,1.8,2.3.9.9,2.1,1.5,3.4,1.7.2,0,.5,0,.8,0,1,0,2-.2,3-.7,1.3-.7,2.4-1.8,3.2-3.2.3.2.5.5.9.6,0-.1,0-.2,0-.2h0ZM20.5,50.2c-2,1.2-4.6,1.1-6.4-.4-.9-.7-1.7-1.6-2.3-2.5.3,0,.5,0,.9.2,1.6.3,3.2.5,4.7.5s3.8-.2,5.7-.5c-.5,1.1-1.4,2-2.6,2.8h0Z"/>
</svg>