<?xml version="1.0" encoding="utf-8"?>
<!-- Generator: Adobe Illustrator 28.0.0, SVG Export Plug-In . SVG Version: 6.00 Build 0)  -->
<svg version="1.1" id="Layer_3" xmlns="http://www.w3.org/2000/svg" xmlns:xlink="http://www.w3.org/1999/xlink" x="0px" y="0px"
	 width="1438.734px" height="443.018px" viewBox="0 0 1438.734 443.018" enable-background="new 0 0 1438.734 443.018"
	 xml:space="preserve">
<filter  id="AI_GaussianBlur_7">
	<feGaussianBlur  stdDeviation="7"></feGaussianBlur>
</filter>
<path fill="#715396" d="M1438.586,219.203c1.021-45.491-10.579-84.436-34.483-115.761c-29.872-39.17-74.122-63.578-127.962-70.582
	c-9.793-1.272-19.548-1.917-28.997-1.917c-25.915,0-50.276,4.702-72.682,14.006c-0.027-0.031-0.054-0.062-0.082-0.093l-0.035-0.041
	l-0.036-0.04l-0.148-0.168c-13.037-14.714-31.192-23.847-51.116-25.712c-19.796-1.859-39.899-3.607-59.743-5.192
	c-2.143-0.171-4.314-0.258-6.448-0.258c-3.52,0-7.037,0.234-10.513,0.697c-5.304-1.572-10.777-2.568-16.342-2.971
	c-54.63-3.94-110.078-6.873-164.807-8.719c-0.862-0.029-1.734-0.044-2.593-0.044c-3.38,0-6.767,0.225-10.121,0.671
	c-4.176-0.818-8.425-1.29-12.686-1.409C799.982,0.562,759.6,0,719.767,0c-14.888,0-30.009,0.079-44.942,0.234
	c-18.452,0.192-35.687,6.816-49.384,18.633c-25.259-12.035-53.41-18.122-83.933-18.122c-3.395,0-6.872,0.076-10.333,0.227
	c-54.07,2.37-100.411,23.021-134.019,59.72c-0.239,0.261-0.477,0.522-0.714,0.785c-2.578-4.861-5.707-9.446-9.355-13.679
	c-9.982-11.582-23.441-20.024-38.922-24.414c-9.568-2.714-19.907-3.978-32.538-3.978c-8.138,0-17.344,0.526-28.144,1.609
	c-21.768,2.203-44.135,5.825-62.682,16.467c-5.308-1.17-10.93-2.082-16.976-2.759c-9.14-1.015-18.595-1.529-28.12-1.529
	c-12.769,0-26.063,0.924-39.513,2.747c-44.172,5.989-79.66,24.383-105.479,54.672C15.252,113.439,3.98,139.357,1.207,167.654
	c-1.917,14.577-1.552,29.922,1.113,46.893c3.375,21.495,10.024,40.94,19.807,57.964c-1.159,3.92-2.184,8.003-3.068,12.221
	c-2.595,12.373-3.677,24.912-3.219,37.284c-0.348,9.663,0.232,19.336,1.726,28.77c4.932,31.117,23.326,57.207,51.791,73.466
	c19.159,10.956,40.455,17.154,63.286,18.417c4.197,0.232,8.527,0.35,12.867,0.35c12.351,0,25.558-0.957,39.255-2.843
	c0.373-0.051,0.756-0.107,1.139-0.166c28.539-4.402,53.104-13.593,73.265-27.385c12.118,6.266,25.538,9.52,39.574,9.52
	c3.117,0,6.286-0.167,9.418-0.497c35.095-3.702,70.739-6.974,105.943-9.724c17.482-1.366,33.582-8.548,46.227-20.289
	c23.517,10.543,49.431,15.873,77.284,15.873c3.229,0,6.53-0.073,9.812-0.218c44.633-1.959,82.953-16.184,114.183-42.34
	c6.086,8.797,14.088,16.383,23.642,22.152c8.63,5.211,18.24,8.846,29.377,11.113c10.507,2.138,23.15,3.2,39.788,3.339
	c1.305,0.012,2.59,0.018,3.845,0.018c15.803,0,27.926-0.975,38.149-3.067c18.326-3.751,33.445-10.402,44.935-19.77
	c0.583-0.475,1.156-0.957,1.719-1.444c5.113,4.592,10.608,8.556,15.977,12.129c8.387,5.583,17.826,9.638,28.854,12.395
	c10.406,2.6,22.99,4.218,39.607,5.091c6.402,0.343,12.093,0.51,17.376,0.51c13.285,0,23.892-1.097,33.382-3.451
	c5.412-1.343,10.552-3.13,15.394-5.346c11.222,7.916,24.475,12.717,38.659,13.85c18.072,1.444,36.361,3.033,54.358,4.723
	c2.481,0.233,4.996,0.352,7.474,0.352c15.83,0,31.259-4.844,44.074-13.743c24.446,17.211,53.248,28.045,85.891,32.277
	c9.536,1.238,19.035,1.866,28.229,1.866c40.035,0,76.322-11.567,107.854-34.38c40.004-28.975,65.194-74.575,74.878-135.542
	C1437.764,251.074,1438.946,234.653,1438.586,219.203z"/>
<path fill="#C9C9C9" d="M1386.613,127.788c-26.237-34.404-65.416-55.881-113.311-62.111c-8.854-1.15-17.655-1.733-26.159-1.733
	c-29.511,0-56.48,6.782-80.458,20.193c-2.21-4.945-5.165-9.58-8.839-13.765c-0.05-0.056-0.099-0.112-0.148-0.168
	c-9.325-10.524-22.365-17.061-36.705-18.403c-19.715-1.852-39.717-3.59-59.444-5.167c-1.562-0.125-3.143-0.188-4.696-0.188
	c-4.204,0-8.315,0.454-12.293,1.331c-5.083-2.002-10.505-3.253-16.148-3.661c-54.349-3.919-109.513-6.838-163.962-8.674
	c-0.619-0.021-1.235-0.031-1.852-0.031c-3.673,0-7.287,0.368-10.806,1.078c-4.061-1.08-8.283-1.704-12.613-1.825
	C799.566,33.559,759.391,33,719.767,33c-14.836,0-29.881,0.079-44.713,0.233c-18.075,0.188-34.439,9.078-44.997,24.115
	c-25.452-15.515-55.552-23.603-88.549-23.603c-3.078,0-6.229,0.069-9.375,0.207c-48.106,2.108-89.175,20.301-118.752,52.599
	c-11.96,13.051-21.25,27.978-27.867,44.688l-2.605-28.415c-2.051-22.614-17.664-40.729-40.746-47.275
	c-7.562-2.145-15.993-3.144-26.535-3.144c-7.395,0-15.867,0.488-25.95,1.499c-26.267,2.659-46.368,6.941-60.924,18.353
	c-6.871-2.137-14.583-3.688-23.374-4.672c-8.319-0.924-16.958-1.393-25.674-1.393c-11.785,0-24.083,0.857-36.559,2.547
	c-38.642,5.239-74.121,22.457-96.319,48.499c-23.402,27.45-28.248,59.033-22.773,93.894c3.834,24.426,12.305,45.462,25.244,62.757
	c-3.722,7.586-6.606,16.335-8.707,26.355c-3.31,15.781-3.746,31.625-1.295,47.1c3.866,24.391,18.425,44.923,40.974,57.803
	c16.173,9.249,34.205,14.481,53.589,15.553c3.792,0.21,7.712,0.317,11.652,0.317c11.354,0,23.551-0.888,36.253-2.637
	c0.267-0.037,0.533-0.076,0.799-0.117c31.088-4.795,56.354-15.72,75.475-32.571c11.512,9.378,25.648,14.451,40.706,14.451
	c2.352,0,4.744-0.127,7.111-0.376c35.305-3.724,71.149-7.014,106.536-9.778c17.521-1.369,32.855-10.86,42.457-25.882
	c24.333,14.215,52.049,21.399,82.768,21.399c2.912,0,5.891-0.066,8.846-0.196c45.833-2.012,84.02-18.443,113.518-48.855
	c3.683-3.802,7.134-7.799,10.359-11.985c0.697,17.95,10.411,34.212,26.286,43.798c6.439,3.888,13.764,6.632,22.394,8.389
	c9.09,1.85,20.412,2.771,35.584,2.897c1.25,0.011,2.47,0.017,3.661,0.017c14.283,0,25.004-0.833,33.738-2.62
	c31.116-6.368,46.399-21.312,51.015-39.106c3.388,14.358,13.928,23.75,28.217,33.26c6.26,4.167,13.457,7.23,22,9.366
	c8.999,2.249,20.271,3.668,35.427,4.465c6.029,0.323,11.336,0.479,16.222,0.479c11.452,0,20.375-0.891,28.083-2.804
	c9.473-2.351,17.16-6.305,23.288-11.185c0.021,0.025,0.041,0.051,0.062,0.076c9.486,11.089,22.89,17.848,37.753,19.035
	c18.164,1.451,36.558,3.049,54.664,4.75c1.801,0.169,3.623,0.255,5.417,0.255c12.821,0,25.258-4.425,35.001-12.443
	c2.988-2.457,5.668-5.199,8.033-8.168c24.138,21.518,54.214,34.719,89.76,39.327c8.605,1.117,17.152,1.684,25.4,1.684
	c35.308,0,67.249-10.157,94.959-30.204c35.09-25.415,57.312-66.182,66.046-121.169
	C1422.222,208.686,1413.226,162.663,1386.613,127.788z"/>
<path fill="#FFFFFF" d="M1386.613,116.788c-26.237-34.404-65.416-55.881-113.311-62.111c-8.854-1.15-17.655-1.733-26.159-1.733
	c-29.511,0-56.48,6.782-80.458,20.193c-2.21-4.945-5.165-9.58-8.839-13.765c-0.05-0.056-0.099-0.112-0.148-0.168
	c-9.325-10.524-22.365-17.061-36.705-18.403c-19.715-1.852-39.717-3.59-59.444-5.167c-1.562-0.125-3.143-0.188-4.696-0.188
	c-4.204,0-8.315,0.454-12.293,1.331c-5.083-2.002-10.505-3.253-16.148-3.661c-54.349-3.919-109.513-6.838-163.962-8.674
	c-0.619-0.021-1.235-0.031-1.852-0.031c-3.673,0-7.287,0.368-10.806,1.078c-4.061-1.08-8.283-1.704-12.613-1.825
	C799.566,22.559,759.391,22,719.767,22c-14.836,0-29.881,0.079-44.713,0.233c-18.075,0.188-34.439,9.078-44.997,24.115
	c-25.452-15.515-55.552-23.603-88.549-23.603c-3.078,0-6.229,0.069-9.375,0.207c-48.106,2.108-89.175,20.301-118.752,52.599
	c-11.96,13.051-21.25,27.978-27.867,44.688l-2.605-28.415c-2.051-22.614-17.664-40.729-40.746-47.275
	c-7.562-2.145-15.993-3.144-26.535-3.144c-7.395,0-15.867,0.488-25.95,1.499c-26.267,2.659-46.368,6.941-60.924,18.353
	c-6.871-2.137-14.583-3.688-23.374-4.672c-8.319-0.924-16.958-1.393-25.674-1.393c-11.785,0-24.083,0.857-36.559,2.547
	c-38.642,5.239-69.491,21.101-91.69,47.143c-23.402,27.45-32.878,60.389-27.402,95.25c3.834,24.426,12.305,45.462,25.244,62.757
	c-3.722,7.586-6.606,16.335-8.707,26.355c-3.31,15.781-3.746,31.625-1.295,47.1c3.866,24.391,18.425,44.923,40.974,57.803
	c16.173,9.249,34.205,14.481,53.589,15.553c3.792,0.21,7.712,0.317,11.652,0.317c11.354,0,23.551-0.888,36.253-2.637
	c0.267-0.037,0.533-0.076,0.799-0.117c31.088-4.795,56.354-15.72,75.475-32.571c11.512,9.378,25.648,14.451,40.706,14.451
	c2.352,0,4.744-0.127,7.111-0.376c35.305-3.724,71.149-7.014,106.536-9.778c17.521-1.369,32.855-10.86,42.457-25.882
	c24.333,14.215,52.049,21.399,82.768,21.399c2.912,0,5.891-0.066,8.846-0.196c45.833-2.012,84.02-18.443,113.518-48.855
	c3.683-3.802,7.134-7.799,10.359-11.985c0.697,17.95,10.411,34.212,26.286,43.798c6.439,3.888,13.764,6.632,22.394,8.389
	c9.09,1.85,20.412,2.771,35.584,2.897c1.25,0.011,2.47,0.017,3.661,0.017c14.283,0,24.955-1.092,33.738-2.62
	c47.187-8.207,51.671-52.788,51.671-52.788s0.082,27.379,27.56,46.942c6.126,4.361,13.457,7.23,22,9.366
	c8.999,2.249,20.271,3.668,35.427,4.465c6.029,0.323,11.336,0.479,16.222,0.479c11.452,0,20.375-0.891,28.083-2.804
	c9.473-2.351,17.16-6.305,23.288-11.185c0.021,0.025,0.041,0.051,0.062,0.076c9.486,11.089,22.89,17.848,37.753,19.035
	c18.164,1.451,36.558,3.049,54.664,4.75c1.801,0.169,3.623,0.255,5.417,0.255c12.821,0,25.258-4.425,35.001-12.443
	c2.988-2.457,5.668-5.199,8.033-8.168c24.138,21.518,54.214,34.719,89.76,39.327c8.605,1.117,17.152,1.684,25.4,1.684
	c35.308,0,67.249-10.157,94.959-30.204c35.09-25.415,57.312-66.182,66.046-121.169
	C1422.222,197.686,1413.226,151.663,1386.613,116.788z"/>
<path fill="#777677" filter="url(#AI_GaussianBlur_7)" d="M1375.634,170.096c-3.95-14.67-10.275-27.735-18.964-39.122
	c-21.581-28.297-52.978-45.306-93.321-50.554c-7.577-0.984-15.078-1.483-22.295-1.483c-31.041,0-58.526,9.039-81.688,26.863
	c-10.498,8.073-19.388,17.912-26.704,29.409l2.553-26.803c0.276-2.891,0.081-5.723-0.548-8.421l0.548-5.751
	c0.681-7.117-1.45-13.891-6.062-19.143c-4.257-4.804-10.315-7.797-17.056-8.429c-19.575-1.838-39.437-3.565-59.032-5.13
	c-0.77-0.062-1.544-0.093-2.303-0.093c-5.515,0-10.639,1.634-14.933,4.71c-4.26-4.18-9.653-6.684-15.667-7.119
	c-53.967-3.892-108.746-6.79-162.814-8.614c-0.281-0.009-0.561-0.014-0.84-0.014c-4.206,0-8.203,1.052-11.803,3.013
	c-3.706-2.33-7.928-3.646-12.452-3.772c-39.334-1.095-79.229-1.65-118.576-1.65c-14.732,0-29.672,0.078-44.403,0.231
	c-9.508,0.099-17.801,5.413-22.752,14.58c-2.599,4.811-4.422,10.924-5.572,18.689l-0.044,0.315
	c-0.607,4.599-0.961,9.319-1.062,14.081c-3.66-4.755-7.666-9.167-12.033-13.214c-24.29-22.52-55.375-33.938-92.394-33.938
	c-2.645,0-5.355,0.06-8.062,0.178c-40.555,1.777-73.511,16.212-97.948,42.896c-22.696,24.766-33.459,58.791-32.061,101.231
	c-0.256,7.553-0.099,15.395,0.491,23.535c0.553,7.629,1.437,14.954,2.632,21.992c-0.862-0.082-1.71-0.124-2.534-0.124
	c-0.643,0-1.295,0.025-1.938,0.076c-11.685,0.912-23.469,1.883-35.221,2.902L346.94,90.528c-0.343-3.785-2.731-16.494-19.055-21.124
	c-4.823-1.368-10.653-2.005-18.349-2.005c-6.297,0-14.004,0.452-22.928,1.346c-28.98,2.934-42.444,7.351-49.675,16.297
	c-2.771,3.428-4.484,7.429-5.034,11.611c-10.259-11.375-28.733-13.453-35.924-14.257c-7.224-0.803-14.747-1.21-22.36-1.21
	c-10.443,0-21.386,0.766-32.529,2.275c-31.102,4.217-55.627,16.625-72.891,36.878c-9.553,11.206-15.971,23.292-19.232,36.155
	c-4.933,15.216-4.104,31.703-1.363,49.152c3.792,24.16,13.027,43.848,27.441,58.535c-5.06,6.398-8.654,15.168-11.18,27.215
	c-0.846,4.036-1.427,8.07-1.789,12.093c-0.01,0.049-0.023,0.095-0.033,0.144c-2.558,12.198-1.082,26.327,0.795,38.181
	c2.448,15.445,11.523,28.054,26.236,36.458c12.088,6.913,25.667,10.83,40.355,11.642c3.242,0.18,6.604,0.271,9.993,0.271
	c9.989,0,20.809-0.792,32.159-2.356l0.319-0.047c34.096-5.259,58.996-19.064,74.012-41.037c3.685-5.397,6.806-11.066,9.361-16.995
	l0.321,2.924c1.052,9.585,4.818,18.006,11.186,25.021c6.892,7.6,15.84,11.618,25.876,11.618c1.304,0,2.638-0.071,3.964-0.211
	c35.572-3.752,71.688-7.067,107.345-9.853c9.52-0.744,17.465-6.705,21.799-16.354c2.268-5.05,3.668-11.155,4.406-19.214l0.042-0.464
	l0.021-0.466c0.211-4.708,0.216-9.375,0.038-13.946c3.733,4.572,7.771,8.836,12.126,12.773
	c24.307,21.962,54.294,33.098,89.129,33.098c2.473,0,5.008-0.057,7.529-0.167c37.927-1.665,69.311-15.04,93.288-39.759
	c24.364-25.147,45.942-65.536,36.352-148.654l1.661-0.001c7.921-0.083,15.9-0.143,23.867-0.18l-0.019,141.499
	c0,0.019,0.002,0.037,0.002,0.056l-0.002,14.117c0.007,8.28,4.321,15.632,11.838,20.17c3.45,2.084,7.66,3.612,12.869,4.672
	c7.056,1.436,16.836,2.187,29.881,2.296c1.154,0.011,2.28,0.016,3.381,0.016c12.209,0,21.019-0.639,27.724-2.011
	c21.313-4.362,23.866-18.358,23.975-24.193l2.73-155.628c7.602,0.17,15.21,0.36,22.766,0.571c0.232,0.006,0.463,0.01,0.694,0.01
	c4.15,0,8.094-1.024,11.647-2.94c3.621,2.252,7.736,3.536,12.147,3.685c7.701,0.26,15.466,0.544,23.233,0.85l-5.661,127.764
	l-1.367,27.774c-0.357,8.272,4.394,15.814,11.704,20.679c3.355,2.233,7.493,3.946,12.651,5.235
	c6.986,1.746,16.726,2.928,29.756,3.612c5.415,0.29,10.333,0.437,14.618,0.437c8.951,0,15.578-0.61,20.858-1.92
	c18.214-4.521,20.462-18.158,20.719-22.248l9.597-155.355c7.592,0.505,15.192,1.032,22.74,1.577
	c0.598,0.043,1.191,0.064,1.782,0.064c1.303,0,2.588-0.106,3.851-0.307l-9.943,126.544l-2.542,29.101
	c-0.543,6.913,2.853,14.094,7.164,19.125c4.291,5.02,10.452,8.087,17.351,8.638c18.303,1.462,36.836,3.073,55.083,4.787
	c0.871,0.082,1.749,0.124,2.607,0.124c5.97,0,11.488-1.944,15.95-5.617c5.133-4.22,8.321-10.35,8.976-17.252l3.854-40.462
	c4.424,12.235,10.496,23.326,18.224,33.217c21.624,27.658,51.789,44.171,89.653,49.079c7.33,0.952,14.576,1.434,21.538,1.434
	c28.861,0,54.887-8.241,77.361-24.5c28.402-20.571,46.576-54.748,54.015-101.579
	C1383.145,224.287,1383.984,194.561,1375.634,170.096z M1264.566,227.099c-1.932,13.79-5.934,24.087-11.573,29.777
	c-4.792,4.835-8.774,5.455-11.709,5.455c-0.838,0-1.728-0.06-2.645-0.179c-5.725-0.742-9.301-3.211-12.345-8.525
	c-1.997-3.483-3.282-8.025-3.848-13.458c0.104-1.239,0.225-2.496,0.379-3.786c1.654-13.851,5.462-23.872,11.32-29.789
	c5.234-5.288,9.265-5.966,12.191-5.966c0.73,0,1.5,0.052,2.285,0.153c3.891,0.505,8.44,1.99,12.686,9.169
	c1.962,3.321,3.229,7.475,3.812,12.413C1264.976,223.897,1264.794,225.473,1264.566,227.099z M547.459,224.54
	c-3.598,5.18-7.411,7.396-13.163,7.649c-0.34,0.015-0.676,0.022-1.009,0.022c-5.217,0-8.855-1.82-12.562-6.288
	c-4.784-5.764-7.773-15.579-8.69-28.448c0.688-8.002,2.655-14.383,5.889-19.044c4.809-6.929,9.373-8.036,13.204-8.204
	c0.294-0.013,0.586-0.02,0.877-0.02c3.601,0,7.976,0.814,13.124,6.854c4.758,5.584,7.572,14.547,8.397,26.653
	C552.848,212.629,550.799,219.729,547.459,224.54z M230.184,198.058l-0.187-0.131c-2.153-1.492-4.269-2.879-6.362-4.207
	c5.018-6.313,10.375-17.112,12.726-36.255l5.582,50.859C238.433,204.593,234.538,201.15,230.184,198.058z"/>
<path fill="#2C0959" d="M1372.639,134.353c-21.581-28.297-58.857-45.506-99.201-50.754c-7.577-0.984-15.078-1.483-22.295-1.483
	c-31.041,0-58.526,9.039-81.688,26.863c-11.259,8.659-20.694,19.323-28.293,31.916l4.142-43.482
	c0.681-7.117,3.557-20.365-2.457-28.967c-4.398-6.291-7.678-8.247-14.418-8.878c-19.575-1.838-45.678,6.708-65.274,5.143
	c-0.77-0.062-1.544-0.093-2.303-0.093c-5.515,0-10.639,1.634-14.933,4.71c-4.26-4.18-9.653-6.684-15.667-7.119
	c-53.967-3.892-108.746-6.79-162.814-8.614c-0.281-0.009-0.561-0.014-0.84-0.014c-4.206,0-8.203,1.052-11.803,3.013
	c-3.706-2.33-7.928-3.646-12.452-3.772c-39.334-1.095-79.229-1.65-118.576-1.65c-14.732,0-29.672,0.078-44.403,0.231
	c-9.508,0.099-17.801-8.76-22.752,0.407c-2.599,4.811-7.84,18.105-8.254,35.352l2.638-2.176c-0.607,4.599-0.961,9.319-1.062,14.081
	c-3.66-4.755-7.666-9.167-12.033-13.214c-24.29-22.52-55.375-33.938-92.394-33.938c-2.645,0-5.355,0.06-8.062,0.178
	c-40.555,1.777-85.345,13.148-107.968,41.387c-21.276,26.558-28.522,59.467-24.464,112.101c1.008,13.077,2.843,25.298,5.671,36.634
	c-1.918-0.42-0.883-0.592-2.66-0.592c-0.643,0-1.295,0.025-1.938,0.076c-11.685,0.912-23.469,1.883-35.221,2.902L357.03,93.706
	c-0.343-3.785-2.731-16.494-19.055-21.124c-4.823-1.368-10.653-2.005-18.349-2.005c-6.297,0-14.004,0.452-22.928,1.346
	c-28.98,2.934-42.444,7.351-49.675,16.297c-2.771,3.428-4.484,7.429-5.034,11.611c-10.259-11.375-28.733-13.453-35.924-14.257
	c-7.224-0.803-14.747-1.21-22.36-1.21c-10.443,0-21.386,0.766-32.529,2.275c-31.102,4.217-62.355,16.421-79.619,36.674
	c-17.8,20.879-18.001,45.017-13.867,71.338c3.809,24.266,13.104,44.024,27.626,58.731c2.099,2.202,4.443,4.318,7.023,6.343
	l-4.573,4.634c-6.481,6.568-12.693,14.234-15.638,28.278c-2.558,12.198-1.082,26.327,0.795,38.181
	c2.448,15.445,11.523,28.054,26.236,36.458c12.088,6.913,25.667,10.83,40.355,11.642c3.242,0.18,6.604,0.271,9.993,0.271
	c9.989,0,20.809-0.792,32.159-2.356l0.319-0.047c34.096-5.259,58.996-19.064,74.012-41.037c3.685-5.397,6.806-11.066,9.361-16.995
	l0.321,2.924c1.052,9.585,4.818,18.006,11.186,25.021c6.892,7.6,15.84,11.618,25.876,11.618c1.304,0,2.638-0.071,3.964-0.211
	c35.572-3.752,71.688-7.067,107.345-9.853c9.52-0.744,17.465-6.705,21.799-16.354c2.268-5.05,3.668-11.155,4.406-19.214l0.042-0.464
	l0.021-0.466c0.211-4.708,0.216-9.375,0.038-13.946c3.733,4.572,7.771,8.836,12.126,12.773
	c24.307,21.962,54.294,33.098,89.129,33.098c2.473,0,5.008-0.057,7.529-0.167c37.927-1.665,69.311-15.04,93.288-39.759
	c24.364-25.147,45.942-65.536,36.352-148.654l1.66-0.001c7.922-0.083,15.901-0.143,23.869-0.18l-0.021,155.671
	c0.007,8.28,4.321,15.632,11.838,20.17c3.45,2.084,7.66,3.612,12.869,4.672c7.056,1.436,16.836,2.187,29.881,2.296
	c1.154,0.011,2.28,0.016,3.381,0.016c12.209,0,21.019-0.639,27.724-2.011c21.313-4.362,23.866-18.358,23.975-24.193l2.73-155.628
	c7.602,0.17,15.21,0.36,22.766,0.571c0.232,0.006,0.463,0.01,0.694,0.01c4.15,0,8.094-1.024,11.647-2.94
	c3.621,2.252,7.736,3.536,12.147,3.685c7.908,0.267,15.884,0.559,23.86,0.874l-7.655,155.514
	c-0.357,8.272,4.394,15.814,11.704,20.679c3.355,2.233,7.493,3.946,12.651,5.235c6.986,1.746,16.726,2.928,29.756,3.612
	c5.415,0.29,10.333,0.437,14.618,0.437c8.951,0,15.578-0.61,20.858-1.92c18.214-4.521,20.462-18.158,20.719-22.248l9.597-155.355
	c7.592,0.505,15.192,1.032,22.74,1.577c0.598,0.043,1.191,0.064,1.782,0.064c1.693,0,3.358-0.175,4.98-0.512l-13.615,155.85
	c-0.543,6.913,2.853,14.094,7.164,19.125c4.291,5.02,10.452,8.087,17.351,8.638c18.303,1.462,36.836,3.073,55.083,4.787
	c0.871,0.082,1.749,0.124,2.607,0.124c5.97,0,11.488-1.944,15.95-5.617c5.133-4.22,8.321-10.35,8.976-17.252l3.854-40.462
	c4.424,12.235,10.496,23.326,18.224,33.217c21.624,27.658,51.789,44.171,89.653,49.079c7.33,0.952,14.576,1.434,21.538,1.434
	c28.861,0,54.887-8.241,77.361-24.5c28.402-20.571,46.576-54.748,54.015-101.579
	C1395.256,200.572,1394.083,162.456,1372.639,134.353z M240.274,201.236l-0.187-0.131c-5.419-3.757-10.665-7-15.672-9.691
	l4.131-3.393c5.903-4.849,14.699-15.447,17.905-41.551c0.431-3.506-0.733,3.131,0,0l7.345,66.921
	C249.856,208.914,245.36,204.848,240.274,201.236z M557.549,227.718c-3.598,5.18-7.411,7.396-13.163,7.649
	c-0.34,0.015-0.676,0.022-1.009,0.022c-5.217,0-8.855-1.82-12.562-6.288c-5.02-6.047-8.068-16.546-8.815-30.361
	c-0.754-13.936,1.27-24.467,6.015-31.304c4.809-6.929,9.373-8.036,13.204-8.204c0.294-0.013,0.586-0.02,0.877-0.02
	c3.601,0,7.976,0.814,13.124,6.854c5.227,6.134,8.116,16.332,8.589,30.31C564.279,210.305,562.114,221.143,557.549,227.718z
	 M1274.656,230.277c-1.932,13.79-5.934,24.087-11.573,29.777c-4.792,4.835-8.774,5.455-11.709,5.455
	c-0.838,0-1.728-0.06-2.645-0.179c-5.725-0.742-9.301-3.211-12.345-8.525c-3.911-6.821-5.11-17.684-3.469-31.417
	c1.654-13.851,5.462-23.872,11.32-29.789c5.234-5.288,9.265-5.966,12.191-5.966c0.73,0,1.5,0.052,2.285,0.153
	c3.891,0.505,8.44,1.99,12.686,9.169C1275.499,205.895,1276.595,216.433,1274.656,230.277z"/>
<path fill="#460F80" d="M1366.76,119.98c-21.581-28.297-52.978-45.306-93.321-50.554c-7.577-0.984-15.078-1.483-22.295-1.483
	c-31.041,0-58.526,9.039-81.688,26.863c-11.259,8.659-20.694,19.323-28.293,31.916l4.142-43.482
	c0.681-7.117-1.45-13.891-6.062-19.143c-4.257-4.804-10.315-7.797-17.056-8.429c-19.575-1.838-39.437-3.565-59.032-5.13
	c-0.77-0.062-1.544-0.093-2.303-0.093c-5.515,0-10.639,1.634-14.933,4.71c-4.26-4.18-9.653-6.684-15.667-7.119
	c-53.967-3.892-108.746-6.79-162.814-8.614c-0.281-0.009-0.561-0.014-0.84-0.014c-4.206,0-8.203,1.052-11.803,3.013
	c-3.706-2.33-7.928-3.646-12.452-3.772C803.01,37.555,763.115,37,723.768,37c-14.732,0-29.672,0.078-44.403,0.231
	c-9.508,0.099-17.801,5.413-22.752,14.58c-2.599,4.811-4.422,10.924-5.572,18.689l-0.044,0.315
	c-0.607,4.599-0.961,9.319-1.062,14.081c-3.66-4.755-7.666-9.167-12.033-13.214c-24.29-22.52-55.375-33.938-92.394-33.938
	c-2.645,0-5.355,0.06-8.062,0.178c-40.555,1.777-73.511,16.212-97.948,42.896c-24.342,26.562-34.964,63.771-31.57,110.594
	c0.947,13.081,2.843,25.298,5.671,36.634c-1.918-0.42-3.796-0.595-5.574-0.595c-0.643,0-1.295,0.025-1.938,0.076
	c-11.685,0.912-23.469,1.883-35.221,2.902L357.03,79.534c-0.343-3.785-2.731-16.494-19.055-21.124
	c-4.823-1.368-10.653-2.005-18.349-2.005c-6.297,0-14.004,0.452-22.928,1.346c-28.98,2.934-42.444,7.351-49.675,16.297
	c-2.771,3.428-4.484,7.429-5.034,11.611c-10.259-11.375-28.733-13.453-35.924-14.257c-7.224-0.803-14.747-1.21-22.36-1.21
	c-10.443,0-21.386,0.766-32.529,2.275c-31.102,4.217-55.627,16.625-72.891,36.878c-17.8,20.879-24.729,44.812-20.595,71.134
	c3.809,24.266,13.104,44.024,27.626,58.731c2.099,2.202,4.443,4.318,7.023,6.343l-4.573,4.634
	c-6.481,6.568-10.872,16.169-13.816,30.213c-2.558,12.198-2.904,24.392-1.027,36.246c2.448,15.445,11.523,28.054,26.236,36.458
	c12.088,6.913,25.667,10.83,40.355,11.642c3.242,0.18,6.604,0.271,9.993,0.271c9.989,0,20.809-0.792,32.159-2.356l0.319-0.047
	c34.096-5.259,58.996-19.064,74.012-41.037c3.685-5.397,6.806-11.066,9.361-16.995l0.321,2.924
	c1.052,9.585,4.818,18.006,11.186,25.021c6.892,7.6,15.84,11.618,25.876,11.618c1.304,0,2.638-0.071,3.964-0.211
	c35.572-3.752,71.688-7.067,107.345-9.853c9.52-0.744,17.465-6.705,21.799-16.354c2.268-5.05,3.668-11.155,4.406-19.214l0.042-0.464
	l0.021-0.466c0.211-4.708,0.216-9.375,0.038-13.946c3.733,4.572,7.771,8.836,12.126,12.773
	c24.307,21.962,54.294,33.098,89.129,33.098c2.473,0,5.008-0.057,7.529-0.167c37.927-1.665,69.311-15.04,93.288-39.759
	c24.364-25.147,36.345-61.935,35.609-109.342c-0.224-14.425-1.607-27.803-4.121-40.124c2.015,0.528,4.109,0.812,6.266,0.812
	l0.259-0.001c7.922-0.083,15.901-0.143,23.869-0.18l-0.021,155.671c0.007,8.28,4.321,15.632,11.838,20.17
	c3.45,2.084,7.66,3.612,12.869,4.672c7.056,1.436,16.836,2.187,29.881,2.296c1.154,0.011,2.28,0.016,3.381,0.016
	c12.209,0,21.019-0.639,27.724-2.011c21.313-4.362,23.866-18.358,23.975-24.193l2.73-155.628c7.602,0.17,15.21,0.36,22.766,0.571
	c0.232,0.006,0.463,0.01,0.694,0.01c4.15,0,8.094-1.024,11.647-2.94c3.621,2.252,7.736,3.536,12.147,3.685
	c7.908,0.267,15.884,0.559,23.86,0.874l-6.891,155.521c-0.357,8.272,3.63,15.807,10.939,20.672
	c3.355,2.233,7.493,3.946,12.651,5.235c6.986,1.746,16.726,2.928,29.756,3.612c5.415,0.29,10.333,0.437,14.618,0.437
	c8.951,0,15.578-0.61,20.858-1.92c18.214-4.521,20.462-18.158,20.719-22.248l9.597-155.355c7.592,0.505,15.192,1.032,22.74,1.577
	c0.598,0.043,1.191,0.064,1.782,0.064c1.693,0,3.358-0.175,4.98-0.512l-12.294,156.461c-0.543,6.913,1.531,13.484,5.843,18.514
	c4.291,5.02,10.452,8.087,17.351,8.638c18.303,1.462,36.836,3.073,55.083,4.787c0.871,0.082,1.749,0.124,2.607,0.124
	c5.97,0,11.488-1.944,15.95-5.617c5.133-4.22,8.321-10.35,8.976-17.252l3.854-40.462c4.424,12.235,10.496,23.326,18.224,33.217
	c21.624,27.658,51.789,44.171,89.653,49.079c7.33,0.952,14.576,1.434,21.538,1.434c28.861,0,54.887-8.241,77.361-24.5
	c28.402-20.571,46.576-54.748,54.015-101.579C1395.256,186.4,1388.204,148.083,1366.76,119.98z M240.274,187.064l-0.187-0.131
	c-5.419-3.757-10.665-7-15.672-9.691l4.131-3.393c5.903-4.849,9.478-12.275,15.3-31.788c1.01-3.385,1.872-6.632,2.605-9.763
	l7.345,66.921C249.856,194.741,245.36,190.676,240.274,187.064z M557.549,213.545c-3.598,5.18-7.411,7.396-13.163,7.649
	c-0.34,0.015-0.676,0.022-1.009,0.022c-5.217,0-8.855-1.82-12.562-6.288c-5.02-6.047-8.068-16.546-8.815-30.361
	c-0.754-13.936,1.27-24.467,6.015-31.304c4.809-6.929,9.373-8.036,13.204-8.204c0.294-0.013,0.586-0.02,0.877-0.02
	c3.601,0,7.976,0.814,13.124,6.854c5.227,6.134,8.116,16.332,8.589,30.31C564.279,196.132,562.114,206.97,557.549,213.545z
	 M1274.656,216.105c-1.932,13.79-5.934,24.087-11.573,29.777c-4.792,4.835-8.774,5.455-11.709,5.455
	c-0.838,0-1.728-0.06-2.645-0.179c-5.725-0.742-9.301-3.211-12.345-8.525c-3.911-6.821-5.11-17.684-3.469-31.417
	c1.654-13.851,5.462-23.872,11.32-29.789c5.234-5.288,9.265-5.966,12.191-5.966c0.73,0,1.5,0.052,2.285,0.153
	c3.891,0.505,8.44,1.99,12.686,9.169C1275.499,191.722,1276.595,202.26,1274.656,216.105z"/>
<g>
	<path fill="#1F0547" d="M146.509,350.018c-3.059,0-6.085-0.082-8.997-0.243c-11.872-0.657-22.778-3.784-32.416-9.295
		c-9.956-5.687-15.808-13.644-17.394-23.65c-1.533-9.681-1.241-19.685,0.866-29.734c2.173-10.366,5.121-17.321,9.011-21.264
		l1.062-1.076l1.325,0.728c4.837,2.658,13.061,6.107,25.14,10.547c8.739,3.216,17.042,4.847,24.679,4.847
		c2.441,0,4.864-0.166,7.201-0.494c11.722-1.642,12.344-7.222,11.793-11.277c-0.398-2.922-1.936-5.291-4.699-7.24
		c-3.055-2.15-8.566-4.409-16.379-6.714c-8.574-2.525-14.42-4.339-18.396-5.708c-4.157-1.423-9.683-3.895-16.89-7.558
		c-7.192-3.65-12.977-7.763-17.194-12.226c-11.86-11.946-19.525-28.435-22.75-48.973c-3.283-20.899,2.272-39.964,16.51-56.665
		c14.304-16.78,35.033-27.115,61.612-30.719c10.342-1.401,20.473-2.112,30.11-2.112c6.952,0,13.807,0.37,20.373,1.1
		c16.608,1.858,25.359,6.059,26.753,12.842l0.017,0.083l0.256,2.17c0.991,8.397-0.483,19.037-4.507,32.527
		c-5.339,17.894-7.868,21.703-9.475,23.022l-0.867,0.712l-1.059-0.368c-12.513-4.348-23.965-6.552-34.04-6.552
		c-2.859,0-5.652,0.178-8.301,0.53c-6.741,0.898-11.282,2.828-13.496,5.737c-1.413,1.856-1.909,4.141-1.516,6.984
		c0.576,4.19,5.239,7.571,13.859,10.05c2.076,0.672,4.956,1.552,8.869,2.709c3.961,1.178,8.434,2.559,13.294,4.105
		c5.069,1.618,10.617,3.801,16.492,6.487c5.947,2.725,12.499,6.558,19.473,11.393c14.524,10.315,23.03,25.464,25.3,45.038
		c2.904,25.052-1.805,46.807-13.999,64.662c-12.261,17.942-32.505,28.867-61.891,33.399
		C165.672,349.282,155.679,350.018,146.509,350.018z"/>
	<path fill="#1F0547" d="M299.742,329.145c-4.887,0-9.106-1.921-12.542-5.709c-3.768-4.151-5.998-9.162-6.627-14.893l-23.75-216.4
		c-0.146-1.32,0.268-2.627,1.198-3.778c1.287-1.592,5.202-6.436,37.489-9.704c8.312-0.833,15.416-1.255,21.116-1.255
		c12.87,0,19.06,2.146,19.478,6.754l15.477,168.791c17.559-1.602,35.347-3.107,52.907-4.477c0.18-0.014,0.359-0.021,0.537-0.021
		c5.212,0,9.047,5.653,11.724,17.283c1.135,5.399,1.923,10.979,2.349,16.621c0.426,5.618,0.506,11.479,0.24,17.422
		c-1.155,12.637-4.322,18.939-9.688,19.358c-35.819,2.798-72.099,6.128-107.832,9.897
		C301.117,329.107,300.418,329.145,299.742,329.145z"/>
	<path fill="#1F0547" d="M538.613,314.507c-30.664,0-55.871-9.308-77.062-28.454c-22.678-20.502-35.688-51.772-38.672-92.941
		c-3.021-41.687,6.026-74.366,26.889-97.131c21.1-23.041,49.854-35.515,85.466-37.075c2.442-0.106,4.89-0.161,7.273-0.161
		c32.333,0,59.302,9.803,80.155,29.138c22.146,20.521,33.712,52.698,34.379,95.636c0.658,42.462-9.616,74.942-30.539,96.537
		c-20.955,21.604-47.499,32.825-81.149,34.302C543.091,314.457,540.823,314.507,538.613,314.507z M539.096,130.041
		c-0.553,0-1.107,0.012-1.667,0.037c-11.056,0.486-20.207,5.844-27.202,15.926c-7.08,10.199-10.176,24.511-9.2,42.538
		c0.972,17.957,5.324,31.712,12.939,40.885c7.141,8.607,15.779,12.791,26.411,12.791c0.595,0,1.194-0.013,1.801-0.04
		c11.442-0.503,20.324-5.529,27.155-15.364c6.892-9.926,10.076-24.129,9.465-42.217c-0.613-18.146-4.945-32.066-12.876-41.375
		C558.466,134.475,549.439,130.041,539.096,130.041z"/>
	<path fill="#1F0547" d="M759.261,308.571c-1.046,0-2.116-0.005-3.213-0.015c-26.102-0.218-36.751-2.87-36.756-9.154l0.023-173.702
		c-13.95,0.005-28.093,0.081-42.06,0.227h-0.001c-5.377,0-8.953-5.775-11.007-17.657c-0.82-5.237-1.269-10.626-1.338-16.05
		c-0.069-5.442,0.244-10.842,0.932-16.05c1.781-12.025,5.283-17.883,10.71-17.939c14.669-0.153,29.545-0.23,44.214-0.23
		c39.183,0,78.909,0.553,118.077,1.644c5.417,0.151,8.816,6.068,10.394,18.09c0.601,5.255,0.818,10.66,0.653,16.097
		c-0.164,5.435-0.706,10.815-1.61,15.993c-2.257,11.783-5.896,17.495-11.132,17.496l-0.189-0.003
		c-13.596-0.378-27.362-0.694-40.949-0.939l-3.047,173.673C792.85,306.104,783.085,308.571,759.261,308.571z"/>
	<path fill="#1F0547" d="M945.878,314.415c-3.966,0-8.561-0.138-13.655-0.411c-26.073-1.37-36.598-4.49-36.326-10.768l7.688-173.532
		c-13.987-0.613-28.118-1.161-42.035-1.63c-5.342-0.181-8.685-6.11-10.22-18.126c-0.588-5.256-0.798-10.66-0.628-16.093
		c0.169-5.433,0.721-10.814,1.638-15.994c2.276-11.754,5.957-17.454,11.259-17.454l0.233,0.004
		c53.84,1.816,108.387,4.702,162.126,8.578c5.406,0.391,8.542,6.452,9.589,18.532c0.369,5.281,0.35,10.69-0.057,16.111
		c-0.405,5.431-1.184,10.782-2.314,15.906c-2.723,11.445-6.516,16.993-11.602,16.993c-0.161,0-0.323-0.006-0.486-0.018
		c-13.577-0.979-27.323-1.902-40.889-2.747l-10.71,173.369C969.17,312.239,962.108,314.415,945.878,314.415z"/>
	<path fill="#1F0547" d="M1095.146,324.543c-0.299,0-0.606-0.015-0.924-0.044c-18.334-1.722-36.951-3.34-55.334-4.809
		c-2.183-0.174-3.901-0.981-5.109-2.399c-1.212-1.402-1.744-3.224-1.573-5.402l18.369-233.779c0.173-2.193,1.025-3.918,2.533-5.125
		c1.277-1.021,2.873-1.539,4.745-1.539c0.281,0,0.57,0.012,0.867,0.036c19.516,1.559,39.293,3.278,58.785,5.109
		c2.243,0.21,4.015,1.032,5.266,2.444c1.283,1.461,1.825,3.307,1.616,5.491l-22.235,233.442c-0.205,2.166-1.043,3.867-2.487,5.055
		C1098.438,324.03,1096.917,324.543,1095.146,324.543z"/>
	<path fill="#1F0547" d="M1253.34,344.942c-6.189,0-12.656-0.432-19.221-1.284c-33.475-4.339-58.921-18.181-77.79-42.316
		c-18.829-24.098-26.274-57.141-22.128-98.213c4.198-41.589,18.742-72.224,43.229-91.054c19.945-15.349,43.737-23.132,70.714-23.132
		c6.444,0,13.165,0.449,19.977,1.333c35.403,4.605,62.765,19.281,81.326,43.619c18.345,24.04,24.229,57.733,17.493,100.143
		c-6.662,41.938-22.407,72.16-46.797,89.825C1300.81,337.851,1278.334,344.942,1253.34,344.942z M1253.428,160.461
		c-9.154,0-17.561,3.803-24.984,11.304c-8.742,8.828-14.26,22.392-16.399,40.316c-2.135,17.854-0.209,32.154,5.725,42.503
		c5.872,10.248,14.261,15.947,25.646,17.423c1.682,0.218,3.351,0.329,4.96,0.329c9.29,0,17.302-3.527,24.493-10.783
		c8.516-8.591,14.105-22.033,16.615-39.952c2.518-17.981,0.638-32.44-5.587-42.975c-6.164-10.425-14.866-16.435-25.866-17.863
		C1256.479,160.563,1254.93,160.461,1253.428,160.461z"/>
</g>
<g>
	<linearGradient id="SVGID_1_" gradientUnits="userSpaceOnUse" x1="168.4005" y1="310.6576" x2="166.7447" y2="52.3572">
		<stop  offset="0" style="stop-color:#FF3200"/>
		<stop  offset="0.1605" style="stop-color:#FF5000"/>
		<stop  offset="0.2211" style="stop-color:#FF5200"/>
		<stop  offset="0.2429" style="stop-color:#FF5900"/>
		<stop  offset="0.2584" style="stop-color:#FF6400"/>
		<stop  offset="0.2709" style="stop-color:#FF7500"/>
		<stop  offset="0.2726" style="stop-color:#FF7800"/>
		<stop  offset="0.2881" style="stop-color:#FF7100"/>
		<stop  offset="0.3402" style="stop-color:#FF5F00"/>
		<stop  offset="0.3947" style="stop-color:#FF5400"/>
		<stop  offset="0.4548" style="stop-color:#FF5000"/>
		<stop  offset="1" style="stop-color:#FF3200"/>
	</linearGradient>
	<path fill="url(#SVGID_1_)" d="M234.833,196.726c-6.975-4.835-13.526-8.667-19.473-11.393c-5.875-2.687-11.422-4.869-16.492-6.487
		c-4.861-1.547-9.333-2.928-13.294-4.105c-3.913-1.157-6.793-2.037-8.869-2.709c-8.621-2.479-13.283-5.859-13.859-10.05
		c-0.267-1.937-0.112-3.61,0.454-5.069c2.416-1.23,5.595-2.124,9.557-2.652c2.649-0.352,5.441-0.53,8.301-0.53
		c10.074,0,21.527,2.204,34.04,6.552l1.059,0.368l0.867-0.712c0.193-0.159,0.4-0.355,0.623-0.606c0.157-0.138,0.323-0.302,0.5-0.5
		c0.157-0.138,0.323-0.302,0.5-0.5c0.157-0.138,0.323-0.302,0.5-0.5c0.157-0.138,0.323-0.302,0.5-0.5
		c0.157-0.138,0.323-0.302,0.5-0.5c0.157-0.138,0.323-0.302,0.5-0.5c0.157-0.138,0.323-0.302,0.5-0.5
		c0.157-0.138,0.323-0.302,0.5-0.5c0.157-0.138,0.323-0.302,0.5-0.5c1.613-1.416,4.147-5.473,9.351-22.917
		c4.024-13.49,5.498-24.13,4.507-32.527l-0.256-2.17l-0.017-0.083c-1.395-6.784-10.145-10.984-26.753-12.842
		c-6.566-0.729-13.42-1.1-20.373-1.1c-9.637,0-19.768,0.71-30.11,2.112c-23.53,3.191-42.466,11.667-56.427,25.21
		c-0.171,0.163-0.331,0.336-0.5,0.5c-0.171,0.163-0.331,0.336-0.5,0.5c-0.171,0.163-0.331,0.336-0.5,0.5
		c-0.171,0.163-0.331,0.336-0.5,0.5c-0.171,0.163-0.331,0.336-0.5,0.5c-0.171,0.163-0.331,0.336-0.5,0.5
		c-0.171,0.163-0.331,0.336-0.5,0.5c-0.171,0.163-0.331,0.336-0.5,0.5c-0.171,0.163-0.331,0.336-0.5,0.5
		c-1.995,1.901-3.891,3.904-5.685,6.009c-14.238,16.701-19.793,35.766-16.51,56.665c3.224,20.539,10.89,37.027,22.75,48.973
		c4.217,4.462,10.002,8.576,17.194,12.226c7.207,3.663,12.733,6.135,16.89,7.558c3.976,1.369,9.821,3.183,18.396,5.708
		c7.813,2.305,13.324,4.564,16.379,6.714c2.763,1.95,4.3,4.318,4.699,7.24c0.191,1.408,0.24,2.999-0.267,4.545
		c-1.655,0.745-3.783,1.347-6.526,1.731c-2.337,0.328-4.76,0.494-7.201,0.494c-7.638,0-15.94-1.631-24.679-4.847
		c-12.08-4.439-20.303-7.889-25.14-10.547l-1.325-0.728l-0.496,0.502l-0.004-0.002l-0.496,0.502l-0.004-0.002l-0.496,0.502
		l-0.004-0.002l-0.496,0.502l-0.004-0.002l-0.496,0.502l-0.004-0.002l-0.496,0.502l-0.004-0.002l-0.496,0.502l-0.004-0.002
		l-0.496,0.502l-0.004-0.002l-0.496,0.502l-0.004-0.002l-0.496,0.502l-0.004-0.002l-1.062,1.076
		c-3.89,3.943-6.838,10.898-9.011,21.264c-2.107,10.049-2.398,20.053-0.866,29.734c1.586,10.006,7.438,17.963,17.394,23.65
		c9.637,5.511,20.543,8.638,32.416,9.295c2.912,0.161,5.938,0.243,8.997,0.243c9.17,0,19.164-0.736,29.734-2.193
		c24.03-3.706,41.939-11.693,54.377-24.29c0.167-0.166,0.334-0.332,0.5-0.5c0.167-0.166,0.334-0.332,0.5-0.5
		c0.167-0.166,0.334-0.332,0.5-0.5c0.167-0.166,0.334-0.332,0.5-0.5c0.167-0.166,0.334-0.332,0.5-0.5
		c0.167-0.166,0.334-0.332,0.5-0.5c0.167-0.166,0.334-0.332,0.5-0.5c0.167-0.166,0.334-0.332,0.5-0.5
		c0.167-0.166,0.334-0.332,0.5-0.5c2.972-2.946,5.646-6.143,8.014-9.609c12.194-17.855,16.903-39.61,13.999-64.662
		C257.863,222.19,249.357,207.041,234.833,196.726z"/>
	
		<linearGradient id="SVGID_00000140714419984191303230000001250714715160549559_" gradientUnits="userSpaceOnUse" x1="344.431" y1="309.5292" x2="342.7752" y2="51.2288">
		<stop  offset="0" style="stop-color:#FF3200"/>
		<stop  offset="0.1605" style="stop-color:#FF5000"/>
		<stop  offset="0.2211" style="stop-color:#FF5200"/>
		<stop  offset="0.2429" style="stop-color:#FF5900"/>
		<stop  offset="0.2584" style="stop-color:#FF6400"/>
		<stop  offset="0.2709" style="stop-color:#FF7500"/>
		<stop  offset="0.2726" style="stop-color:#FF7800"/>
		<stop  offset="0.2881" style="stop-color:#FF7100"/>
		<stop  offset="0.3402" style="stop-color:#FF5F00"/>
		<stop  offset="0.3947" style="stop-color:#FF5400"/>
		<stop  offset="0.4548" style="stop-color:#FF5000"/>
		<stop  offset="1" style="stop-color:#FF3200"/>
	</linearGradient>
	<path fill="url(#SVGID_00000140714419984191303230000001250714715160549559_)" d="M424.749,257.735
		c-2.677-11.629-6.512-17.283-11.724-17.283c-0.178,0-0.357,0.007-0.537,0.021c-17.561,1.37-35.349,2.875-52.907,4.477
		L344.104,76.159c-0.418-4.608-6.607-6.754-19.478-6.754c-5.701,0-12.804,0.422-21.116,1.255
		c-29.559,2.992-35.335,7.303-37.088,9.232c-0.199,0.181-0.361,0.347-0.5,0.5c-0.199,0.181-0.361,0.347-0.5,0.5
		c-0.199,0.181-0.361,0.347-0.5,0.5c-0.199,0.181-0.361,0.347-0.5,0.5c-0.199,0.181-0.361,0.347-0.5,0.5
		c-0.199,0.181-0.361,0.347-0.5,0.5c-0.199,0.181-0.361,0.347-0.5,0.5c-0.199,0.181-0.361,0.347-0.5,0.5
		c-0.199,0.181-0.361,0.347-0.5,0.5c-0.431,0.392-0.699,0.722-0.901,0.972c-0.93,1.15-1.344,2.458-1.198,3.778l23.75,216.4
		c0.629,5.731,2.859,10.742,6.627,14.893c3.435,3.788,7.655,5.709,12.542,5.709c0.677,0,1.375-0.038,2.077-0.112
		c35.733-3.769,72.013-7.099,107.832-9.897c1.759-0.138,3.277-0.92,4.57-2.338c0.17-0.158,0.337-0.322,0.5-0.5
		c0.17-0.158,0.337-0.322,0.5-0.5c0.17-0.158,0.337-0.322,0.5-0.5c0.17-0.158,0.337-0.322,0.5-0.5c0.17-0.158,0.337-0.322,0.5-0.5
		c0.17-0.158,0.337-0.322,0.5-0.5c0.17-0.158,0.337-0.322,0.5-0.5c0.17-0.158,0.337-0.322,0.5-0.5c0.17-0.158,0.337-0.322,0.5-0.5
		c2.94-2.731,4.794-8.505,5.618-17.52c0.266-5.942,0.186-11.804-0.24-17.422C426.672,268.714,425.884,263.134,424.749,257.735z"/>
	
		<linearGradient id="SVGID_00000050639513828414914730000017548631088769288105_" gradientUnits="userSpaceOnUse" x1="546.0331" y1="308.2369" x2="544.3774" y2="49.9365">
		<stop  offset="0" style="stop-color:#FF3200"/>
		<stop  offset="0.1605" style="stop-color:#FF5000"/>
		<stop  offset="0.2211" style="stop-color:#FF5200"/>
		<stop  offset="0.2429" style="stop-color:#FF5900"/>
		<stop  offset="0.2584" style="stop-color:#FF6400"/>
		<stop  offset="0.2709" style="stop-color:#FF7500"/>
		<stop  offset="0.2726" style="stop-color:#FF7800"/>
		<stop  offset="0.2881" style="stop-color:#FF7100"/>
		<stop  offset="0.3402" style="stop-color:#FF5F00"/>
		<stop  offset="0.3947" style="stop-color:#FF5400"/>
		<stop  offset="0.4548" style="stop-color:#FF5000"/>
		<stop  offset="1" style="stop-color:#FF3200"/>
	</linearGradient>
	<path fill="url(#SVGID_00000050639513828414914730000017548631088769288105_)" d="M630.663,79.882
		c-20.854-19.334-47.822-29.138-80.155-29.138c-2.384,0-4.831,0.054-7.273,0.161c-33.601,1.472-61.094,12.666-81.816,33.279
		c-0.168,0.165-0.333,0.334-0.5,0.5c-0.168,0.165-0.333,0.334-0.5,0.5c-0.168,0.165-0.333,0.334-0.5,0.5
		c-0.168,0.165-0.333,0.334-0.5,0.5c-0.168,0.165-0.333,0.334-0.5,0.5c-0.168,0.165-0.333,0.334-0.5,0.5
		c-0.168,0.165-0.333,0.334-0.5,0.5c-0.168,0.165-0.333,0.334-0.5,0.5c-0.168,0.165-0.333,0.334-0.5,0.5
		c-1.414,1.389-2.798,2.82-4.15,4.296c-20.862,22.765-29.909,55.445-26.889,97.131c2.983,41.169,15.994,72.439,38.672,92.941
		c21.19,19.146,46.397,28.454,77.062,28.454c2.21,0,4.478-0.051,6.74-0.15c32.824-1.441,58.883-12.157,79.592-32.734
		c0.168-0.165,0.333-0.334,0.5-0.5c0.168-0.165,0.333-0.334,0.5-0.5c0.168-0.165,0.333-0.334,0.5-0.5
		c0.168-0.165,0.333-0.334,0.5-0.5c0.168-0.165,0.333-0.334,0.5-0.5c0.168-0.165,0.333-0.334,0.5-0.5
		c0.168-0.165,0.333-0.334,0.5-0.5c0.168-0.165,0.333-0.334,0.5-0.5c0.168-0.165,0.333-0.334,0.5-0.5
		c0.691-0.679,1.377-1.367,2.057-2.068c20.923-21.595,31.197-54.075,30.539-96.537C664.375,132.58,652.809,100.404,630.663,79.882z
		 M548.377,234.217c-10.632,0-19.271-4.184-26.411-12.791c-7.615-9.173-11.968-22.929-12.939-40.885
		c-0.976-18.027,2.12-32.338,9.2-42.538c0.832-1.199,1.697-2.327,2.589-3.392c5.63-4.674,12.19-7.208,19.613-7.534
		c0.56-0.024,1.114-0.037,1.667-0.037c10.344,0,19.37,4.435,26.826,13.181c7.931,9.309,12.263,23.229,12.876,41.375
		c0.611,18.087-2.573,32.291-9.465,42.217c-0.756,1.089-1.542,2.108-2.349,3.08c-5.544,4.54-12.091,6.945-19.807,7.284
		C549.571,234.204,548.972,234.217,548.377,234.217z"/>
	
		<linearGradient id="SVGID_00000071531027611842313710000008224617657353973438_" gradientUnits="userSpaceOnUse" x1="857.2579" y1="306.2419" x2="855.6022" y2="47.9414">
		<stop  offset="0" style="stop-color:#FF3200"/>
		<stop  offset="0.1605" style="stop-color:#FF5000"/>
		<stop  offset="0.2211" style="stop-color:#FF5200"/>
		<stop  offset="0.2429" style="stop-color:#FF5900"/>
		<stop  offset="0.2584" style="stop-color:#FF6400"/>
		<stop  offset="0.2709" style="stop-color:#FF7500"/>
		<stop  offset="0.2726" style="stop-color:#FF7800"/>
		<stop  offset="0.2881" style="stop-color:#FF7100"/>
		<stop  offset="0.3402" style="stop-color:#FF5F00"/>
		<stop  offset="0.3947" style="stop-color:#FF5400"/>
		<stop  offset="0.4548" style="stop-color:#FF5000"/>
		<stop  offset="1" style="stop-color:#FF3200"/>
	</linearGradient>
	<path fill="url(#SVGID_00000071531027611842313710000008224617657353973438_)" d="M1041.176,111.539
		c1.131-5.124,1.909-10.475,2.314-15.906c0.406-5.421,0.426-10.831,0.057-16.111c-1.047-12.08-4.183-18.141-9.589-18.532
		c-53.739-3.875-108.286-6.761-162.126-8.578l-0.233-0.004c-2.046,0-3.849,0.859-5.424,2.578c-0.168,0.16-0.336,0.322-0.5,0.5
		c-0.168,0.16-0.336,0.322-0.5,0.5c-0.168,0.16-0.336,0.322-0.5,0.5c-0.168,0.16-0.336,0.322-0.5,0.5
		c-0.168,0.16-0.336,0.322-0.5,0.5c-0.168,0.16-0.336,0.322-0.5,0.5c-0.168,0.16-0.336,0.322-0.5,0.5
		c-0.168,0.16-0.336,0.322-0.5,0.5c-0.168,0.16-0.336,0.322-0.5,0.5c-1.849,1.752-3.399,4.628-4.669,8.659
		c-1.664-10.946-4.992-16.358-10.163-16.502C807.675,50.553,767.948,50,728.766,50c-14.669,0-29.545,0.078-44.214,0.23
		c-2.044,0.021-3.814,0.867-5.323,2.554c-0.168,0.162-0.338,0.319-0.5,0.5c-0.168,0.162-0.338,0.319-0.5,0.5
		c-0.168,0.162-0.338,0.319-0.5,0.5c-0.168,0.162-0.338,0.319-0.5,0.5c-0.168,0.162-0.338,0.319-0.5,0.5
		c-0.168,0.162-0.338,0.319-0.5,0.5c-0.168,0.162-0.338,0.319-0.5,0.5c-0.168,0.162-0.338,0.319-0.5,0.5
		c-0.168,0.162-0.338,0.319-0.5,0.5c-2.759,2.654-4.705,7.903-5.887,15.885c-0.688,5.208-1.001,10.608-0.932,16.05
		c0.069,5.423,0.518,10.813,1.338,16.05c2.054,11.881,5.63,17.657,11.007,17.657h0.001c13.967-0.146,28.109-0.222,42.06-0.227
		l-0.023,173.702c0.005,6.284,10.654,8.937,36.756,9.154c1.097,0.01,2.167,0.015,3.213,0.015c19.06,0,29.114-1.582,32.433-5.312
		c0.181-0.162,0.348-0.329,0.5-0.5c0.181-0.162,0.348-0.329,0.5-0.5c0.181-0.162,0.348-0.329,0.5-0.5
		c0.181-0.162,0.348-0.329,0.5-0.5c0.181-0.162,0.348-0.329,0.5-0.5c0.181-0.162,0.348-0.329,0.5-0.5
		c0.181-0.162,0.348-0.329,0.5-0.5c0.181-0.162,0.348-0.329,0.5-0.5c0.181-0.162,0.348-0.329,0.5-0.5
		c1.167-1.046,1.741-2.275,1.768-3.708l2.958-168.579c11.988,0.231,24.076,0.512,36.039,0.844l0.189,0.003
		c2.008,0,3.779-0.849,5.329-2.549c0.168-0.16,0.337-0.321,0.5-0.5c0.168-0.16,0.337-0.321,0.5-0.5c0.168-0.16,0.337-0.321,0.5-0.5
		c0.168-0.16,0.337-0.321,0.5-0.5c0.168-0.16,0.337-0.321,0.5-0.5c0.168-0.16,0.337-0.321,0.5-0.5c0.168-0.16,0.337-0.321,0.5-0.5
		c0.168-0.16,0.337-0.321,0.5-0.5c0.168-0.16,0.337-0.321,0.5-0.5c1.819-1.73,3.348-4.573,4.603-8.557
		c1.632,10.825,4.898,16.19,9.97,16.361c13.917,0.469,28.048,1.017,42.035,1.63l-7.688,173.532
		c-0.271,6.278,10.253,9.397,36.326,10.768c5.095,0.273,9.689,0.411,13.655,0.411c12.626,0,19.683-1.325,22.354-4.312
		c0.183-0.161,0.347-0.328,0.5-0.5c0.183-0.161,0.347-0.328,0.5-0.5c0.183-0.161,0.347-0.328,0.5-0.5
		c0.183-0.161,0.347-0.328,0.5-0.5c0.183-0.161,0.347-0.328,0.5-0.5c0.183-0.161,0.347-0.328,0.5-0.5
		c0.183-0.161,0.347-0.328,0.5-0.5c0.183-0.161,0.347-0.328,0.5-0.5c0.183-0.161,0.347-0.328,0.5-0.5
		c1.091-0.959,1.672-2.105,1.758-3.466l10.383-168.072c12.045,0.764,24.193,1.583,36.216,2.45c0.163,0.012,0.325,0.018,0.486,0.018
		c1.994,0,3.787-0.866,5.397-2.593c0.168-0.158,0.335-0.323,0.5-0.5c0.168-0.158,0.335-0.323,0.5-0.5
		c0.168-0.158,0.335-0.323,0.5-0.5c0.168-0.158,0.335-0.323,0.5-0.5c0.168-0.158,0.335-0.323,0.5-0.5
		c0.168-0.158,0.335-0.323,0.5-0.5c0.168-0.158,0.335-0.323,0.5-0.5c0.168-0.158,0.335-0.323,0.5-0.5
		c0.168-0.158,0.335-0.323,0.5-0.5C1037.195,123.88,1039.412,118.955,1041.176,111.539z"/>
	
		<linearGradient id="SVGID_00000054253248028097972650000006351415958424954302_" gradientUnits="userSpaceOnUse" x1="1084.5209" y1="304.7851" x2="1082.8652" y2="46.4906">
		<stop  offset="0" style="stop-color:#FF3200"/>
		<stop  offset="0.1605" style="stop-color:#FF5000"/>
		<stop  offset="0.2211" style="stop-color:#FF5200"/>
		<stop  offset="0.2429" style="stop-color:#FF5900"/>
		<stop  offset="0.2584" style="stop-color:#FF6400"/>
		<stop  offset="0.2709" style="stop-color:#FF7500"/>
		<stop  offset="0.2726" style="stop-color:#FF7800"/>
		<stop  offset="0.2881" style="stop-color:#FF7100"/>
		<stop  offset="0.3402" style="stop-color:#FF5F00"/>
		<stop  offset="0.3947" style="stop-color:#FF5400"/>
		<stop  offset="0.4548" style="stop-color:#FF5000"/>
		<stop  offset="1" style="stop-color:#FF3200"/>
	</linearGradient>
	<path fill="url(#SVGID_00000054253248028097972650000006351415958424954302_)" d="M1125.505,68.589
		c-19.492-1.831-39.27-3.55-58.785-5.109c-0.297-0.024-0.586-0.036-0.867-0.036c-1.872,0-3.468,0.518-4.745,1.539
		c-0.287,0.23-0.543,0.485-0.783,0.752c-0.177,0.159-0.344,0.325-0.5,0.5c-0.177,0.159-0.344,0.325-0.5,0.5
		c-0.177,0.159-0.344,0.325-0.5,0.5c-0.177,0.159-0.344,0.325-0.5,0.5c-0.177,0.159-0.344,0.325-0.5,0.5
		c-0.177,0.159-0.344,0.325-0.5,0.5c-0.177,0.159-0.344,0.325-0.5,0.5c-0.177,0.159-0.344,0.325-0.5,0.5
		c-0.177,0.159-0.344,0.325-0.5,0.5c-1.327,1.191-2.089,2.825-2.251,4.873l-18.369,233.779c-0.171,2.178,0.361,4,1.573,5.402
		c1.208,1.418,2.927,2.225,5.109,2.399c18.383,1.469,37,3.087,55.334,4.809c0.317,0.03,0.625,0.044,0.924,0.044
		c1.771,0,3.292-0.512,4.519-1.521c0.258-0.212,0.489-0.446,0.708-0.69c0.177-0.158,0.343-0.325,0.5-0.5
		c0.177-0.158,0.343-0.325,0.5-0.5c0.177-0.158,0.343-0.325,0.5-0.5c0.177-0.158,0.343-0.325,0.5-0.5
		c0.177-0.158,0.343-0.325,0.5-0.5c0.177-0.158,0.343-0.325,0.5-0.5c0.177-0.158,0.343-0.325,0.5-0.5
		c0.177-0.158,0.343-0.325,0.5-0.5c0.177-0.158,0.343-0.325,0.5-0.5c1.313-1.177,2.085-2.809,2.28-4.865l22.235-233.442
		c0.209-2.184-0.333-4.029-1.616-5.491C1129.52,69.622,1127.748,68.799,1125.505,68.589z"/>
	
		<linearGradient id="SVGID_00000138570378158623062230000014726030541347848636_" gradientUnits="userSpaceOnUse" x1="1257.4785" y1="303.6764" x2="1255.8228" y2="45.3759">
		<stop  offset="0" style="stop-color:#FF3200"/>
		<stop  offset="0.1605" style="stop-color:#FF5000"/>
		<stop  offset="0.2211" style="stop-color:#FF5200"/>
		<stop  offset="0.2429" style="stop-color:#FF5900"/>
		<stop  offset="0.2584" style="stop-color:#FF6400"/>
		<stop  offset="0.2709" style="stop-color:#FF7500"/>
		<stop  offset="0.2726" style="stop-color:#FF7800"/>
		<stop  offset="0.2881" style="stop-color:#FF7100"/>
		<stop  offset="0.3402" style="stop-color:#FF5F00"/>
		<stop  offset="0.3947" style="stop-color:#FF5400"/>
		<stop  offset="0.4548" style="stop-color:#FF5000"/>
		<stop  offset="1" style="stop-color:#FF3200"/>
	</linearGradient>
	<path fill="url(#SVGID_00000138570378158623062230000014726030541347848636_)" d="M1357.446,125.896
		c-18.562-24.338-45.923-39.014-81.326-43.619c-6.812-0.885-13.532-1.333-19.977-1.333c-26.977,0-50.769,7.783-70.714,23.132
		c-3.185,2.449-6.198,5.103-9.046,7.95c-0.168,0.165-0.333,0.333-0.5,0.5c-0.168,0.165-0.333,0.333-0.5,0.5
		c-0.168,0.165-0.333,0.333-0.5,0.5c-0.168,0.165-0.333,0.333-0.5,0.5c-0.168,0.165-0.333,0.333-0.5,0.5
		c-0.168,0.165-0.333,0.333-0.5,0.5c-0.168,0.165-0.333,0.333-0.5,0.5c-0.168,0.165-0.333,0.333-0.5,0.5
		c-0.168,0.165-0.333,0.333-0.5,0.5c-19.345,19.05-30.999,47.108-34.683,83.604c-4.146,41.072,3.299,74.115,22.128,98.213
		c18.869,24.135,44.315,37.977,77.79,42.316c6.564,0.852,13.031,1.284,19.221,1.284c24.994,0,47.47-7.091,66.803-21.079
		c3.92-2.839,7.614-6.008,11.086-9.493c0.167-0.166,0.334-0.333,0.5-0.5c0.167-0.166,0.334-0.333,0.5-0.5
		c0.167-0.166,0.334-0.333,0.5-0.5c0.167-0.166,0.334-0.333,0.5-0.5c0.167-0.166,0.334-0.333,0.5-0.5
		c0.167-0.166,0.334-0.333,0.5-0.5c0.167-0.166,0.334-0.333,0.5-0.5c0.167-0.166,0.334-0.333,0.5-0.5
		c0.167-0.166,0.334-0.333,0.5-0.5c18.407-18.2,30.568-45.312,36.211-80.832C1381.676,183.628,1375.791,149.936,1357.446,125.896z
		 M1251.414,264.008c-11.385-1.477-19.773-7.176-25.646-17.423c-5.934-10.35-7.859-24.65-5.725-42.503
		c1.963-16.444,6.777-29.206,14.308-38.02c6.687-5.709,14.097-8.6,22.076-8.6c1.502,0,3.051,0.102,4.602,0.303
		c11,1.428,19.702,7.438,25.866,17.863c6.225,10.535,8.104,24.994,5.587,42.975c-2.293,16.374-7.167,28.997-14.486,37.609
		c-6.443,5.459-13.55,8.126-21.622,8.126C1254.765,264.336,1253.096,264.226,1251.414,264.008z"/>
</g>
<g>
	<path fill="#FFFF00" d="M106.33,258.859c5.035,2.766,12.199,7.68,24.086,12.049c11.887,4.375,22.808,5.864,32.848,4.456
		c10.032-1.405,14.535-5.894,13.497-13.527c-0.473-3.468-2.312-6.336-5.527-8.605c-3.215-2.262-8.866-4.608-16.966-6.998
		c-8.107-2.388-14.216-4.271-18.31-5.681c-4.099-1.403-9.64-3.895-16.635-7.45c-7.001-3.553-12.554-7.486-16.646-11.816
		c-11.592-11.677-19.043-27.621-22.228-47.91c-3.184-20.276,2.079-38.662,16.057-55.058c13.963-16.38,34.158-26.482,60.359-30.034
		c17.793-2.411,34.476-2.731,49.993-1.006c15.514,1.735,23.838,5.53,25.015,11.257c0.082,0.695,0.164,1.39,0.246,2.085
		c0.958,8.115-0.804,24.939-4.692,37.974c-3.891,13.042-6.071,14.656-8.167,16.182c-16.501-5.733-31.371-8.135-43.666-6.501
		c-12.306,1.639-17.878,6.659-16.73,14.977c0.7,5.089,5.806,8.972,15.288,11.699c2.059,0.668,5.014,1.569,8.855,2.705
		c3.842,1.142,8.262,2.504,13.255,4.093c4.995,1.595,10.42,3.726,16.266,6.4c5.847,2.679,12.238,6.415,19.166,11.217
		c14.148,10.048,22.25,24.626,24.453,43.625c2.876,24.809-1.766,45.881-13.663,63.304c-11.918,17.439-32.031,28.152-60.545,32.55
		c-13.944,1.921-26.707,2.573-38.316,1.929c-11.613-0.642-22.109-3.645-31.534-9.034c-9.423-5.382-14.913-12.773-16.411-22.227
		c-1.496-9.446-1.227-19.119,0.847-29.011C98.599,270.615,102.501,262.585,106.33,258.859z"/>
	<path fill="#FFFF00" d="M288.562,301.324c-7.917-72.133-15.833-144.267-23.75-216.4c-0.538-4.857,11.751-8.728,36.901-11.274
		c25.146-2.52,37.958-1.177,38.4,3.69c5.22,56.928,10.44,113.856,15.66,170.784c18.282-1.676,36.573-3.229,54.871-4.657
		c4.278-0.334,7.668,4.909,10.156,15.716c1.115,5.302,1.882,10.739,2.305,16.323c0.422,5.585,2.122,13.682,1.86,19.549
		c-1.036,11.311-5.264,14.757-9.47,15.086c-35.994,2.812-71.959,6.113-107.886,9.902c-5.133,0.542-9.439-1.106-12.926-4.952
		C291.19,311.246,289.147,306.663,288.562,301.324z"/>
	<path fill="#FFFF00" d="M551.265,305.359c-32.852,1.449-60.137-7.699-82.372-27.79c-22.206-20.074-35.041-50.516-38.018-91.602
		c-2.976-41.062,5.64-73.018,26.368-95.636c20.694-22.597,48.883-34.886,84.079-36.428c35.19-1.536,64.018,8.083,85.982,28.446
		c21.994,20.381,33.081,51.865,33.738,94.2c0.657,42.354-9.5,73.98-29.975,95.114C610.555,292.81,584.112,303.917,551.265,305.359z
		 M543.341,121.079c-11.747,0.517-21.364,6.128-28.757,16.784c-7.402,10.663-10.556,25.264-9.554,43.785
		c1.001,18.524,5.493,32.533,13.397,42.055c7.906,9.529,17.825,14.001,29.838,13.472c12.007-0.528,21.553-5.916,28.71-16.221
		c7.151-10.299,10.453-24.764,9.821-43.425c-0.631-18.652-5.057-32.866-13.352-42.604
		C565.149,125.195,555.088,120.563,543.341,121.079z"/>
	<path fill="#FFFF00" d="M796.962,293.016c-0.087,4.681-11.717,6.756-34.895,6.54c-23.18-0.193-34.771-2.475-34.775-7.156
		c0.008-58.567,0.016-117.133,0.023-175.7c-14.693-0.002-29.387,0.074-44.08,0.227c-4.165,0.044-7.165-5.285-9.017-15.998
		c-0.802-5.12-1.24-10.365-1.308-15.735c-0.069-5.364,0.235-10.619,0.914-15.763c1.593-10.751,5.909-17.109,10.14-17.153
		c54.073-0.563,106.763,0.859,160.823,2.364c4.224,0.118,7.053,5.575,8.466,16.351c0.589,5.155,0.801,10.414,0.638,15.776
		c-0.163,5.368,0.944,11.979,0.053,17.085c-2.046,10.679-6.77,14.579-10.93,14.463c-14.322-0.399-28.645-0.724-42.97-0.975
		C799.017,175.901,797.989,234.458,796.962,293.016z"/>
	<path fill="#FFFF00" d="M975.493,299.014c-0.292,4.672-14.01,7.232-37.163,5.993c-23.156-1.217-34.637-4.007-34.435-8.684
		c2.592-58.509,5.185-117.019,7.777-175.528c-14.682-0.651-29.368-1.224-44.055-1.719c-4.163-0.14-6.926-5.596-8.303-16.38
		c-0.576-5.151-0.781-10.41-0.613-15.777c0.167-5.362,0.703-10.598,1.609-15.707c2.066-10.67,6.487-16.911,10.716-16.768
		c54.052,1.824,106.819,5.65,160.789,9.542c4.217,0.304,6.803,5.881,7.741,16.71c0.362,5.176,0.341,10.439-0.058,15.789
		c-0.4,5.355,0.143,12.289-0.973,17.35c-2.517,10.578-7.139,13.986-11.291,13.687c-14.298-1.031-28.6-1.989-42.906-2.872
		C980.715,183.103,979.104,240.559,975.493,299.014z"/>
	<path fill="#FFFF00" d="M1041.3,308.993c-0.864-1.001-1.229-2.318-1.101-3.948c6.123-77.926,12.246-155.853,18.369-233.779
		c0.127-1.625,0.722-2.867,1.789-3.721c1.061-0.849,3.757-2.239,5.496-2.1c19.594,1.566,37.888,4.297,57.464,6.135
		c1.731,0.163,3.052,0.76,3.956,1.78c0.899,1.025,1.276,2.352,1.121,3.974c-7.412,77.814-13.48,155.609-20.892,233.424
		c-0.155,1.627-0.13,1.836-1.11,2.719c-1.805,1.628-4.353,2.184-5.984,2.03c-18.446-1.732-36.9-3.336-55.362-4.811
		C1043.408,310.565,1042.158,309.999,1041.3,308.993z"/>
	<path fill="#FFFF00" d="M1240.377,334.674c-32.67-4.235-58.006-17.945-76.473-41.564c-18.439-23.598-25.85-55.795-21.713-96.78
		c4.135-40.961,18.126-70.958,42.458-89.669c24.295-18.697,54.213-25.947,89.213-21.401c34.995,4.552,61.806,18.999,79.994,42.848
		c18.215,23.872,23.75,56.8,17.107,98.616c-6.645,41.835-22.129,71.234-45.994,88.519
		C1301.068,332.535,1273.042,338.915,1240.377,334.674z M1264.288,151.78c-11.682-1.516-22.138,2.355-31.266,11.578
		c-9.138,9.228-14.764,23.068-16.964,41.486c-2.202,18.42-0.183,32.993,5.976,43.735c6.158,10.748,15.177,16.863,27.123,18.412
		c11.941,1.549,22.292-2.112,31.132-11.03c8.833-8.912,14.584-22.592,17.174-41.083c2.589-18.483,0.667-33.247-5.845-44.27
		C1285.104,159.594,1275.969,153.297,1264.288,151.78z"/>
</g>
<g>
	<g>
		
			<linearGradient id="SVGID_00000003808724747628174600000005750037278789486263_" gradientUnits="userSpaceOnUse" x1="170.2616" y1="340.0179" x2="170.2616" y2="52.0001">
			<stop  offset="4.546958e-04" style="stop-color:#FF8A00"/>
			<stop  offset="0.1223" style="stop-color:#FF9200"/>
			<stop  offset="0.3145" style="stop-color:#FFA900"/>
			<stop  offset="0.5527" style="stop-color:#FFCE00"/>
			<stop  offset="0.8177" style="stop-color:#FFFF00"/>
			<stop  offset="1" style="stop-color:#FFE400"/>
		</linearGradient>
		<path fill="url(#SVGID_00000003808724747628174600000005750037278789486263_)" d="M107.003,259.237
			c5.035,2.766,13.527,6.303,25.413,10.672c11.887,4.375,22.808,5.864,32.848,4.456c10.032-1.405,14.535-5.894,13.497-13.527
			c-0.473-3.468-2.312-6.336-5.527-8.605c-3.215-2.262-8.866-4.608-16.966-6.998c-8.107-2.388-14.216-4.271-18.31-5.681
			c-4.099-1.403-9.64-3.895-16.635-7.45c-7.001-3.553-12.554-7.486-16.646-11.816c-11.592-11.677-19.043-27.621-22.228-47.91
			c-3.184-20.276,2.079-38.662,16.057-55.058c13.963-16.38,34.158-26.482,60.359-30.034c17.793-2.411,34.476-2.731,49.993-1.006
			c15.514,1.735,23.838,5.53,25.015,11.257c0.082,0.695,0.164,1.39,0.246,2.085c0.958,8.115-0.549,18.687-4.437,31.721
			c-3.891,13.042-6.808,20.391-8.827,22.049c-16.501-5.733-30.965-7.749-43.26-6.115c-12.306,1.639-17.878,6.659-16.73,14.977
			c0.7,5.089,5.806,8.972,15.288,11.699c2.059,0.668,5.014,1.569,8.855,2.705c3.842,1.142,8.262,2.504,13.255,4.093
			c4.995,1.595,10.42,3.726,16.266,6.4c5.847,2.679,12.238,6.415,19.166,11.217c14.148,10.048,22.25,24.626,24.453,43.625
			c2.876,24.809-1.766,45.881-13.663,63.304c-11.918,17.439-32.031,28.152-60.545,32.55c-13.944,1.921-26.707,2.573-38.316,1.929
			c-11.613-0.642-22.109-3.645-31.534-9.034c-9.423-5.382-14.913-12.773-16.411-22.227c-1.496-9.446-1.227-19.119,0.847-29.011
			C100.599,269.615,103.429,262.859,107.003,259.237z"/>
		
			<linearGradient id="SVGID_00000073723123246515710410000015590482783199836847_" gradientUnits="userSpaceOnUse" x1="346.1434" y1="340.0179" x2="346.1434" y2="52.0001">
			<stop  offset="4.546958e-04" style="stop-color:#FF8A00"/>
			<stop  offset="0.1223" style="stop-color:#FF9200"/>
			<stop  offset="0.3145" style="stop-color:#FFA900"/>
			<stop  offset="0.5527" style="stop-color:#FFCE00"/>
			<stop  offset="0.8177" style="stop-color:#FFFF00"/>
			<stop  offset="1" style="stop-color:#FFE400"/>
		</linearGradient>
		<path fill="url(#SVGID_00000073723123246515710410000015590482783199836847_)" d="M290.562,300.324
			c-7.917-72.133-15.833-144.267-23.75-216.4c-0.538-4.857,11.751-8.728,36.901-11.274c25.146-2.52,37.958-1.177,38.4,3.69
			c5.22,56.928,10.44,113.856,15.66,170.784c18.282-1.676,36.573-3.229,54.871-4.657c4.278-0.334,7.668,4.909,10.156,15.716
			c1.115,5.302,1.882,10.739,2.305,16.323c0.422,5.585,0.499,11.315,0.236,17.182c-1.036,11.311-3.64,17.125-7.846,17.453
			c-35.994,2.812-71.959,6.113-107.886,9.902c-5.133,0.542-9.439-1.106-12.926-4.952
			C293.19,310.246,291.147,305.663,290.562,300.324z"/>
		
			<linearGradient id="SVGID_00000057118025915870279630000012599223587945261743_" gradientUnits="userSpaceOnUse" x1="547.6876" y1="340.0179" x2="547.6876" y2="52.0001">
			<stop  offset="4.546958e-04" style="stop-color:#FF8A00"/>
			<stop  offset="0.1223" style="stop-color:#FF9200"/>
			<stop  offset="0.3145" style="stop-color:#FFA900"/>
			<stop  offset="0.5527" style="stop-color:#FFCE00"/>
			<stop  offset="0.8177" style="stop-color:#FFFF00"/>
			<stop  offset="1" style="stop-color:#FFE400"/>
		</linearGradient>
		<path fill="url(#SVGID_00000057118025915870279630000012599223587945261743_)" d="M553.265,304.359
			c-32.852,1.449-60.137-7.699-82.372-27.79c-22.206-20.074-35.041-50.516-38.018-91.602c-2.976-41.062,5.64-73.018,26.368-95.636
			c20.694-22.597,48.883-34.886,84.079-36.428c35.19-1.536,64.018,8.083,85.982,28.446c21.994,20.381,33.081,51.865,33.738,94.2
			c0.657,42.354-9.5,73.98-29.975,95.114C612.555,291.81,586.112,302.917,553.265,304.359z M545.341,120.079
			c-11.747,0.517-21.364,6.128-28.757,16.784c-7.402,10.663-10.556,25.264-9.554,43.785c1.001,18.524,5.493,32.533,13.397,42.055
			c7.906,9.529,17.825,14.001,29.838,13.472c12.007-0.528,21.553-5.916,28.71-16.221c7.151-10.299,10.453-24.764,9.821-43.425
			c-0.631-18.652-5.057-32.866-13.352-42.604C567.149,124.195,557.088,119.563,545.341,120.079z"/>
		
			<linearGradient id="SVGID_00000009549513264300326180000005745292581883239317_" gradientUnits="userSpaceOnUse" x1="765.4223" y1="340.0179" x2="765.4223" y2="52.0001">
			<stop  offset="4.546958e-04" style="stop-color:#FF8A00"/>
			<stop  offset="0.1223" style="stop-color:#FF9200"/>
			<stop  offset="0.3145" style="stop-color:#FFA900"/>
			<stop  offset="0.5527" style="stop-color:#FFCE00"/>
			<stop  offset="0.8177" style="stop-color:#FFFF00"/>
			<stop  offset="1" style="stop-color:#FFE400"/>
		</linearGradient>
		<path fill="url(#SVGID_00000009549513264300326180000005745292581883239317_)" d="M798.962,292.016
			c-0.087,4.681-11.717,6.756-34.895,6.54c-23.18-0.193-34.771-2.475-34.775-7.156c0.008-58.567,0.016-117.133,0.023-175.7
			c-14.693-0.002-29.387,0.074-44.08,0.227c-4.165,0.044-7.165-5.285-9.017-15.998c-0.802-5.12-1.24-10.365-1.308-15.735
			c-0.069-5.364,0.235-10.619,0.914-15.763c1.593-10.751,4.517-16.157,8.748-16.202c54.073-0.563,108.155-0.093,162.215,1.412
			c4.224,0.118,7.053,5.575,8.466,16.351c0.589,5.155,0.801,10.414,0.638,15.776c-0.163,5.368-0.69,10.604-1.581,15.71
			c-2.046,10.679-5.136,15.954-9.296,15.838c-14.322-0.399-28.645-0.724-42.97-0.975
			C801.017,174.901,799.989,233.458,798.962,292.016z"/>
		
			<linearGradient id="SVGID_00000173870236121491111720000013679588792702365056_" gradientUnits="userSpaceOnUse" x1="951.2281" y1="340.0179" x2="951.2281" y2="52.0001">
			<stop  offset="4.546958e-04" style="stop-color:#FF8A00"/>
			<stop  offset="0.1223" style="stop-color:#FF9200"/>
			<stop  offset="0.3145" style="stop-color:#FFA900"/>
			<stop  offset="0.5527" style="stop-color:#FFCE00"/>
			<stop  offset="0.8177" style="stop-color:#FFFF00"/>
			<stop  offset="1" style="stop-color:#FFE400"/>
		</linearGradient>
		<path fill="url(#SVGID_00000173870236121491111720000013679588792702365056_)" d="M975.493,299.014
			c-0.292,4.672-12.01,6.232-35.163,4.993c-23.156-1.217-34.637-4.007-34.435-8.684c2.592-58.509,5.185-117.019,7.777-175.528
			c-14.682-0.651-29.368-1.224-44.055-1.719c-4.163-0.14-6.926-5.596-8.303-16.38c-0.576-5.151-0.781-10.41-0.613-15.777
			c0.167-5.362,0.703-10.598,1.609-15.707c2.066-10.67,5.226-15.942,9.455-15.8c54.052,1.824,108.079,4.681,162.049,8.573
			c4.217,0.304,6.803,5.881,7.741,16.71c0.362,5.176,0.341,10.439-0.058,15.789c-0.4,5.355-1.157,10.563-2.274,15.624
			c-2.517,10.578-5.839,15.712-9.991,15.412c-14.298-1.031-28.6-1.989-42.906-2.872
			C982.715,182.103,979.104,240.559,975.493,299.014z"/>
		
			<linearGradient id="SVGID_00000013165875367686851490000004846332158564049810_" gradientUnits="userSpaceOnUse" x1="1086.3019" y1="340.0179" x2="1086.3019" y2="52.0001">
			<stop  offset="4.546958e-04" style="stop-color:#FF8A00"/>
			<stop  offset="0.1223" style="stop-color:#FF9200"/>
			<stop  offset="0.3145" style="stop-color:#FFA900"/>
			<stop  offset="0.5527" style="stop-color:#FFCE00"/>
			<stop  offset="0.8177" style="stop-color:#FFFF00"/>
			<stop  offset="1" style="stop-color:#FFE400"/>
		</linearGradient>
		<path fill="url(#SVGID_00000013165875367686851490000004846332158564049810_)" d="M1043.3,307.993
			c-0.864-1.001-1.229-2.318-1.101-3.948c6.123-77.926,12.246-155.853,18.369-233.779c0.127-1.625,0.722-2.867,1.789-3.721
			c1.061-0.849,2.464-1.21,4.203-1.07c19.594,1.566,39.18,3.268,58.757,5.106c1.731,0.163,3.052,0.76,3.956,1.78
			c0.899,1.025,1.276,2.352,1.121,3.974c-7.412,77.814-14.823,155.629-22.235,233.443c-0.155,1.627-0.748,2.862-1.767,3.699
			c-1.024,0.843-2.353,1.184-3.984,1.03c-18.446-1.732-36.9-3.336-55.362-4.811C1045.408,309.565,1044.158,308.999,1043.3,307.993z"
			/>
		
			<linearGradient id="SVGID_00000116219074725035331480000013441340538402222747_" gradientUnits="userSpaceOnUse" x1="1259.3738" y1="340.0179" x2="1259.3738" y2="52.0001">
			<stop  offset="4.546958e-04" style="stop-color:#FF8A00"/>
			<stop  offset="0.1223" style="stop-color:#FF9200"/>
			<stop  offset="0.3145" style="stop-color:#FFA900"/>
			<stop  offset="0.5527" style="stop-color:#FFCE00"/>
			<stop  offset="0.8177" style="stop-color:#FFFF00"/>
			<stop  offset="1" style="stop-color:#FFE400"/>
		</linearGradient>
		<path fill="url(#SVGID_00000116219074725035331480000013441340538402222747_)" d="M1242.377,333.674
			c-32.67-4.235-58.006-17.945-76.473-41.564c-18.439-23.598-25.85-55.795-21.713-96.78c4.135-40.961,18.126-70.958,42.458-89.669
			c24.295-18.697,54.213-25.947,89.213-21.401c34.995,4.552,61.806,18.999,79.994,42.848c18.215,23.872,23.75,56.8,17.107,98.616
			c-6.645,41.835-22.129,71.234-45.994,88.519C1303.068,331.535,1275.042,337.915,1242.377,333.674z M1266.288,150.78
			c-11.682-1.516-22.138,2.355-31.266,11.578c-9.138,9.228-14.764,23.068-16.964,41.486c-2.202,18.42-0.183,32.993,5.976,43.735
			c6.158,10.748,15.177,16.863,27.123,18.412c11.941,1.549,22.292-2.112,31.132-11.03c8.833-8.912,14.584-22.592,17.174-41.083
			c2.589-18.483,0.667-33.247-5.845-44.27C1287.104,158.594,1277.969,152.297,1266.288,150.78z"/>
	</g>
</g>
<g opacity="0.74">
	<g>
		<path fill="#FFF800" d="M188.704,88.193c6.769,0,13.438,0.36,19.819,1.069c13.275,1.485,21.418,4.679,22.387,8.773l0.106,0.896
			l0.123,1.043c0.897,7.6-0.56,17.866-4.333,30.512c-3.712,12.443-5.88,17.407-7.001,19.381
			c-12.257-4.074-23.568-6.138-33.648-6.138c-3.078,0-6.092,0.193-8.96,0.574c-8.223,1.095-13.723,3.602-16.815,7.665
			c-2.228,2.927-3.066,6.526-2.491,10.695c0.882,6.409,6.568,11.041,17.382,14.159c2.052,0.665,4.958,1.552,8.878,2.712
			c3.927,1.167,8.368,2.539,13.198,4.076c4.88,1.558,10.24,3.668,15.928,6.27c5.68,2.602,11.974,6.288,18.678,10.936
			c13.302,9.447,21.111,23.418,23.21,41.525c2.762,23.821-1.666,44.434-13.16,61.266c-11.438,16.737-30.581,26.968-58.477,31.271
			c-10.314,1.421-20.078,2.141-29.021,2.141c-2.966,0-5.9-0.079-8.72-0.235c-11.089-0.613-21.253-3.521-30.212-8.644
			c-8.695-4.966-13.58-11.538-14.936-20.091c-1.438-9.078-1.161-18.474,0.82-27.926c1.649-7.862,3.758-13.602,6.284-17.112
			c5.175,2.592,12.948,5.786,23.635,9.713c9.292,3.42,18.176,5.154,26.405,5.154c2.673,0,5.33-0.182,7.895-0.542
			c6.726-0.942,17.755-4.39,16.054-16.903c-0.588-4.312-2.866-7.896-6.773-10.653c-3.552-2.5-9.389-4.928-17.845-7.423
			c-8.509-2.507-14.287-4.299-18.187-5.641c-3.881-1.328-9.348-3.779-16.249-7.286c-6.679-3.39-12.003-7.158-15.824-11.201
			l-0.025-0.027l-0.026-0.026c-11.138-11.219-18.335-26.784-21.393-46.262c-3.046-19.393,2.128-37.105,15.376-52.646
			c13.481-15.815,33.157-25.574,58.479-29.008C169.387,88.888,179.291,88.193,188.704,88.193 M188.704,85.193
			c-9.565,0-19.517,0.695-29.84,2.094c-26.201,3.552-46.396,13.654-60.359,30.034c-13.977,16.396-19.241,34.782-16.057,55.058
			c3.185,20.288,10.636,36.233,22.228,47.91c4.092,4.33,9.645,8.263,16.646,11.816c6.995,3.555,12.536,6.047,16.635,7.45
			c4.094,1.41,10.204,3.293,18.31,5.681c8.1,2.39,13.752,4.736,16.966,6.998c3.215,2.269,5.054,5.137,5.527,8.605
			c1.038,7.632-3.465,12.122-13.497,13.527c-2.441,0.342-4.933,0.513-7.479,0.513c-7.927,0-16.372-1.658-25.369-4.97
			c-11.887-4.369-20.378-7.905-25.413-10.672c-3.573,3.622-6.403,10.378-8.477,20.27c-2.074,9.892-2.343,19.564-0.847,29.011
			c1.498,9.454,6.988,16.844,16.411,22.227c9.425,5.389,19.921,8.392,31.534,9.034c2.891,0.16,5.851,0.24,8.886,0.24
			c9.151,0,18.958-0.727,29.43-2.169c28.513-4.398,48.627-15.111,60.545-32.55c11.898-17.423,16.54-38.495,13.663-63.304
			c-2.203-18.999-10.305-33.577-24.453-43.625c-6.928-4.803-13.319-8.538-19.166-11.217c-5.846-2.674-11.27-4.805-16.266-6.4
			c-4.994-1.589-9.414-2.951-13.255-4.093c-3.841-1.136-6.796-2.037-8.855-2.705c-9.483-2.727-14.588-6.61-15.288-11.699
			c-1.148-8.318,4.424-13.338,16.73-14.977c2.747-0.365,5.602-0.548,8.564-0.548c10.295,0,21.882,2.211,34.696,6.663
			c2.019-1.658,4.937-9.007,8.827-22.049c3.888-13.035,5.395-23.606,4.437-31.721c-0.082-0.695-0.164-1.39-0.246-2.085
			c-1.178-5.727-9.502-9.522-25.015-11.257C202.343,85.557,195.625,85.193,188.704,85.193L188.704,85.193z"/>
		<path fill="#FFF800" d="M324.63,74.405c12.136,0,14.267,2.001,14.501,2.276l10.353,112.905l5.301,57.811l0.274,2.987l2.987-0.274
			c18.18-1.667,36.628-3.233,54.831-4.653c0.05-0.004,0.099-0.006,0.149-0.006c1.819,0,4.571,3.515,6.844,13.376
			c1.079,5.135,1.834,10.486,2.243,15.905c0.408,5.401,0.487,11.036,0.234,16.751c-0.979,10.595-3.268,14.525-5.086,14.667
			c-35.864,2.802-72.189,6.136-107.967,9.91c-0.528,0.056-1.05,0.084-1.552,0.084c-3.465,0-6.355-1.331-8.839-4.069
			c-3.088-3.401-4.841-7.352-5.359-12.078l-8.986-81.872L269.801,83.66c0.244-0.493,3.266-4.892,34.211-8.025
			c8.143-0.816,15.079-1.23,20.617-1.23H324.63 M324.627,71.405c-5.619,0-12.593,0.411-20.914,1.245
			c-25.15,2.546-37.439,6.416-36.901,11.274c7.917,72.133,15.833,144.267,23.75,216.4c0.586,5.339,2.629,9.922,6.12,13.768
			c3.056,3.371,6.74,5.053,11.06,5.053c0.609,0,1.232-0.034,1.867-0.1c35.927-3.789,71.892-7.09,107.886-9.902
			c4.206-0.329,6.81-6.142,7.846-17.453c0.263-5.867,0.186-11.597-0.236-17.182c-0.422-5.584-1.189-11.021-2.305-16.323
			c-2.413-10.484-5.675-15.731-9.774-15.731c-0.126,0-0.254,0.005-0.382,0.015c-18.298,1.428-36.589,2.98-54.871,4.657
			c-5.22-56.928-10.44-113.856-15.66-170.784C341.817,73.084,335.987,71.405,324.627,71.405L324.627,71.405z"/>
		<path fill="#FFF800" d="M550.51,55.745c31.031,0,56.855,9.355,76.755,27.805c10.553,9.779,18.656,22.454,24.084,37.675
			c5.446,15.269,8.371,33.562,8.694,54.372c0.637,41.088-9.164,72.371-29.129,92.979c-20.024,20.644-45.465,31.368-77.78,32.787
			c-2.19,0.097-4.384,0.146-6.52,0.146c-29.368,0-53.479-8.885-73.708-27.164c-21.69-19.608-34.151-49.752-37.037-89.593
			c-1.461-20.164-0.05-38.24,4.196-53.724c4.238-15.458,11.436-28.804,21.393-39.668c20.172-22.027,47.76-33.957,81.997-35.457
			c2.369-0.103,4.743-0.156,7.055-0.156H550.51 M548.377,239.217c0.664,0,1.344-0.015,2.02-0.045
			c12.925-0.568,23.37-6.459,31.043-17.507c7.521-10.831,11.005-26.051,10.355-45.237c-0.653-19.303-5.385-34.257-14.067-44.449
			c-8.45-9.912-18.757-14.939-30.633-14.939c-0.621,0-1.256,0.014-1.886,0.042c-12.698,0.558-23.159,6.638-31.09,18.07
			c-7.729,11.133-11.122,26.494-10.085,45.658c1.03,19.052,5.769,33.791,14.084,43.809
			C526.154,234.305,536.335,239.217,548.377,239.217 M550.508,52.745c-2.364,0-4.761,0.053-7.186,0.159
			c-35.196,1.542-63.385,13.831-84.079,36.428c-20.728,22.618-29.344,54.574-26.368,95.636
			c2.976,41.086,15.812,71.528,38.018,91.602c20.718,18.72,45.815,27.938,75.72,27.938c2.19,0,4.411-0.05,6.652-0.148
			c32.846-1.442,59.29-12.549,79.801-33.695c20.476-21.134,30.632-52.76,29.975-95.114c-0.657-42.335-11.744-73.819-33.738-94.2
			C608.853,62.389,582.455,52.744,550.508,52.745L550.508,52.745z M548.377,236.217c-11.168,0-20.463-4.489-27.95-13.514
			c-7.904-9.522-12.396-23.531-13.397-42.055c-1.002-18.521,2.152-33.123,9.554-43.785c7.393-10.656,17.011-16.267,28.757-16.784
			c0.589-0.026,1.173-0.039,1.754-0.039c10.997,0,20.471,4.643,28.35,13.885c8.295,9.737,12.721,23.951,13.352,42.604
			c0.632,18.661-2.67,33.126-9.821,43.425c-7.157,10.306-16.703,15.694-28.71,16.221
			C549.629,236.203,549.001,236.217,548.377,236.217L548.377,236.217z"/>
		<path fill="#FFF800" d="M728.765,55c39.137,0,78.817,0.552,117.938,1.641c1.829,0.051,4.252,3.682,5.572,13.718
			c0.567,4.974,0.775,10.128,0.617,15.321c-0.157,5.199-0.675,10.341-1.529,15.236c-1.894,9.883-4.453,13.405-6.216,13.405
			l-0.05-0.001c-14.264-0.397-28.732-0.725-43.001-0.976l-3-0.053l-0.053,3l-2.462,140.295l-0.619,35.303
			c-0.359,0.539-3.54,3.684-28.704,3.684c-1.031,0-2.084-0.005-3.168-0.015c-28.061-0.234-31.432-3.657-31.8-4.231l0.011-84.522
			l0.012-91.103l0-3l-3-0.001l-0.559,0c-14.448,0-29.101,0.076-43.571,0.227c-1.777,0-4.289-3.549-6.002-13.462
			c-0.778-4.967-1.206-10.117-1.273-15.309c-0.067-5.2,0.232-10.358,0.882-15.284c1.486-10.029,3.977-13.622,5.811-13.641
			C699.255,55.077,714.113,55,728.765,55 M728.765,52c-14.73,0-29.464,0.077-44.194,0.23c-4.231,0.044-7.154,5.451-8.748,16.202
			c-0.679,5.144-0.983,10.399-0.914,15.763c0.069,5.37,0.506,10.614,1.308,15.735c1.844,10.669,4.827,15.998,8.966,15.998
			c0.017,0,0.034,0,0.051,0c14.507-0.151,29.013-0.227,43.521-0.227c0.186,0,0.373,0,0.559,0
			c-0.008,58.567-0.016,117.133-0.023,175.7c0.004,4.681,11.595,6.962,34.775,7.156c1.091,0.01,2.153,0.015,3.193,0.015
			c21.052,0,31.62-2.095,31.703-6.556c1.027-58.558,2.055-117.115,3.082-175.673c14.325,0.251,28.648,0.576,42.97,0.975
			c0.045,0.001,0.089,0.002,0.134,0.002c4.092,0,7.138-5.277,9.162-15.84c0.891-5.105,1.419-10.342,1.581-15.71
			c0.162-5.362-0.049-10.621-0.638-15.776c-1.413-10.777-4.242-16.234-8.466-16.351C807.453,52.548,768.111,52,728.765,52
			L728.765,52z"/>
		<path fill="#FFF800" d="M871.598,57.409l0.065,0.001c53.78,1.814,108.263,4.697,161.934,8.567
			c1.826,0.132,4.089,3.866,4.966,13.952c0.348,4.993,0.328,10.151-0.059,15.332c-0.387,5.19-1.131,10.305-2.201,15.153
			c-2.301,9.673-4.986,13.119-6.731,13.119c-0.042,0-0.083-0.002-0.126-0.005c-14.24-1.027-28.686-1.994-42.937-2.874l-2.994-0.185
			l-0.185,2.994l-10.828,175.288c-0.275,0.346-2.713,2.664-18.624,2.664c-3.878,0-8.383-0.136-13.392-0.404
			c-28.032-1.473-31.25-5.041-31.592-5.631l3.885-87.689l3.889-87.764l0.133-2.997l-2.997-0.133
			c-14.625-0.648-29.458-1.227-44.086-1.72c-1.782-0.06-4.144-3.707-5.423-13.715c-0.558-4.992-0.758-10.157-0.596-15.35
			c0.162-5.199,0.689-10.339,1.555-15.23C867.164,60.922,869.784,57.409,871.598,57.409 M871.598,54.409
			c-4.145,0-7.25,5.273-9.289,15.802c-0.906,5.109-1.441,10.345-1.609,15.707c-0.168,5.367,0.037,10.626,0.613,15.777
			c1.377,10.784,4.14,16.24,8.303,16.38c14.687,0.495,29.372,1.068,44.055,1.719c-2.592,58.509-5.185,117.019-7.777,175.528
			c-0.202,4.677,11.279,7.468,34.435,8.684c5.065,0.271,9.579,0.408,13.55,0.408c14.18,0,21.385-1.751,21.614-5.401
			c3.611-58.455,7.222-116.911,10.833-175.366c14.306,0.884,28.608,1.841,42.906,2.872c0.115,0.008,0.228,0.012,0.341,0.012
			c3.993,0,7.202-5.138,9.649-15.424c1.116-5.061,1.874-10.269,2.274-15.624c0.399-5.35,0.42-10.613,0.058-15.789
			c-0.938-10.829-3.524-16.405-7.741-16.71c-53.97-3.892-107.997-6.75-162.049-8.573C871.709,54.41,871.654,54.409,871.598,54.409
			L871.598,54.409z"/>
		<path fill="#FFF800" d="M1065.855,68.445c0.151,0,0.307,0.007,0.467,0.02c19.49,1.557,39.245,3.274,58.715,5.103
			c0.939,0.088,1.609,0.352,1.982,0.772c0.136,0.155,0.499,0.568,0.39,1.711l-4.533,47.595l-17.701,185.848
			c-0.114,1.196-0.544,1.55-0.687,1.667c-0.199,0.164-0.556,0.382-1.342,0.382c-0.144,0-0.297-0.008-0.455-0.022
			c-18.37-1.725-37.011-3.345-55.404-4.815c-1.225-0.098-1.584-0.519-1.715-0.672c-0.118-0.136-0.475-0.55-0.381-1.753l9.185-116.89
			l9.185-116.89c0.09-1.147,0.513-1.486,0.672-1.613c0.137-0.109,0.553-0.442,1.622-0.442H1065.855 M1065.854,65.445
			c-1.416,0-2.583,0.369-3.496,1.1c-1.067,0.854-1.661,2.096-1.789,3.721c-6.123,77.926-12.246,155.853-18.369,233.779
			c-0.128,1.63,0.237,2.948,1.101,3.948c0.858,1.006,2.108,1.571,3.746,1.702c18.462,1.475,36.917,3.079,55.362,4.811
			c0.253,0.024,0.498,0.036,0.736,0.036c1.3,0,2.384-0.354,3.249-1.066c1.019-0.837,1.612-2.072,1.767-3.699
			c7.411-77.814,14.823-155.629,22.235-233.443c0.155-1.623-0.222-2.949-1.121-3.974c-0.904-1.02-2.225-1.617-3.956-1.78
			c-19.577-1.839-39.162-3.541-58.757-5.106C1066.319,65.455,1066.083,65.445,1065.854,65.445L1065.854,65.445z"/>
		<path fill="#FFF800" d="M1256.147,85.943c6.227,0,12.73,0.435,19.328,1.292c34.032,4.427,60.273,18.454,77.996,41.693
			c8.74,11.455,14.562,25.339,17.304,41.268c2.751,15.982,2.49,34.506-0.775,55.058c-6.446,40.579-21.516,69.702-44.79,86.559
			c-18.723,13.545-39.615,20.129-63.871,20.129c-5.975,0-12.226-0.418-18.578-1.243c-32.108-4.162-56.475-17.389-74.495-40.437
			c-18.008-23.046-25.104-54.885-21.092-94.632c2.03-20.116,6.533-37.678,13.383-52.2c6.839-14.498,16.232-26.406,27.919-35.393
			c19.05-14.66,41.816-22.094,67.667-22.095H1256.147 M1256.374,269.337c10.543,0,19.979-4.126,28.045-12.264
			c9.291-9.374,15.351-23.767,18.014-42.778c2.679-19.129,0.582-34.677-6.234-46.213c-6.988-11.819-16.922-18.641-29.526-20.277
			c-1.764-0.229-3.529-0.345-5.246-0.345c-10.539,0-20.141,4.302-28.538,12.787c-9.542,9.636-15.535,24.185-17.811,43.241
			c-2.265,18.945-0.128,34.282,6.352,45.583c6.609,11.534,16.48,18.228,29.34,19.896
			C1252.665,269.212,1254.55,269.337,1256.374,269.337 M1256.143,82.943c-26.634,0.001-49.896,7.635-69.495,22.717
			c-24.332,18.711-38.323,48.708-42.458,89.669c-4.137,40.985,3.273,73.182,21.713,96.78c18.467,23.62,43.803,37.33,76.473,41.564
			c6.505,0.845,12.822,1.268,18.963,1.268c24.696,0,46.488-6.851,65.629-20.698c23.865-17.285,39.349-46.684,45.994-88.519
			c6.643-41.816,1.108-74.744-17.107-98.616c-18.188-23.849-44.999-38.296-79.994-42.848
			C1269.097,83.381,1262.525,82.943,1256.143,82.943L1256.143,82.943z M1256.374,266.337c-1.704,0-3.443-0.115-5.217-0.345
			c-11.946-1.549-20.965-7.664-27.123-18.412c-6.159-10.742-8.178-25.315-5.976-43.735c2.2-18.417,7.826-32.258,16.964-41.486
			c7.843-7.925,16.667-11.898,26.406-11.898c1.595,0,3.216,0.107,4.86,0.32c11.681,1.516,20.817,7.813,27.33,18.829
			c6.512,11.022,8.434,25.787,5.845,44.27c-2.59,18.491-8.341,32.171-17.174,41.083
			C1274.762,262.554,1266.141,266.337,1256.374,266.337L1256.374,266.337z"/>
	</g>
</g>
<path fill="#FFFFFF" d="M1308.569,116.919c-4.534-2.959-1.214-9.947,3.987-8.446c11.303,3.261,24.963,10.671,37.918,26.685
	c15.283,18.891,14.048,41.065,11.9,55.435c-0.658,4.399-6.918,4.598-7.918,0.265
	C1349.625,169.936,1337.583,135.852,1308.569,116.919z"/>
<path fill="#FFFFFF" d="M570.99,77.434c-5.173-1.595-3.908-9.227,1.505-9.218c11.764,0.02,26.937,3.379,43.803,15.203
	c19.897,13.949,24.82,35.603,26.715,50.01c0.58,4.409-5.383,6.326-7.539,2.436C625.067,117.085,604.098,87.639,570.99,77.434z"/>
<path fill="#FFFFFF" d="M164.476,104.383c5.173-1.595,3.908-9.227-1.505-9.218c-11.764,0.02-26.937,3.379-43.803,15.203
	c-19.897,13.949-24.82,35.603-26.715,50.01c-0.58,4.409,5.383,6.326,7.539,2.436C110.399,144.035,131.368,114.589,164.476,104.383z"
	/>
<path fill="#FFFFFF" d="M1192.992,119.878c-4.598,2.528-8.63,5.958-12.02,9.964c-4.783,5.651-11.768,14.814-12.841,21.253
	c-1.656,9.935,9.659,8.417,21.78-10.956C1201.657,121.367,1203.116,114.311,1192.992,119.878z"/>
<g>
</g>
<g>
</g>
<g>
</g>
<g>
</g>
<g>
</g>
<g>
</g>
<g>
</g>
<g>
</g>
<g>
</g>
<g>
</g>
<g>
</g>
<g>
</g>
<g>
</g>
<g>
</g>
<g>
</g>
</svg>
